<?xml version="1.0" encoding="UTF-8"?>
<svg version="1.1" xmlns="http://www.w3.org/2000/svg" width="1280" height="1280">
<path d="M0 0 C42.90067415 -1.40743402 86.32121794 6.82104446 127 20 C127.8883252 20.28568848 128.77665039 20.57137695 129.69189453 20.86572266 C180.96758006 37.53144591 229.75376835 65.04370777 270 101 C270.87785156 101.77859375 271.75570313 102.5571875 272.66015625 103.359375 C275.12039432 105.55838336 277.56235722 107.77598476 280 110 C280.97839844 110.88558594 281.95679688 111.77117187 282.96484375 112.68359375 C291.10417242 120.06987683 299.0452417 127.56944501 306.203125 135.92578125 C308.1746243 138.20157718 310.21134395 140.40922667 312.25 142.625 C317.83311892 148.82951158 322.94766125 155.36361573 328 162 C328.54849609 162.71865234 329.09699219 163.43730469 329.66210938 164.17773438 C386.36435228 238.81966995 415.34585545 330.17473909 410.96484375 470.04296875 C398.09069003 563.33114041 355.9540804 647.24190298 289.52050781 713.66479492 C287.99513287 715.19237416 286.47799328 716.72783582 284.9609375 718.26367188 C278.63183124 724.62840329 272.02655867 730.40059951 265 736 C263.89819441 736.93480613 262.8018506 737.87615116 261.71484375 738.828125 C247.84317561 750.9243757 232.64089211 761.3325313 217 771 C216.23010742 771.47743652 215.46021484 771.95487305 214.66699219 772.44677734 C204.1550584 778.90790678 193.82751136 784.4106591 182 788 C181.17612793 788.25088379 180.35225586 788.50176758 179.50341797 788.76025391 C139.37556765 800.66987621 89.58362454 806.75694207 51 787 C25.19018283 771.94681266 10.49806082 746.88694913 2.70410156 718.72363281 C1.40034696 713.680399 0.29642356 708.60219535 -0.75 703.5 C-0.94867676 702.54109863 -1.14735352 701.58219727 -1.35205078 700.59423828 C-4.37107223 685.02829821 -5.30004753 669.43925394 -5.24050903 653.6184845 C-5.24138395 651.85317046 -5.24314016 650.08785669 -5.24568737 648.32254428 C-5.25010874 643.5311704 -5.24223005 638.73988782 -5.23213124 633.94852555 C-5.22342286 628.75930887 -5.22642208 623.57009657 -5.22793579 618.38087463 C-5.22898001 609.40992341 -5.2227521 600.43900149 -5.21146011 591.46805763 C-5.19514489 578.49788585 -5.18999097 565.5277281 -5.18748413 552.55754717 C-5.18311644 531.50979232 -5.16983256 510.46205305 -5.15087891 489.41430664 C-5.13249607 468.97908607 -5.11835135 448.54386975 -5.10986328 428.10864258 C-5.10933783 426.8471482 -5.10881239 425.58565382 -5.10827102 424.28593234 C-5.10566078 417.95682821 -5.1031334 411.62772405 -5.10064721 405.29861987 C-5.07994357 352.86573582 -5.04474337 300.43286867 -5 248 C39.86558507 254.37048489 39.86558507 254.37048489 59.70922852 257.43505859 C61.64165148 257.7317114 63.57410722 258.02815072 65.5065918 258.32440186 C69.55429106 258.94523673 73.60180617 259.56725206 77.64917183 260.19025803 C84.06046156 261.17687777 90.47242618 262.15906485 96.88450623 263.14053345 C115.0773917 265.92573848 133.26978187 268.71413577 151.46069336 271.51220703 C161.59365847 273.07079204 171.7273453 274.6245912 181.86186546 276.17303336 C188.22939345 277.14617999 194.59599564 278.12510981 200.96196187 279.10841823 C204.9037454 279.71581629 208.84637523 280.31756902 212.78926849 280.91771698 C214.60968865 281.19594482 216.42976043 281.47646354 218.24944115 281.75948715 C220.73920307 282.14638722 223.23010615 282.52490504 225.72145081 282.90145874 C226.43310302 283.01409447 227.14475523 283.1267302 227.87797266 283.24277914 C237.16564329 284.84203732 237.16564329 284.84203732 245.75 282.25 C262.10887758 258.62051016 263.61027331 216.54410484 258.8125 189.375 C256.86298379 181.47625592 254.28658511 173.41030151 247 169 C244.24916185 168.08305395 242.62281351 167.87142987 239.78898335 167.8613348 C238.92609489 167.85586036 238.06320643 167.85038591 237.17416984 167.84474558 C236.22573508 167.84376747 235.27730033 167.84278936 234.30012512 167.84178162 C233.29300797 167.83684364 232.28589081 167.83190566 231.24825495 167.82681805 C227.85796921 167.81140338 224.46770245 167.80307168 221.07739258 167.79467773 C218.65333386 167.78510233 216.22927682 167.77509245 213.80522156 167.76467896 C208.57835918 167.74320627 203.35149535 167.72476908 198.12461281 167.70907402 C190.56738743 167.68637629 183.01019008 167.65823333 175.45298847 167.62875474 C163.19238554 167.58107765 150.93177116 167.53781378 138.67114258 167.49731445 C126.7600007 167.45796013 114.848869 167.41653405 102.93774414 167.37231445 C102.2037314 167.36959018 101.46971866 167.36686591 100.71346311 167.36405908 C97.03119335 167.35037961 93.34892375 167.33665934 89.66665423 167.32291877 C59.1111239 167.20895215 28.55557203 167.10221655 -2 167 C-2.04710005 156.79675104 -2.01353202 146.62434728 -1.54101562 136.42944336 C-1.49224777 135.3062973 -1.44347992 134.18315125 -1.39323425 133.02597046 C-1.28852911 130.6247975 -1.1820924 128.22369949 -1.07402039 125.8226757 C-0.90203985 121.99616933 -0.73534903 118.16946267 -0.56994629 114.34266663 C-0.15827702 104.83862508 0.26033657 95.33489358 0.68218994 85.83129883 C1.03946722 77.78130639 1.39230731 69.7311494 1.73908997 61.68069649 C1.90109403 57.95831306 2.06927669 54.23624378 2.2376709 50.5141449 C2.74504225 38.99537688 3.13420864 27.4773193 3.25585938 15.94750977 C3.27687965 14.88735373 3.29789993 13.8271977 3.31955719 12.73491573 C3.32347221 11.76077504 3.32738724 10.78663435 3.3314209 9.78297424 C3.34016991 8.92851495 3.34891891 8.07405565 3.35793304 7.19370365 C2.92105807 4.5161799 1.9760854 3.77140566 0 2 C0 1.34 0 0.68 0 0 Z " fill="#689E86" transform="translate(636,67)"/>
<path d="M0 0 C0 0.66 0 1.32 0 2 C-0.68578125 2.5053125 -1.3715625 3.010625 -2.078125 3.53125 C-6.14810553 6.97005708 -8.77947191 11.10781573 -11.75 15.5 C-12.99854223 17.31480586 -14.24853811 19.12861251 -15.5 20.94140625 C-16.40298828 22.25262451 -16.40298828 22.25262451 -17.32421875 23.59033203 C-20.74003415 28.50205959 -24.35772474 33.25440778 -28 38 C-28.81796545 39.0753253 -29.63566324 40.15085424 -30.453125 41.2265625 C-41.98392775 56.35755045 -54.20465492 70.92512041 -67 85 C-67.763125 85.8559375 -68.52625 86.711875 -69.3125 87.59375 C-73.17042274 91.92087956 -77.07802874 96.13294891 -81.22143555 100.18701172 C-82.97325946 101.9727419 -84.58917824 103.82322001 -86.20703125 105.73046875 C-89.91772593 109.9947357 -93.91591736 113.85174343 -98.0625 117.6875 C-98.80129395 118.37593994 -99.54008789 119.06437988 -100.30126953 119.77368164 C-101.80925166 121.1781621 -103.3186792 122.58109233 -104.82958984 123.98242188 C-106.83840601 125.84978485 -108.83720633 127.7270894 -110.83203125 129.609375 C-116.7191365 135.15074487 -122.66617386 140.52150526 -128.984375 145.57421875 C-131.28924507 147.42826579 -133.56444265 149.30378311 -135.828125 151.20703125 C-157.42486412 169.32312594 -180.99044187 185.54487015 -205.24462891 199.9206543 C-212.08023103 204.04826895 -217.49815109 209.44315902 -219.625 217.3125 C-220.06413493 220.45963363 -219.97216349 223.3304676 -219.75 226.5 C-219.68296875 227.6034375 -219.6159375 228.706875 -219.546875 229.84375 C-218.9642991 233.20604521 -217.85092084 235.17386281 -216 238 C-216 238.66 -216 239.32 -216 240 C-210.73741277 242.13348131 -206.78558282 243.12845635 -201.06933594 243.15771484 C-200.36813126 243.16279556 -199.66692657 243.16787628 -198.94447327 243.17311096 C-197.42214962 243.18380644 -195.89981033 243.19242985 -194.37746429 243.19923019 C-191.96406401 243.21103686 -189.55084124 243.23049552 -187.13751221 243.25234985 C-180.27581737 243.31389687 -173.4141401 243.36794022 -166.55224609 243.40136719 C-162.35353188 243.42237029 -158.15514068 243.45772065 -153.95661163 243.50212479 C-152.36035222 243.51624277 -150.76403565 243.5249977 -149.16771698 243.52817917 C-146.92755093 243.53311527 -144.68823418 243.55634168 -142.44824219 243.58349609 C-141.17599792 243.59158295 -139.90375366 243.5996698 -138.59295654 243.60800171 C-133.20416581 244.19592887 -128.31681101 245.89250772 -124.6875 250.125 C-124.21699219 250.64320313 -123.74648438 251.16140625 -123.26171875 251.6953125 C-119.4741768 258.61373279 -119.74040425 266.64916168 -119.85778809 274.31939697 C-119.86637769 275.44027781 -119.8749673 276.56115864 -119.8838172 277.71600556 C-119.90364605 280.1747527 -119.92803486 282.63346627 -119.95640373 285.09212971 C-120.00102949 289.09228132 -120.03079195 293.09239594 -120.05574036 297.09270477 C-120.11013747 305.51243662 -120.1809595 313.93199175 -120.25362897 322.351583 C-120.29124648 326.73891886 -120.32757256 331.12626546 -120.36405945 335.51361084 C-120.4272289 343.09019285 -120.49115373 350.66676818 -120.55558777 358.24333954 C-120.64899832 369.22992945 -120.74094447 380.21653128 -120.83250958 391.20313671 C-120.98150802 409.07911564 -121.131284 426.95508795 -121.28173828 444.83105469 C-121.29071013 445.89706611 -121.29968197 446.96307754 -121.30892569 448.06139234 C-121.3998814 458.86735298 -121.49091849 469.67331294 -121.58200577 480.47927247 C-121.62743396 485.86866855 -121.67285142 491.25806471 -121.71826172 496.64746094 C-121.7317032 498.24267116 -121.7317032 498.24267116 -121.74541622 499.87010786 C-121.89547529 517.68232383 -122.04454569 535.49454795 -122.19290113 553.30677819 C-122.28407943 564.24867277 -122.37610824 575.19055953 -122.46928632 586.13243726 C-122.5331963 593.64431987 -122.59619272 601.15620981 -122.65850937 608.66810581 C-122.69432524 612.9817764 -122.73052632 617.29544272 -122.76787376 621.60910034 C-122.90558071 637.55104381 -123.02755653 653.49307008 -123.06408691 669.43560791 C-123.06933679 670.61430946 -123.07458667 671.79301101 -123.07999563 673.00743079 C-123.12218883 721.96561414 -111.22035619 771.44888895 -80.1640625 810.1953125 C-78.22006349 812.71479136 -76.5692209 815.23614642 -75 818 C-80.49512164 817.44674862 -85.49617111 816.42195646 -90.7421875 814.6640625 C-91.81783966 814.31183876 -91.81783966 814.31183876 -92.91522217 813.95249939 C-95.2386277 813.18670015 -97.55719801 812.40758528 -99.875 811.625 C-101.07367706 811.22267654 -101.07367706 811.22267654 -102.29656982 810.81222534 C-151.33760977 794.29498585 -196.3472582 769.2552791 -236 736 C-236.99 735.18402344 -237.98 734.36804688 -239 733.52734375 C-252.8420823 722.05157592 -266.44449738 709.76470508 -278.16796875 696.109375 C-280.15311587 693.82370454 -282.2003983 691.60298622 -284.25 689.375 C-347.88364845 618.73086486 -383.77553221 522.16610192 -385.89324951 392.67468262 C-381.86497726 316.55239522 -356.77272281 241.52334232 -313 179 C-312.50000488 178.28360352 -312.00000977 177.56720703 -311.48486328 176.82910156 C-305.20677492 167.87676517 -298.73639987 159.21172821 -291.55859375 150.9609375 C-289.07456066 148.08628546 -286.68812849 145.15195948 -284.3125 142.1875 C-281.11831705 138.25882578 -277.78945732 134.62910728 -274.1171875 131.14453125 C-272.23311218 129.23612285 -270.50243172 127.2766705 -268.7578125 125.2421875 C-265.07117779 120.99918118 -261.11368224 117.1379047 -257 113.3125 C-256.2572583 112.61970947 -255.5145166 111.92691895 -254.74926758 111.21313477 C-188.30078318 49.54888463 -92.475635 0 0 0 Z " fill="#5B957E" transform="translate(616,57)"/>
<path d="M0 0 C26.63116324 7.39687707 26.63116324 7.39687707 38.6953125 11.12890625 C40.41220779 11.655448 40.41220779 11.655448 42.16378784 12.19262695 C44.57685063 12.932794 46.9895392 13.67418212 49.40185547 14.41677856 C55.91404369 16.42077104 62.42967077 18.41351997 68.9453125 20.40625 C69.59879921 20.60619631 70.25228592 20.80614262 70.92557526 21.0121479 C82.60095289 24.58372914 94.29394577 28.09291862 106 31.5625 C127.85177168 38.04310185 149.67697825 44.61088873 171.5 51.1875 C173.32296706 51.73681797 175.14593459 52.28613437 176.96890259 52.83544922 C194.18087777 58.02216194 211.39186831 63.21213702 228.60160828 68.40626144 C234.29686033 70.12515735 239.99217906 71.84383234 245.6875 73.5625 C247.52516937 74.11710907 247.52516937 74.11710907 249.39996338 74.68292236 C265.43311848 79.52105346 281.47057239 84.34468237 297.51171875 89.15625 C298.39628187 89.42157972 299.28084499 89.68690945 300.19221306 89.96027946 C308.93073951 92.58131533 317.66952042 95.20150044 326.40884304 97.81988049 C329.64467178 98.7894234 332.88040968 99.75926918 336.11611748 100.72921562 C337.69226311 101.20164115 339.26844102 101.67395899 340.84465218 102.14616585 C349.41510985 104.71403841 357.98162751 107.29409016 366.54003906 109.90185547 C367.30722574 110.13538569 368.07441242 110.36891592 368.86484718 110.60952282 C372.50026701 111.71625349 376.13495698 112.82526285 379.76828003 113.93885803 C381.05659156 114.33164736 382.34493024 114.72434763 383.63330078 115.11694336 C384.74698029 115.45785507 385.86065979 115.79876678 387.00808716 116.15000916 C389.66346045 116.90439042 392.28566815 117.50634003 395 118 C389.13303309 175.59405846 334.06191736 238.12974251 294.52050781 277.66479492 C292.99513287 279.19237416 291.47799328 280.72783582 289.9609375 282.26367188 C283.63183124 288.62840329 277.02655867 294.40059951 270 300 C268.89819441 300.93480613 267.8018506 301.87615116 266.71484375 302.828125 C252.84317561 314.9243757 237.64089211 325.3325313 222 335 C221.23010742 335.47743652 220.46021484 335.95487305 219.66699219 336.44677734 C209.1550584 342.90790678 198.82751136 348.4106591 187 352 C186.17612793 352.25088379 185.35225586 352.50176758 184.50341797 352.76025391 C144.37556765 364.66987621 94.58362454 370.75694207 56 351 C30.19018283 335.94681266 15.49806082 310.88694913 7.70410156 282.72363281 C6.40034696 277.680399 5.29642356 272.60219535 4.25 267.5 C4.05132324 266.54109863 3.85264648 265.58219727 3.64794922 264.59423828 C0.27067905 247.18118377 -0.28802366 229.86696704 -0.22705078 212.17895508 C-0.22648523 209.85105901 -0.22680602 207.52316259 -0.22793579 205.19526672 C-0.22850471 198.93622887 -0.21682582 192.6772692 -0.20278788 186.41824937 C-0.19020289 179.85465797 -0.18910394 173.29106437 -0.18673706 166.72746277 C-0.18157938 155.73048565 -0.16879254 144.7335356 -0.15087891 133.73657227 C-0.13246378 122.41984191 -0.11833501 111.1031193 -0.10986328 99.78637695 C-0.10933783 99.08643774 -0.10881239 98.38649853 -0.10827102 97.66534904 C-0.10566056 94.15325033 -0.10313324 90.64115156 -0.10064721 87.12905276 C-0.07998206 58.0860168 -0.04466531 29.04300878 0 0 Z " fill="#5C967D" transform="translate(631,503)"/>
<path d="M0 0 C0 0.66 0 1.32 0 2 C-0.68578125 2.5053125 -1.3715625 3.010625 -2.078125 3.53125 C-6.14810553 6.97005708 -8.77947191 11.10781573 -11.75 15.5 C-12.99854223 17.31480586 -14.24853811 19.12861251 -15.5 20.94140625 C-16.40298828 22.25262451 -16.40298828 22.25262451 -17.32421875 23.59033203 C-20.74003415 28.50205959 -24.35772474 33.25440778 -28 38 C-28.81796545 39.0753253 -29.63566324 40.15085424 -30.453125 41.2265625 C-41.98392775 56.35755045 -54.20465492 70.92512041 -67 85 C-67.763125 85.8559375 -68.52625 86.711875 -69.3125 87.59375 C-73.17042274 91.92087956 -77.07802874 96.13294891 -81.22143555 100.18701172 C-82.97325946 101.9727419 -84.58917824 103.82322001 -86.20703125 105.73046875 C-89.91772593 109.9947357 -93.91591736 113.85174343 -98.0625 117.6875 C-98.80129395 118.37593994 -99.54008789 119.06437988 -100.30126953 119.77368164 C-101.80925166 121.1781621 -103.3186792 122.58109233 -104.82958984 123.98242188 C-106.83840601 125.84978485 -108.83720633 127.7270894 -110.83203125 129.609375 C-116.7191365 135.15074487 -122.66617386 140.52150526 -128.984375 145.57421875 C-131.28924507 147.42826579 -133.56444265 149.30378311 -135.828125 151.20703125 C-157.42486412 169.32312594 -180.99044187 185.54487015 -205.24462891 199.9206543 C-212.08023103 204.04826895 -217.49815109 209.44315902 -219.625 217.3125 C-220.06413493 220.45963363 -219.97216349 223.3304676 -219.75 226.5 C-219.68296875 227.6034375 -219.6159375 228.706875 -219.546875 229.84375 C-218.9642991 233.20604521 -217.85092084 235.17386281 -216 238 C-216 238.66 -216 239.32 -216 240 C-210.92179247 242.05873278 -207.01828518 243.13296811 -201.5090332 243.20532227 C-200.8551059 243.21522186 -200.20117859 243.22512146 -199.5274353 243.23532104 C-197.3685873 243.26687783 -195.20971729 243.29167032 -193.05078125 243.31640625 C-191.55290662 243.33698081 -190.05503772 243.35797742 -188.55717468 243.37937927 C-184.6166143 243.43454809 -180.67600197 243.48398021 -176.73535156 243.53222656 C-172.71349469 243.58247951 -168.69171316 243.63814577 -164.66992188 243.69335938 C-156.78001164 243.80087746 -148.89003834 243.90233648 -141 244 C-143.53033817 246.57000663 -145.95214813 248.80214165 -148.94921875 250.8125 C-149.70581787 251.32417725 -150.46241699 251.83585449 -151.24194336 252.36303711 C-152.04897705 252.90323486 -152.85601074 253.44343262 -153.6875 254 C-155.41216185 255.16692966 -157.13610669 256.33491966 -158.859375 257.50390625 C-159.72498047 258.09059082 -160.59058594 258.67727539 -161.48242188 259.28173828 C-165.16273653 261.79357445 -168.80334067 264.35951009 -172.4375 266.9375 C-178.54948964 271.26879737 -184.67389608 275.58148435 -190.8125 279.875 C-191.649021 280.46015381 -192.48554199 281.04530762 -193.34741211 281.64819336 C-195.04876407 282.83814498 -196.75018033 284.02800466 -198.45166016 285.21777344 C-201.80377295 287.56213284 -205.15486538 289.90794804 -208.50585938 292.25390625 C-211.00768991 294.00538354 -213.50970456 295.75659758 -216.01171875 297.5078125 C-219.30663248 299.8141878 -222.60085442 302.12154619 -225.89453125 304.4296875 C-234.81364685 310.67865895 -243.74395603 316.91103184 -252.6875 323.125 C-259.30891466 327.72592353 -265.91943486 332.34082594 -272.5 337 C-280.06400333 342.35546831 -287.66989245 347.64960949 -295.28125 352.9375 C-301.52964129 357.27918272 -307.76931005 361.63295671 -314 366 C-322.12627622 371.69497761 -330.26964502 377.36504987 -338.41821289 383.02807617 C-345.58854761 388.01306248 -352.74522149 393.01721637 -359.8918457 398.03613281 C-363.83222442 400.79931789 -367.78398762 403.54262444 -371.765625 406.24609375 C-372.51271729 406.75422607 -373.25980957 407.2623584 -374.02954102 407.78588867 C-375.43094622 408.73670064 -376.83494398 409.68370668 -378.24194336 410.6262207 C-381.66109822 412.80250569 -381.66109822 412.80250569 -384 416 C-384.15067214 417.4465242 -384.24861036 418.8987934 -384.31640625 420.3515625 C-384.35830078 421.20234375 -384.40019531 422.053125 -384.44335938 422.9296875 C-384.50233398 424.26386719 -384.50233398 424.26386719 -384.5625 425.625 C-384.60568359 426.5221875 -384.64886719 427.419375 -384.69335938 428.34375 C-384.79956861 430.56234283 -384.90161194 432.7810488 -385 435 C-385.33 435 -385.66 435 -386 435 C-387.39346463 343.31717354 -366.24187333 255.04872757 -313 179 C-312.50000488 178.28360352 -312.00000977 177.56720703 -311.48486328 176.82910156 C-305.20677492 167.87676517 -298.73639987 159.21172821 -291.55859375 150.9609375 C-289.07456066 148.08628546 -286.68812849 145.15195948 -284.3125 142.1875 C-281.11831705 138.25882578 -277.78945732 134.62910728 -274.1171875 131.14453125 C-272.23311218 129.23612285 -270.50243172 127.2766705 -268.7578125 125.2421875 C-265.07117779 120.99918118 -261.11368224 117.1379047 -257 113.3125 C-256.2572583 112.61970947 -255.5145166 111.92691895 -254.74926758 111.21313477 C-188.30078318 49.54888463 -92.475635 0 0 0 Z " fill="#679E85" transform="translate(616,57)"/>
<path d="M0 0 C2.74478459 9.71474461 4.98625963 19.33052184 6.5625 29.3125 C6.66605804 29.96685028 6.76961609 30.62120056 6.87631226 31.29537964 C16.85756059 95.04980553 12.71741226 159.63677154 -5.75 221.5 C-5.94654175 222.15986908 -6.1430835 222.81973816 -6.34558105 223.49960327 C-9.62632916 234.43949374 -9.62632916 234.43949374 -12 238 C-27.57283297 233.79880977 -43.01415608 229.2157166 -58.4375 224.5 C-59.41850677 224.20006134 -60.39951355 223.90012268 -61.4102478 223.59109497 C-62.40626007 223.28654388 -63.40227234 222.9819928 -64.4284668 222.66821289 C-66.47312797 222.04307734 -68.51780587 221.41799649 -70.5625 220.79296875 C-71.58974686 220.47894608 -72.61699371 220.1649234 -73.67536926 219.84138489 C-84.75101993 216.45925926 -95.84336801 213.13340102 -106.9375 209.8125 C-125.45535323 204.26737672 -143.96566492 198.69768796 -162.47139359 193.11227036 C-181.97610941 187.22539195 -201.48364942 181.34822217 -221 175.5 C-238.96265806 170.11733854 -256.91797716 164.71059713 -274.87000275 159.29260254 C-318.55412202 146.10885805 -362.24917121 132.96094269 -406 120 C-406 119.34 -406 118.68 -406 118 C-399.95967448 116.23163739 -393.91930603 114.46342144 -387.87890625 112.6953125 C-386.95490084 112.42484226 -386.03089542 112.15437202 -385.07888985 111.87570572 C-372.86996939 108.30209267 -360.66031543 104.73100451 -348.44962883 101.16343117 C-341.2786676 99.06814819 -334.10804851 96.97169488 -326.9375 94.875 C-325.66954023 94.50427305 -325.66954023 94.50427305 -324.37596512 94.12605667 C-302.57489054 87.75140985 -280.78099919 81.35308956 -259 74.91015625 C-258.00947695 74.61720169 -257.0189539 74.32424713 -255.99841499 74.02241516 C-246.34830838 71.16817674 -236.69877482 68.3120231 -227.05090809 65.45022202 C-193.2856088 55.4366362 -193.2856088 55.4366362 -177.83848572 51.18797302 C-171.35661252 49.40347576 -164.923709 47.48331643 -158.5 45.5 C-149.59259925 42.75560092 -140.65109591 40.17758375 -131.65234375 37.74804688 C-124.98235261 35.92021276 -118.399292 33.86936005 -111.81640625 31.75390625 C-100.51436433 28.12573274 -89.15022073 24.73007283 -77.75927734 21.39282227 C-74.50125086 20.43786664 -71.24470554 19.4779813 -67.98828125 18.51757812 C-56.83517979 15.23722326 -45.66212702 12.06118823 -34.43777466 9.03352356 C-26.71420391 6.94320674 -19.07747722 4.62124275 -11.453125 2.1953125 C-10.06480469 1.7621875 -10.06480469 1.7621875 -8.6484375 1.3203125 C-7.44453369 0.93770264 -7.44453369 0.93770264 -6.21630859 0.54736328 C-4 0 -4 0 0 0 Z " fill="#755B46" transform="translate(1038,384)"/>
<path d="M0 0 C-10.37395539 58.81638757 -59.27870333 117.47062999 -100.47949219 158.66479492 C-102.00486713 160.19237416 -103.52200672 161.72783582 -105.0390625 163.26367188 C-111.36816876 169.62840329 -117.97344133 175.40059951 -125 181 C-126.10180559 181.93480613 -127.1981494 182.87615116 -128.28515625 183.828125 C-142.16258196 195.92939636 -157.37079221 206.30319439 -173 216 C-173.82838379 216.51997559 -174.65676758 217.03995117 -175.51025391 217.57568359 C-178.07731646 219.17678714 -180.66023096 220.74844361 -183.25 222.3125 C-184.04849365 222.81152832 -184.8469873 223.31055664 -185.66967773 223.82470703 C-186.79998413 224.49348877 -186.79998413 224.49348877 -187.953125 225.17578125 C-188.61473633 225.57708252 -189.27634766 225.97838379 -189.95800781 226.3918457 C-192.91537676 227.27262118 -194.29912523 226.39308005 -197 225 C-198.61246367 223.99109079 -200.19354617 222.93090927 -201.74609375 221.83203125 C-202.65480225 221.19354248 -203.56351074 220.55505371 -204.49975586 219.8972168 C-205.46921143 219.20926025 -206.43866699 218.52130371 -207.4375 217.8125 C-209.5097746 216.35585698 -211.58270789 214.90015065 -213.65625 213.4453125 C-214.71070313 212.70442383 -215.76515625 211.96353516 -216.8515625 211.20019531 C-221.68588667 207.82186642 -226.55923887 204.50193515 -231.4375 201.1875 C-233.26177483 199.94669703 -235.08599489 198.70581353 -236.91015625 197.46484375 C-237.7727002 196.87815918 -238.63524414 196.29147461 -239.52392578 195.68701172 C-245.06142936 191.91417108 -250.5783575 188.11135915 -256.09667969 184.31054688 C-259.39646954 182.0384494 -262.69835742 179.76940398 -266 177.5 C-269.96534094 174.77415956 -273.930479 172.04802677 -277.89453125 169.3203125 C-285.08951135 164.37016619 -292.29104237 159.42977219 -299.5 154.5 C-307.35787815 149.12647012 -315.20611092 143.7391099 -323.04833984 138.34277344 C-326.36491764 136.06091481 -329.6825171 133.78054245 -333 131.5 C-334.33333808 130.58334024 -335.66667142 129.66667358 -337 128.75 C-337.66 128.29625 -338.32 127.8425 -339 127.375 C-361 112.25 -361 112.25 -363.00268555 110.87304688 C-364.32693392 109.96269693 -365.65131399 109.05253852 -366.97583008 108.14257812 C-370.44930546 105.75587465 -373.91996822 103.36521313 -377.38671875 100.96875 C-378.10666016 100.47181641 -378.82660156 99.97488281 -379.56835938 99.46289062 C-380.94160802 98.51490607 -382.31405559 97.56575961 -383.68554688 96.61523438 C-386.40552074 94.73909935 -389.08390895 92.95211537 -391.95703125 91.3125 C-392.63121094 90.879375 -393.30539062 90.44625 -394 90 C-394 89.34 -394 88.68 -394 88 C-392.55439697 87.69147095 -392.55439697 87.69147095 -391.07958984 87.37670898 C-373.36342675 83.59112486 -355.67169025 79.74094785 -338.0402832 75.57592773 C-329.06603805 73.46310732 -320.07186392 71.45603761 -311.0625 69.5 C-292.73872918 65.51977313 -274.44652077 61.40303279 -256.171875 57.203125 C-253.42714391 56.57265261 -250.68234844 55.9424613 -247.9375 55.3125 C-247.23809296 55.15193115 -246.53868591 54.9913623 -245.81808472 54.82592773 C-230.13785713 51.22983562 -214.43012212 47.75878326 -198.72314453 44.2817688 C-183.15529006 40.83398788 -167.60602842 37.31813382 -152.07693481 33.70001221 C-139.70005016 30.81901184 -127.29452078 28.09706074 -114.86743164 25.44177246 C-103.15751878 22.93657732 -91.4933339 20.27438264 -79.84405518 17.5017395 C-65.06911777 13.9868229 -50.25083658 10.68253465 -35.41902161 7.41705322 C-30.5439139 6.3431316 -25.67158407 5.25733202 -20.80078125 4.1640625 C-19.54128662 3.88191895 -18.28179199 3.59977539 -16.98413086 3.30908203 C-14.63695442 2.78290042 -12.29009376 2.25530752 -9.94360352 1.72607422 C-8.91807373 1.49678223 -7.89254395 1.26749023 -6.8359375 1.03125 C-5.49861572 0.73057617 -5.49861572 0.73057617 -4.13427734 0.42382812 C-2 0 -2 0 0 0 Z " fill="#E2B88F" transform="translate(1026,622)"/>
<path d="M0 0 C0.66 0 1.32 0 2 0 C2.03302941 9.97915199 2.05175838 19.95830217 2.0625 29.9375 C2.06378403 31.12495127 2.06378403 31.12495127 2.06509399 32.33639145 C2.10346898 72.93616837 1.7278286 113.5329967 1.35571289 154.13061523 C1.0674899 183.9476608 1.0674899 183.9476608 0.921875 213.765625 C0.91748413 214.86348831 0.91309326 215.96135162 0.90856934 217.09248352 C0.91824957 265.63766276 13.07043042 314.81167986 43.8359375 353.1953125 C45.77993651 355.71479136 47.4307791 358.23614642 49 361 C43.50487836 360.44674862 38.50382889 359.42195646 33.2578125 357.6640625 C32.18216034 357.31183876 32.18216034 357.31183876 31.08477783 356.95249939 C28.7613723 356.18670015 26.44280199 355.40758528 24.125 354.625 C23.32588196 354.35678436 22.52676392 354.08856873 21.70343018 353.81222534 C-27.31389397 337.30297344 -72.38988798 312.28153492 -112 279 C-112.55381348 278.5364209 -113.10762695 278.0728418 -113.67822266 277.59521484 C-115.45433689 276.10772527 -117.22782972 274.61718558 -119 273.125 C-119.55260498 272.6602124 -120.10520996 272.1954248 -120.67456055 271.71655273 C-126.35549086 266.90717379 -126.35549086 266.90717379 -128 265 C-128 264.34 -128 263.68 -128 263 C-126.79698242 262.52401367 -125.59396484 262.04802734 -124.35449219 261.55761719 C-112.84028802 256.98618263 -101.39987173 252.26233927 -89.9982605 247.4175415 C-85.15331413 245.35926647 -80.30526918 243.30831998 -75.45703125 241.2578125 C-74.44987564 240.83180756 -73.44272003 240.40580261 -72.40504456 239.96688843 C-60.59971767 234.97842328 -48.76972373 230.04925337 -36.9375 225.125 C-35.91861694 224.70093872 -34.89973389 224.27687744 -33.84997559 223.83996582 C-31.87210921 223.01689053 -29.89419525 222.19392959 -27.91622925 221.37109375 C-26.0653336 220.60111796 -24.21452068 219.83094324 -22.36380005 219.06054688 C-18.58132224 217.48654361 -14.79806083 215.91479648 -11.00830078 214.35839844 C-9.91372559 213.90754883 -8.81915039 213.45669922 -7.69140625 212.9921875 C-6.78720947 212.62206543 -5.8830127 212.25194336 -4.95141602 211.87060547 C-3.03657431 211.15579357 -3.03657431 211.15579357 -2 210 C-3.40223312 209.43989227 -3.40223312 209.43989227 -4.83279419 208.86846924 C-25.7489746 200.51252309 -46.65656955 192.13539633 -67.5546875 183.734375 C-68.66029274 183.28993546 -69.76589798 182.84549591 -70.90500641 182.3875885 C-80.03596618 178.716924 -89.16662326 175.04550679 -98.29718018 171.37384033 C-130.09119678 158.5885687 -161.89534138 145.82912604 -193.71658325 133.11175537 C-200.88503502 130.24679047 -208.05256169 127.37951338 -215.22002983 124.51208878 C-218.21174776 123.31524344 -221.20353218 122.11856436 -224.1953125 120.921875 C-225.796875 120.28125 -227.3984375 119.640625 -229 119 C-226.44680609 116.07012338 -223.57559516 114.57444352 -220.13671875 112.8125 C-219.26710762 112.36423103 -219.26710762 112.36423103 -218.37992859 111.90690613 C-216.48530636 110.93225791 -214.58652584 109.96603601 -212.6875 109 C-211.3684506 108.3237169 -210.04960464 107.64703689 -208.73095703 106.9699707 C-200.07787595 102.53480993 -191.38850471 98.17328325 -182.67944336 93.84912109 C-176.21941519 90.6343387 -169.83351908 87.29575865 -163.46240234 83.90893555 C-156.6958862 80.32909888 -149.85463425 76.90750032 -143 73.5 C-135.45424871 69.74888885 -127.93865523 65.95949362 -120.5 62 C-111.94840349 57.44810308 -103.28773877 53.12862216 -94.61328125 48.81640625 C-88.1994854 45.62078698 -81.82543405 42.36694134 -75.5 39 C-66.95274164 34.45041222 -58.29656201 30.13294865 -49.62646484 25.82299805 C-42.323683 22.1844887 -35.08170637 18.4503645 -27.87939453 14.61743164 C-21.0581325 10.99851781 -14.15665298 7.5482798 -7.23095703 4.1340332 C-6.43028809 3.73788818 -5.62961914 3.34174316 -4.8046875 2.93359375 C-4.09296387 2.58353271 -3.38124023 2.23347168 -2.64794922 1.87280273 C-1.01147808 1.10945248 -1.01147808 1.10945248 0 0 Z " fill="#755B46" transform="translate(492,514)"/>
<path d="M0 0 C4.60927163 1.28678337 7.59259589 4.15091863 10.64453125 7.73828125 C14.47332826 14.56352809 13.77231832 22.8140168 13.71850586 30.40356445 C13.71217211 32.12363063 13.71217211 32.12363063 13.70571041 33.87844563 C13.69076144 37.49844164 13.66828412 41.11833325 13.64453125 44.73828125 C13.63245947 46.96324602 13.6205039 49.18821143 13.6086731 51.41317749 C13.56886347 58.30677997 13.51587361 65.20025373 13.4609375 72.09375 C13.45115309 73.34618311 13.44136868 74.59861622 13.43128777 75.88900185 C13.38466949 81.85575206 13.33734089 87.8224954 13.28872067 93.78922957 C13.23946547 99.83416321 13.19198886 105.87910358 13.1472168 111.92407227 C12.89773296 145.53619516 12.47988829 179.13527154 11.64453125 212.73828125 C5.10186852 212.2026169 -1.3602649 211.52510261 -7.83203125 210.42578125 C-9.00553383 210.23189316 -9.00553383 210.23189316 -10.20274353 210.03408813 C-11.9009036 209.75328928 -13.59878784 209.47081814 -15.29641724 209.18682861 C-20.06583459 208.38978371 -24.83773365 207.60781969 -29.609375 206.82421875 C-30.63145554 206.65610687 -31.65353607 206.487995 -32.70658875 206.31478882 C-45.10229696 204.28004138 -57.50967172 202.31953857 -69.91796875 200.36328125 C-71.10996887 200.17516876 -72.30196899 199.98705627 -73.53009033 199.79324341 C-87.0716412 197.65710537 -100.61579544 195.53844223 -114.1640625 193.4453125 C-115.98888405 193.16338547 -115.98888405 193.16338547 -117.85057068 192.87576294 C-120.2991121 192.49753272 -122.74765438 192.11930801 -125.19619751 191.74108887 C-146.37511247 188.46923467 -167.53724533 185.11213072 -188.68334961 181.63452148 C-202.92158291 179.2933184 -217.16683308 176.99962862 -231.41796875 174.73828125 C-232.87417633 174.50718658 -232.87417633 174.50718658 -234.35980225 174.27142334 C-239.69146689 173.42562272 -245.02335802 172.58126485 -250.35546875 171.73828125 C-248.96999778 167.58186835 -246.05459172 166.23471927 -242.54296875 163.92578125 C-241.07222857 162.93722087 -239.60220915 161.94758755 -238.1328125 160.95703125 C-237.35276855 160.43367187 -236.57272461 159.9103125 -235.76904297 159.37109375 C-231.68025478 156.6049785 -227.64451923 153.76380819 -223.60546875 150.92578125 C-221.89848727 149.72909567 -220.19145557 148.53248173 -218.484375 147.3359375 C-217.63375488 146.7392627 -216.78313477 146.14258789 -215.90673828 145.52783203 C-203.59854988 136.89443289 -191.27378887 128.28537312 -178.92919922 119.70410156 C-170.20860196 113.64027507 -161.50550431 107.55169814 -152.80712891 101.45605469 C-147.82212619 97.96327644 -142.83491494 94.47365215 -137.84814453 90.98339844 C-133.71837216 88.09279933 -129.58908405 85.20151436 -125.4609375 82.30859375 C-116.5418219 76.0596223 -107.61151272 69.82724941 -98.66796875 63.61328125 C-91.37272732 58.54414578 -84.09666669 53.4498674 -76.84692383 48.31591797 C-70.87249908 44.09057299 -64.86568065 39.91251639 -58.85546875 35.73828125 C-51.4388344 30.58684678 -44.03887843 25.41368817 -36.66748047 20.19775391 C-30.94988701 16.15326519 -25.21758017 12.13003071 -19.48046875 8.11328125 C-18.61719971 7.5085498 -17.75393066 6.90381836 -16.86450195 6.28076172 C-16.05972412 5.71760254 -15.25494629 5.15444336 -14.42578125 4.57421875 C-13.71180176 4.0745459 -12.99782227 3.57487305 -12.26220703 3.06005859 C-7.61879659 -0.15881773 -5.54234196 -0.67352033 0 0 Z " fill="#99C1A6" transform="translate(482.35546875,301.26171875)"/>
<path d="M0 0 C10.66745239 3.955752 21.26872611 8.05002557 31.828125 12.28515625 C33.34656579 12.89270517 34.86506125 13.50011748 36.38360596 14.10740662 C40.48319321 15.74747178 44.58186243 17.38981937 48.68032837 19.03268433 C52.15602053 20.4255947 55.63224615 21.81717121 59.10844421 23.20881844 C90.43231737 35.7496581 121.7378542 48.33622986 153.03776932 60.93673038 C155.80825756 62.05201942 158.57884029 63.16707352 161.34942627 64.28211975 C164.93153474 65.72384208 168.5131431 67.16679727 172.09442139 68.61058044 C181.24153224 72.29600369 190.39853992 75.95448431 199.5703125 79.578125 C202.36619278 80.68562223 205.16187772 81.79361111 207.95750427 82.90174866 C210.60451819 83.94829683 213.25439936 84.98733647 215.90441895 86.02624512 C217.49697572 86.6570933 219.08939126 87.2882982 220.68164062 87.91992188 C221.41317352 88.20395874 222.14470642 88.48799561 222.89840698 88.78063965 C227.88623081 90.77246161 227.88623081 90.77246161 229 93 C208.3175209 101.82181018 187.62397334 110.61384814 166.85717773 119.2355957 C165.38132723 119.84842086 163.9054974 120.4612958 162.4296875 121.07421875 C161.68938797 121.38166519 160.94908844 121.68911163 160.18635559 122.00587463 C153.95297374 124.59753235 147.72975672 127.21305314 141.5078125 129.83203125 C139.54405136 130.65769213 137.58026564 131.48329455 135.61645508 132.30883789 C132.74174241 133.51731411 129.86747433 134.72678507 126.99472046 135.93991089 C124.33756619 137.06187559 121.67871824 138.17973831 119.01953125 139.296875 C117.84990341 139.79275871 117.84990341 139.79275871 116.65664673 140.29866028 C111.51226679 142.4540652 106.31431465 144.3073611 101 146 C92.09109295 138.15257974 83.48249004 130.07362471 75.76171875 121.0390625 C73.80394261 118.7730777 71.77771052 116.57856506 69.75 114.375 C47.12147137 89.25349788 0 34.52969677 0 0 Z " fill="#E0B890" transform="translate(262,632)"/>
<path d="M0 0 C0.05945801 1.27955566 0.05945801 1.27955566 0.12011719 2.58496094 C2.57627126 53.29572211 11.28733175 102.58705199 43.8359375 143.1953125 C45.77993651 145.71479136 47.4307791 148.23614642 49 151 C43.50487836 150.44674862 38.50382889 149.42195646 33.2578125 147.6640625 C32.54071106 147.42924667 31.82360962 147.19443085 31.08477783 146.95249939 C28.7613723 146.18670015 26.44280199 145.40758528 24.125 144.625 C23.32588196 144.35678436 22.52676392 144.08856873 21.70343018 143.81222534 C-27.31389397 127.30297344 -72.38988798 102.28153492 -112 69 C-112.83072021 68.30463135 -112.83072021 68.30463135 -113.67822266 67.59521484 C-115.45433689 66.10772527 -117.22782972 64.61718558 -119 63.125 C-119.55260498 62.6602124 -120.10520996 62.1954248 -120.67456055 61.71655273 C-126.35549086 56.90717379 -126.35549086 56.90717379 -128 55 C-128 54.34 -128 53.68 -128 53 C-126.79698242 52.52401367 -125.59396484 52.04802734 -124.35449219 51.55761719 C-112.84047971 46.98625873 -101.40023853 42.26251686 -89.99880981 37.41781616 C-85.1510272 35.35826338 -80.30025492 33.30578177 -75.44921875 31.25390625 C-74.44165024 30.82769485 -73.43408173 30.40148346 -72.39598083 29.96235657 C-58.6256954 24.14367229 -44.81983012 18.41008088 -31.01464844 12.67480469 C-29.10477811 11.88095464 -27.19494617 11.08701223 -25.28515625 10.29296875 C-23.93398209 9.73145615 -23.93398209 9.73145615 -22.55551147 9.15859985 C-16.14186869 6.48840134 -9.75429376 3.76263674 -3.38452148 0.98950195 C-1 0 -1 0 0 0 Z " fill="#5B957E" transform="translate(492,724)"/>
<path d="M0 0 C70.75870647 0 70.75870647 0 85.9375 14.66796875 C88.76396243 17.86379843 90.63212191 20.97070694 92 25 C92.35320312 26.03640625 92.70640625 27.0728125 93.0703125 28.140625 C96.15871863 40.96140337 95.11604499 56.13307229 88.4921875 67.61328125 C84.67029719 73.04392073 80.15834972 76.50404971 74 79 C73.34 79 72.68 79 72 79 C77.63607384 95.47521173 83.79287547 111.73047442 90.04052734 127.98193359 C91.29564912 131.24983339 92.54642349 134.51937337 93.796875 137.7890625 C94.17503357 138.76839752 94.55319214 139.74773254 94.94281006 140.75674438 C95.47917084 142.16033707 95.47917084 142.16033707 96.02636719 143.59228516 C96.49100372 144.80085678 96.49100372 144.80085678 96.96502686 146.03384399 C98.45627114 150.30763913 99.69932195 154.6644065 101 159 C91.76 159 82.52 159 73 159 C71.54207031 154.96394531 70.08414063 150.92789062 68.58203125 146.76953125 C67.40562554 143.51519056 66.2289525 140.26094681 65.05210114 137.00676727 C63.81716746 133.59175518 62.58268563 130.17658142 61.34936523 126.76098633 C60.15748656 123.46021928 58.96427593 120.15993636 57.77020836 116.85996056 C57.10200185 115.01225343 56.43511295 113.16406998 55.76826477 111.31587219 C53.25731509 104.38050281 50.65386976 97.49499924 47.91508484 90.64604187 C47 88 47 88 47 85 C40.73 85 34.46 85 28 85 C28 109.42 28 133.84 28 159 C18.76 159 9.52 159 0 159 C0 106.53 0 54.06 0 0 Z M28 18 C28 34.17 28 50.34 28 67 C45.5265656 67.60047191 45.5265656 67.60047191 60.53125 60.49609375 C65.41865233 55.51770254 66.65555185 49.52902523 67.03125 42.73828125 C66.95805777 36.32481201 65.68639569 30.69820939 61.69140625 25.5703125 C52.10783275 16.67286089 40.51073045 18 28 18 Z " fill="#5C967E" transform="translate(675,969)"/>
<path d="M0 0 C9.89606477 8.99981739 14.42582266 22.29181597 15.10389709 35.43873596 C15.25066247 40.08521288 15.23832128 44.73066982 15.21875 49.37890625 C15.22077742 51.09798811 15.22369438 52.81706912 15.22744751 54.53614807 C15.23184067 58.1189909 15.22553865 61.70160755 15.21142578 65.28442383 C15.19434874 69.837489 15.20418495 74.39002282 15.22214317 78.9430685 C15.23307418 82.48736955 15.22949217 86.03154826 15.2217598 89.57585335 C15.21978274 91.2528903 15.22212747 92.92993899 15.22919846 94.6069622 C15.2835549 111.11725778 13.88665227 127.8615757 2.1953125 140.6953125 C-9.91105861 151.82760777 -25.51012736 153.39369875 -41.1796875 153.3203125 C-56.18022153 152.67253904 -68.33642781 148.51504014 -78.8671875 137.7578125 C-89.64086115 124.81956514 -89.49471593 106.72469898 -89.4453125 90.7578125 C-89.44666459 89.19327739 -89.44860961 87.62874268 -89.45111084 86.06420898 C-89.45403658 82.80676215 -89.44984758 79.54942601 -89.44042969 76.29199219 C-89.4290367 72.15369347 -89.43561 68.01565435 -89.44757462 63.87736511 C-89.45486274 60.6530976 -89.4524737 57.42888985 -89.44731903 54.20462036 C-89.44600167 52.68026701 -89.44756163 51.15590791 -89.45227814 49.63156128 C-89.49460601 32.1150097 -88.42260836 14.72195695 -75.51953125 1.63671875 C-57.30203584 -15.00386362 -19.23177014 -14.82018129 0 0 Z M-56.4921875 16.5078125 C-60.38165138 22.9902523 -61.62863146 29.51452362 -61.56787109 36.98608398 C-61.57312805 37.80038879 -61.57838501 38.6146936 -61.58380127 39.45367432 C-61.59688772 42.11645311 -61.58830307 44.77862252 -61.578125 47.44140625 C-61.5801492 49.31030897 -61.58306351 51.17921092 -61.58682251 53.04811096 C-61.59123067 56.95410728 -61.58486431 60.85989696 -61.57080078 64.76586914 C-61.55372176 69.7498927 -61.5635516 74.73343105 -61.58151817 79.71743679 C-61.59240705 83.57383314 -61.58888614 87.43011625 -61.5811348 91.28651619 C-61.57914626 93.12316001 -61.58154427 94.9598144 -61.58857346 96.79644585 C-62.01012229 114.13907919 -62.01012229 114.13907919 -53.95703125 128.9140625 C-47.21255046 134.25035499 -38.38085697 134.07718402 -30.1796875 133.3203125 C-24.61082378 132.1672091 -20.7820926 129.74612448 -17.1796875 125.3203125 C-13.60675231 119.06767592 -13.02855549 114.03742237 -13.01855469 106.9309082 C-13.01358978 106.08646652 -13.00862488 105.24202484 -13.00350952 104.37199402 C-12.98891307 101.58001893 -12.98208917 98.78810072 -12.9765625 95.99609375 C-12.97080785 94.0503896 -12.96505015 92.10468546 -12.95928955 90.15898132 C-12.94878594 86.07774594 -12.94293946 81.9965302 -12.93945312 77.9152832 C-12.9339776 72.70126465 -12.90996696 67.48750843 -12.88148117 62.27357197 C-12.86279791 58.25253049 -12.85764611 54.2315514 -12.85611725 50.2104702 C-12.85310173 48.28925331 -12.84511062 46.36803723 -12.83193207 44.44686317 C-12.81475657 41.74993964 -12.81677997 39.05364643 -12.82324219 36.35668945 C-12.8140274 35.57246613 -12.80481262 34.7882428 -12.7953186 33.98025513 C-12.84790401 26.92653651 -14.16952654 20.24322642 -18.9921875 14.8828125 C-23.95619578 10.00223293 -30.51146129 9.95623608 -37.0546875 9.9453125 C-37.81910156 9.92082031 -38.58351563 9.89632812 -39.37109375 9.87109375 C-46.20043638 9.83630932 -51.50141163 11.7868083 -56.4921875 16.5078125 Z " fill="#5C967E" transform="translate(897.1796875,976.6796875)"/>
<path d="M0 0 C8.91 0 17.82 0 27 0 C27 22.11 27 44.22 27 67 C42.18 67 57.36 67 73 67 C73 44.89 73 22.78 73 0 C82.24 0 91.48 0 101 0 C101 52.47 101 104.94 101 159 C91.76 159 82.52 159 73 159 C73 134.58 73 110.16 73 85 C57.82 85 42.64 85 27 85 C27 109.42 27 133.84 27 159 C18.09 159 9.18 159 0 159 C0 106.53 0 54.06 0 0 Z " fill="#5C967E" transform="translate(317,969)"/>
<path d="M0 0 C11.51294532 10.09020736 15.06097644 23.3680779 16.40234375 38.10546875 C16.40234375 40.08546875 16.40234375 42.06546875 16.40234375 44.10546875 C7.16234375 44.10546875 -2.07765625 44.10546875 -11.59765625 44.10546875 C-11.84515625 41.32109375 -12.09265625 38.53671875 -12.34765625 35.66796875 C-13.55614994 23.76441359 -13.55614994 23.76441359 -20.66015625 14.60546875 C-28.16611535 10.77263857 -38.40554697 10.85337425 -46.578125 12.82421875 C-53.12820152 15.54518856 -56.0148999 19.50315529 -58.78515625 25.91796875 C-62.30496283 34.51414975 -61.75763554 43.83220453 -61.765625 52.95703125 C-61.76884734 54.30211419 -61.7722121 55.6471968 -61.77571106 56.99227905 C-61.78167322 59.80459401 -61.78355411 62.61687839 -61.78295898 65.42919922 C-61.78285785 68.99246184 -61.79647289 72.55552303 -61.81373119 76.11873817 C-61.82498006 78.89697121 -61.82687425 81.67515765 -61.82634926 84.4534111 C-61.8280681 86.39283485 -61.83882897 88.33224405 -61.84989929 90.27163696 C-61.81554719 103.83110325 -61.73030578 118.97281922 -51.59765625 129.10546875 C-44.16119864 133.50663754 -36.30360689 134.38706281 -27.8671875 132.4921875 C-21.44968386 130.28829442 -17.69666349 127.14904766 -14.59765625 121.10546875 C-10.54299948 111.52323907 -10.48808676 100.31117225 -9.59765625 90.10546875 C-18.50765625 90.10546875 -27.41765625 90.10546875 -36.59765625 90.10546875 C-36.59765625 84.16546875 -36.59765625 78.22546875 -36.59765625 72.10546875 C-18.77765625 72.10546875 -0.95765625 72.10546875 17.40234375 72.10546875 C17.40234375 98.50546875 17.40234375 124.90546875 17.40234375 152.10546875 C10.47234375 152.10546875 3.54234375 152.10546875 -3.59765625 152.10546875 C-8.59765625 140.48046875 -8.59765625 140.48046875 -8.59765625 137.10546875 C-9.25765625 137.10546875 -9.91765625 137.10546875 -10.59765625 137.10546875 C-10.90703125 138.12640625 -10.90703125 138.12640625 -11.22265625 139.16796875 C-14.21251263 145.55538919 -18.38564239 149.82489744 -25 152.38671875 C-40.81499433 156.76259688 -56.7651158 152.93837514 -70.84765625 145.35546875 C-83.14367859 135.29508684 -87.51239925 122.49509942 -89.59765625 107.10546875 C-89.99499985 101.6215188 -90.0459648 96.16788323 -90.03125 90.671875 C-90.03583114 89.13980381 -90.0411423 87.60773465 -90.0471344 86.07566833 C-90.0559853 82.88979662 -90.05373502 79.70417664 -90.04370117 76.51831055 C-90.03221601 72.48325673 -90.05245696 68.44907879 -90.08161831 64.41413975 C-90.10017024 61.25748902 -90.09965071 58.10104099 -90.09398079 54.94434929 C-90.09382991 53.45874744 -90.09967518 51.9731297 -90.11227226 50.48758125 C-90.23389771 33.80301249 -87.38220635 16.5862618 -75.61328125 3.921875 C-56.69319463 -13.12820306 -20.66331484 -14.57307468 0 0 Z " fill="#5C967E" transform="translate(615.59765625,975.89453125)"/>
<path d="M0 0 C9.24 0 18.48 0 28 0 C28.01458252 3.48667236 28.02916504 6.97334473 28.04418945 10.56567383 C28.09461362 22.10879589 28.16107442 33.65179499 28.23571491 45.19478321 C28.2805634 52.1906311 28.32000284 59.18642933 28.34643555 66.18237305 C28.37197853 72.93872404 28.41295633 79.69484359 28.46318626 86.45105553 C28.47982132 89.02369097 28.49135645 91.59636479 28.49761391 94.1690464 C28.50729128 97.78326109 28.5353954 101.39691179 28.56762695 105.01098633 C28.56547432 106.59271889 28.56547432 106.59271889 28.5632782 108.20640564 C28.67669781 117.2485452 29.81711122 126.98158571 36 134 C43.67717796 139.80932848 50.4496905 140.83403687 60 140 C66.78715486 138.36172124 71.25080532 135.90782191 75 130 C78.89994921 121.77225906 79.15676855 113.63895718 79.20532227 104.67041016 C79.21522186 103.53811981 79.22512146 102.40582947 79.23532104 101.23922729 C79.26684592 97.50586012 79.29165789 93.77248023 79.31640625 90.0390625 C79.33698355 87.44688592 79.35798023 84.85471265 79.37937927 82.26254272 C79.42888728 76.14288505 79.47417329 70.02320955 79.51740164 63.90350473 C79.56687145 56.9336978 79.62175328 49.96393674 79.67708123 42.99417424 C79.79072672 28.66282452 79.89688904 14.33142929 80 0 C89.24 0 98.48 0 108 0 C108.04533392 14.08315565 108.08196385 28.16626217 108.10362434 42.24947453 C108.11402461 48.79012341 108.12811466 55.33071942 108.15087891 61.87133789 C108.17274191 68.19317069 108.18459683 74.51495289 108.18975449 80.8368206 C108.19342621 83.23872104 108.20059559 85.64061897 108.21146011 88.04249763 C108.40849311 133.44141842 108.40849311 133.44141842 92.5 149.515625 C80.61988559 160.2335543 63.25663944 161.70018394 48 161 C33.35949928 159.83009697 20.96186636 156.26359844 11 145 C0.92673515 132.31595376 -0.16922773 115.36838703 -0.11352539 99.78881836 C-0.11367142 98.70485779 -0.11381744 97.62089722 -0.1139679 96.50408936 C-0.11327561 92.9493199 -0.10551543 89.39460396 -0.09765625 85.83984375 C-0.09578964 83.36405974 -0.09436688 80.88827536 -0.09336853 78.41249084 C-0.08956251 71.91719532 -0.07974866 65.42192238 -0.06866455 58.92663574 C-0.05840917 52.29028589 -0.05386208 45.65393381 -0.04882812 39.01757812 C-0.03812459 26.01170726 -0.02054339 13.00585905 0 0 Z " fill="#5C967E" transform="translate(954,969)"/>
<path d="M0 0 C71.53588235 0 71.53588235 0 83.75 11.1875 C94.12934978 22.26522831 94.57419418 36.1494626 94.30078125 50.46875 C93.88604036 60.69561173 90.74734271 67.40118658 83.625 74.76953125 C67.73960537 88.26738889 48.10469143 85 28 85 C28 109.42 28 133.84 28 159 C18.76 159 9.52 159 0 159 C0 106.53 0 54.06 0 0 Z M28 18 C28 34.17 28 50.34 28 67 C45.93052363 68.1993479 45.93052363 68.1993479 61.69140625 61.64453125 C66.96915242 56.03598618 67.34760889 49.07230496 67.1875 41.77734375 C66.72784175 34.96865594 65.56688811 29.2879757 61 24 C50.55682846 15.92132013 42.245196 18 28 18 Z " fill="#5C967E" transform="translate(1107,969)"/>
<path d="M0 0 C24.42 0 48.84 0 74 0 C74 5.94 74 11.88 74 18 C58.49 18 42.98 18 27 18 C27 34.17 27 50.34 27 67 C38.22 67 49.44 67 61 67 C61 72.94 61 78.88 61 85 C49.78 85 38.56 85 27 85 C27 103.48 27 121.96 27 141 C42.51 141 58.02 141 74 141 C74 146.94 74 152.88 74 159 C49.58 159 25.16 159 0 159 C0 106.53 0 54.06 0 0 Z " fill="#5C967E" transform="translate(206,969)"/>
<path d="M0 0 C31.02 0 62.04 0 94 0 C94 6.93 94 13.86 94 21 C83.11 21 72.22 21 61 21 C61 66.54 61 112.08 61 159 C51.76 159 42.52 159 33 159 C33 113.46 33 67.92 33 21 C22.11 21 11.22 21 0 21 C0 14.07 0 7.14 0 0 Z " fill="#5C967E" transform="translate(78,969)"/>
</svg>
