<svg width="1057" height="427" viewBox="0 0 1057 427" fill="none" xmlns="http://www.w3.org/2000/svg">
<g clip-path="url(#clip0_47_79)">
<g clip-path="url(#clip1_47_79)">
<path fill-rule="evenodd" clip-rule="evenodd" d="M529.431 72.4293C528.902 72.842 527.338 73.6113 525.998 74.4631C526.655 75.3276 526.526 76.8045 527.811 76.8988C529.623 77.0358 529.451 79.2111 527.462 78.8701C525.482 78.5299 525.477 80.9765 527.203 83.0838C528.93 85.1884 523.93 87.5688 525.31 88.6564C526.688 89.7405 525.569 91.0341 526.169 91.7154C526.773 92.393 534.104 91.4423 537.293 88.8624C540.483 86.277 541.343 86.6181 542.982 86.9601C544.621 87.2975 546.257 86.0057 545.393 84.9861C544.531 83.9637 543.582 81.4518 543.842 78.3239C543.996 76.5096 540.855 73.2248 537.806 70.6013C536.861 71.2001 536.004 71.5185 534.726 71.5185C532.651 71.5203 530.352 71.7008 529.431 72.4293Z" fill="url(#paint0_radial_47_79)"/>
<path fill-rule="evenodd" clip-rule="evenodd" d="M330.573 154.71C329.545 150.205 328.966 145.834 328.214 145.834C327.168 145.834 325.776 149.689 324.03 149.41C322.278 149.137 322.278 144.46 324.376 144.46C326.473 144.46 328.915 140.879 328.915 139.775C328.915 138.677 326.824 138.677 324.726 138.677C322.624 138.677 318.088 138.95 318.088 138.95C318.088 138.95 315.286 138.127 315.286 136.746C315.286 135.37 314.245 134.266 311.445 134.266C308.655 134.266 308.655 132.067 306.555 134.266C304.46 136.47 311.098 136.47 310.398 138.127C309.701 139.775 307.606 138.677 307.254 140.049C306.903 141.424 307.611 145.005 308.655 146.934C309.457 148.421 310.667 152.179 310.71 155.344C312.334 155.098 313.098 154.503 314.605 154.503C316.501 154.503 319.087 154.301 319.261 152.734C319.431 151.173 321.59 150.019 322.791 150.492C324.002 150.969 325.81 154.776 325.895 156.744C325.925 157.374 326.266 158.207 326.804 159.067C327.769 158.317 328.892 157.72 328.892 157.72C328.892 157.72 329.604 155.627 330.573 154.71Z" fill="url(#paint1_radial_47_79)"/>
<path fill-rule="evenodd" clip-rule="evenodd" d="M308.655 146.937C307.611 145.01 306.906 141.426 307.255 140.052C307.605 138.68 309.698 139.775 310.398 138.13C311.098 136.472 304.459 136.472 306.554 134.269C308.655 132.07 308.655 134.269 311.445 134.269C314.244 134.269 315.286 135.372 315.286 136.749C315.286 138.13 318.088 138.952 318.088 138.952C318.088 138.952 322.624 138.68 324.727 138.68C326.824 138.68 328.914 138.68 328.914 139.777C328.914 140.88 326.473 144.462 324.376 144.462C322.278 144.462 322.278 149.141 324.029 149.412C325.773 149.691 327.168 145.836 328.214 145.836C328.969 145.836 329.545 150.208 330.573 154.712C330.845 154.459 331.129 154.276 331.425 154.276C332.808 154.276 332.115 150.464 333.04 149.373C333.959 148.283 333.5 144.839 334.192 144.839C334.88 144.839 339.025 145.927 338.796 145.022C338.565 144.113 341.329 141.025 340.869 139.394C340.403 137.764 342.48 135.763 342.48 133.77C342.48 131.773 344.782 131.227 346.394 130.138C348.001 129.047 350.765 127.599 351.227 128.506C351.69 129.411 355.138 130.138 353.76 128.506C352.375 126.87 352.375 125.786 353.296 125.423C354.221 125.056 354.682 123.243 354.682 123.243C354.682 123.243 351.69 122.878 351.227 121.792C350.764 120.706 348.92 119.618 348.92 118.71C348.92 117.801 347.311 118.163 345.931 119.072C344.545 119.982 342.017 117.985 339.023 119.257C336.031 120.526 335.339 121.973 333.959 121.795C332.576 121.61 332.805 122.704 331.654 123.609C330.506 124.518 329.582 125.608 328.894 125.608C328.207 125.608 325.9 126.516 325.9 126.516C325.9 126.516 327.514 129.236 326.592 130.505C325.671 131.777 323.364 130.505 320.838 131.052C318.303 131.597 317.152 130.324 315.306 130.686C313.467 131.052 312.316 129.776 311.397 129.961C310.475 130.141 309.093 128.325 309.554 126.874C310.017 125.427 308.632 123.428 307.713 124.518C306.789 125.608 305.413 125.06 305.413 126.695C305.413 128.325 306.564 130.324 305.182 131.412C303.799 132.5 296.43 133.048 295.053 132.138C293.666 131.229 287.685 130.686 287.453 129.776C287.224 128.869 285.38 127.239 284.23 127.239C283.076 127.239 279.621 128.508 278.705 127.964C277.782 127.42 275.476 125.967 273.869 125.79C272.254 125.606 269.722 124.697 269.492 123.972C269.26 123.245 265.579 122.881 264.886 122.156C264.196 121.429 261.894 121.252 261.894 120.343C261.894 119.436 262.816 117.985 262.816 116.893C262.816 115.798 265.576 114.72 265.576 113.989C265.576 113.265 263.048 111.988 263.048 111.988C263.048 111.988 261.434 109.63 259.591 109.63C257.747 109.63 256.365 107.093 254.757 106.912C253.146 106.73 253.604 104.189 252.685 103.28C251.768 102.371 252.455 100.196 254.067 101.282C255.677 102.371 258.674 101.282 257.52 99.6493C256.366 98.0155 254.297 96.5704 254.297 95.6606C254.297 94.7498 255.681 92.0265 254.067 91.2981C252.458 90.5769 251.073 89.4856 250.612 88.2192C250.152 86.9464 248.306 86.0393 248.306 86.0393L246.006 86.2216C246.006 86.2216 244.624 89.1263 243.702 89.4874C242.783 89.8502 239.557 90.3945 237.946 91.2999C236.336 92.207 231.735 90.0317 229.202 90.0317C226.663 90.0317 225.049 92.0283 226.202 92.5744C227.358 93.116 227.126 96.9251 227.126 96.9251C227.126 96.9251 228.509 101.646 230.579 101.285C232.652 100.923 235.188 102.916 233.342 103.282C231.501 103.644 230.579 105.278 230.35 106.731C230.118 108.181 230.579 109.994 229.202 110.178C227.819 110.358 226.437 110.722 226.437 112.719C226.437 114.72 223.445 114.174 222.984 114.894C222.52 115.622 221.372 119.256 220.677 119.797C219.99 120.341 216.071 120.524 215.842 122.158C215.61 123.788 213.777 125.788 212.624 125.604C211.47 125.423 209.395 124.695 208.708 125.788C208.015 126.876 205.026 124.879 204.336 125.423C203.643 125.965 199.956 128.327 199.956 129.774C199.956 131.227 203.875 131.227 203.641 133.045C203.412 134.86 205.026 136.855 206.179 137.764C207.325 138.671 209.166 140.847 208.244 141.939C207.325 143.025 205.947 143.204 203.875 142.842C201.797 142.477 202.027 143.566 198.345 143.025C194.66 142.479 194.431 144.659 193.049 145.929C192.966 146.009 192.834 146.121 192.677 146.264C194.416 147.348 195.149 149.281 198.041 150.161C201.404 151.179 204.423 148.458 204.423 150.429C204.423 152.403 196.486 151.997 196.319 152.605C196.15 153.219 204.503 161.17 208.732 160.559C212.952 159.945 216.059 156.346 214.851 155.798C213.645 155.26 215.541 153.014 216.667 153.424C217.783 153.83 216.836 157.362 218.129 158.178C219.427 158.991 218.993 160.488 218.129 162.394C217.269 164.296 218.993 168.027 219.245 170.14C219.506 172.242 221.317 175.302 221.923 178.428C222.525 181.558 225.024 187.264 227.358 190.73C229.685 194.197 231.488 200.996 233.038 202.624C234.592 204.253 238.563 209.212 238.563 212.272C238.563 215.33 242.788 219.607 244.253 220.426C245.717 221.241 248.906 219.473 249.683 217.572C250.463 215.668 254.857 214.918 255.114 213.288C255.375 211.66 255.796 210.37 257.353 210.162C258.907 209.957 258.907 208.669 258.907 206.902C258.907 205.137 259.08 202.621 260.634 201.058C262.179 199.493 262.44 195.28 261.495 193.581C260.544 191.887 261.062 189.507 261.924 187.805C262.784 186.11 262.44 184.134 264.082 183.999C265.718 183.866 268.129 182.705 269.853 180.875C271.582 179.037 276.841 176.522 278.734 175.3C280.63 174.077 286.409 170.067 288.132 167.825C289.851 165.579 294.764 164.836 297.008 162.999C299.253 161.166 298.386 160.216 298.817 158.242C299.256 156.273 306.492 155.454 309.25 155.454C309.815 155.454 310.276 155.411 310.7 155.344C310.667 152.181 309.457 148.422 308.655 146.937Z" fill="url(#paint2_radial_47_79)"/>
<path fill-rule="evenodd" clip-rule="evenodd" d="M480.406 17.7769C478.525 16.0034 475.523 16.8933 474.774 18.3702C474.019 19.8506 472.515 17.7769 469.136 17.7769C465.754 17.7769 465.379 19.2592 463.128 17.4821C460.876 15.7077 463.875 15.1126 463.875 15.1126L464.251 12.7458L468.917 5.39251C467.587 4.96243 465.634 4.79552 464.7 5.07238C463.32 5.47688 460.039 5.20991 459.7 4.25948C459.351 3.30325 453.837 3.17162 452.456 3.98461C451.076 4.80142 447.972 5.47688 447.805 6.43112C447.628 7.38363 444.355 7.11058 443.145 7.78822C441.938 8.46949 435.731 8.74073 435.562 9.28593C435.389 9.83203 428.836 9.96357 427.805 9.28593C426.765 8.60647 421.078 9.28593 420.383 8.19462C419.694 7.10876 417.282 6.56265 417.282 5.61631C417.282 4.66398 412.97 4.66398 412.454 3.85108C411.931 3.03419 408.486 2.62379 407.97 2.89875C407.452 3.17362 403.656 2.07795 402.625 1.94832C401.594 1.81288 398.318 2.49026 397.279 2.49026C396.245 2.49026 394.35 3.98652 393.146 4.11815C391.938 4.25948 388.657 2.49026 387.969 2.89875C387.282 3.30325 385.21 1.53992 384.35 0.727023C383.484 -0.0918649 384.35 -2.40302 383.66 -3.21783C382.975 -4.03472 379.178 -4.03471 377.971 -4.57665C376.765 -5.12058 374.87 -5.93348 373.659 -5.93348C372.456 -5.93348 370.557 -6.20645 370.039 -6.61294C369.523 -7.02134 366.938 -7.7008 365.732 -7.97367C364.521 -8.24464 364.35 -7.02134 363.662 -6.47741C362.974 -5.93348 360.899 -5.79414 360.558 -4.84571C360.21 -3.89728 357.798 -3.62432 358.139 -2.53646C358.491 -1.44869 359.352 0.728932 360.21 1.26896C361.076 1.81479 360.558 3.44268 360.043 3.99051C359.519 4.53245 355.9 4.93495 355.21 5.89317C354.527 6.84387 352.801 5.75801 351.074 4.93694C349.354 4.12404 347.278 4.66988 346.421 5.21771C345.559 5.75801 342.458 3.85888 341.591 3.71954C340.731 3.58601 340.557 1.00189 339.693 1.13932C338.838 1.27086 332.795 0.326425 331.592 0.0456608C330.384 -0.221405 327.8 -0.0859673 327.457 0.591495C327.105 1.27485 324.007 1.13733 323.486 1.95223C322.968 2.76912 320.552 3.17752 319.697 3.99051C318.827 4.80731 315.9 4.80731 315.208 6.02834C314.526 7.25209 310.901 7.79366 309.862 7.93155C308.828 8.06853 306.074 8.47493 305.896 9.15439C305.824 9.44377 305.39 9.48459 304.85 9.43379C304.913 9.61613 304.993 9.77942 305.037 9.98353C305.755 13.0842 307.426 12.9935 309.217 14.219C311.011 15.4382 312.555 16.379 314.466 16.4751C316.376 16.5695 319.241 18.3502 319.481 19.6719C319.717 20.9873 321.506 22.4932 322.581 23.1536C323.655 23.8086 322.223 26.0692 322.223 27.7619C322.223 29.4547 319.597 29.833 320.912 31.5239C322.223 33.2185 331.415 34.0612 334.041 34.0612C336.666 34.0612 337.62 36.0406 338.418 36.144C340.069 36.3563 340.294 37.9193 342.171 38.2196C344.052 38.5108 345.928 39.3998 346.68 42.0705C347.43 44.7293 349.684 45.6183 350.056 46.8049C350.435 47.9905 354.572 47.0988 357.573 47.3973C360.578 47.6939 369.22 47.3973 371.474 47.6939C373.726 47.9887 378.987 47.6939 381.991 49.4692C384.998 51.2427 386.502 49.7622 388.378 50.6531C390.259 51.5384 391.753 52.1335 394.384 51.8369C397.017 51.5411 397.015 53.3201 398.893 53.614C400.769 53.9124 404.155 51.2445 409.04 49.471C413.917 47.6957 419.554 48.8777 422.182 49.1789C424.813 49.471 429.692 48.289 432.697 45.6183C435.708 42.9577 439.46 43.5455 439.839 41.1787C440.212 38.8111 436.835 37.9211 438.335 35.8456C439.839 33.7764 442.467 34.0712 443.974 34.6654C445.472 35.255 449.609 36.144 453.365 34.0685C457.122 31.9974 458.624 32.2959 462.005 31.9974C465.385 31.699 465.009 29.9237 467.263 28.1466C469.518 26.3713 472.146 25.7762 474.4 25.7762C476.654 25.7762 479.656 23.9991 481.913 24.5923C484.167 25.1856 487.545 25.4804 487.927 23.9972C488.295 22.5186 482.284 19.554 480.406 17.7769Z" fill="url(#paint3_radial_47_79)"/>
<path fill-rule="evenodd" clip-rule="evenodd" d="M257.969 48.0196C255.729 45.9812 255.039 47.3347 252.454 46.7967C249.863 46.2543 239.52 45.436 237.45 46.1137C235.382 46.7967 231.068 44.8917 229.693 44.3483C228.31 43.8059 223.829 44.3483 223.657 46.2543C223.487 48.1575 221.587 48.1529 218.485 46.9283C215.381 45.7091 210.726 45.7091 210.554 47.0698C210.377 48.426 208.132 49.7867 206.932 50.1913C206.473 50.3482 205.813 51.4504 205.171 52.7522C206.122 53.0389 206.7 53.6829 207.335 54.2799C208.484 55.3657 211.478 55.1852 211.939 54.0975C212.402 53.0089 217.232 55.1852 219.997 56.9995C222.757 58.8156 218.615 57.5429 217.461 59.3617C216.308 61.1742 212.86 59.3617 211.936 60.0865C211.017 60.8105 205.034 61.1742 203.419 60.9955C201.805 60.8105 199.045 62.808 199.272 63.717C199.506 64.6259 205.494 63.1727 207.564 64.2604C209.635 65.3489 211.71 63.1709 212.86 64.4436C214.009 65.7118 216.545 64.8046 217.693 65.1702C218.839 65.5331 225.229 64.8128 225.283 64.8028C225.991 64.1524 226.237 63.2806 226.237 62.5268C226.237 61.304 227.53 61.6078 228.826 61.3039C230.121 60.9955 231.028 59.672 232.059 59.672C233.093 59.672 234.515 58.4482 235.549 58.7548C236.58 59.0633 237.876 60.4902 239.166 59.672C240.461 58.8574 240.853 59.5695 242.656 57.8359C244.472 56.1023 245.633 56.408 247.963 56.6149C250.672 56.8516 251.844 55.7957 252.618 54.5765C253.392 53.3509 255.722 53.3509 257.139 52.5363C258.562 51.7235 261.409 50.8064 262.315 50.4979C262.751 50.3482 262.851 49.989 262.849 49.51C260.764 48.191 259.844 49.7305 257.969 48.0196Z" fill="url(#paint4_radial_47_79)"/>
<path fill-rule="evenodd" clip-rule="evenodd" d="M256.242 83.932C254.17 83.8377 250.197 85.4533 249.631 86.9202C250.042 87.2776 250.431 87.7121 250.618 88.2165C251.079 89.4847 252.461 90.5751 254.073 91.2954C255.062 91.7453 254.922 92.9509 254.658 94.0186C255.575 93.9896 256.511 93.9361 257.144 93.8145C258.829 93.5106 262.448 89.4357 262.966 88.3126C263.484 87.1896 258.44 84.0336 256.242 83.932Z" fill="url(#paint5_radial_47_79)"/>
<path fill-rule="evenodd" clip-rule="evenodd" d="M551.407 47.0916C549.153 47.6867 548.401 45.6093 546.52 45.6093C544.642 45.6093 545.015 49.169 543.145 49.169C541.264 49.169 541.638 51.2364 539.009 51.5312C536.381 51.8278 535.626 51.8278 536.754 53.3101C537.884 54.7906 535.256 54.2 533.001 54.2C530.744 54.2 530.744 53.0135 529.242 53.0135C527.74 53.0135 526.613 55.0872 525.488 56.2674C524.36 57.4558 516.848 60.1183 514.594 61.0055C513.951 61.2604 513.406 62.0424 512.946 63.0284C515.638 63.2026 518.413 64.4164 519.619 65.6157C521.258 67.2494 517.718 69.0837 516.172 70.576C514.617 72.0728 517.118 72.1408 517.203 73.3646C517.292 74.5838 519.365 75.6052 520.142 74.5212C520.912 73.4353 522.205 73.8381 524.623 73.8381C525.326 73.8381 525.722 74.103 526.001 74.4604C527.341 73.6059 528.905 72.8384 529.433 72.4256C530.355 71.6972 532.655 71.5167 534.727 71.5167C536.008 71.5167 536.862 71.1983 537.806 70.5995C535.612 68.7145 533.464 67.1714 532.639 66.7723C530.657 65.8225 531.863 63.1672 534.274 62.6964C536.696 62.2193 542.636 58.6161 544.45 57.8032C546.261 56.9859 545.052 54.337 546.52 52.2306C547.28 51.1284 550.144 49.0292 553.007 47.2739C552.396 47.0698 551.833 46.9754 551.407 47.0916Z" fill="url(#paint6_radial_47_79)"/>
<path fill-rule="evenodd" clip-rule="evenodd" d="M305.812 125.647C305.416 125.621 304.98 125.611 304.477 125.621C301.111 125.725 299.044 124.397 296.844 124.504C294.647 124.602 288.314 122.666 285.595 120.936C282.882 119.202 275.508 115.532 273.7 114.105C271.891 112.677 269.306 112.677 269.044 113.392C268.807 114.048 267.48 114.103 265.467 114.264C264.953 114.972 262.819 115.929 262.819 116.889C262.819 117.981 261.897 119.432 261.897 120.339C261.897 121.248 264.198 121.425 264.889 122.151C265.579 122.876 269.263 123.241 269.495 123.967C269.724 124.692 272.255 125.601 273.872 125.786C275.481 125.965 277.785 127.416 278.707 127.96C279.623 128.503 283.079 127.235 284.232 127.235C285.383 127.235 287.226 128.865 287.455 129.772C287.687 130.681 293.668 131.226 295.056 132.135C296.436 133.043 303.805 132.497 305.185 131.408C306.565 130.318 305.416 128.321 305.416 126.692C305.414 126.147 305.573 125.852 305.812 125.647Z" fill="url(#paint7_radial_47_79)"/>
<path fill-rule="evenodd" clip-rule="evenodd" d="M367.116 200.913C367.116 199.105 365.277 198.92 365.277 197.471C365.277 196.016 365.277 193.475 362.975 191.845C360.664 190.211 359.515 187.847 360.897 186.94C362.28 186.035 361.129 183.494 361.82 183.671C362.512 183.856 363.434 182.039 362.048 181.499C360.664 180.956 362.048 178.774 360.897 178.415C359.745 178.051 356.526 175.147 356.526 174.244C356.526 173.335 357.448 168.251 357.677 166.983C357.906 165.712 360.205 165.53 360.897 165.53C361.591 165.53 364.355 165.712 365.277 164.437C366.198 163.169 370.107 162.987 370.571 162.081C371.031 161.174 373.565 161.174 373.565 160.084C373.565 158.994 376.554 156.271 376.554 156.271C376.599 156.268 376.629 156.287 376.674 156.287C376.328 155.801 375.57 156.238 374.046 156.715C371.46 157.534 370.167 156.41 370.426 155.187C370.685 153.966 368.615 153.966 367.193 153.966C365.773 153.966 366.677 152.13 367.193 150.904C367.714 149.683 366.677 148.97 364.993 148.862C363.311 148.764 362.539 145.909 363.182 145.092C363.832 144.279 359.692 143.566 357.881 144.279C356.067 144.993 357.365 143.054 356.849 142.033C356.327 141.016 359.177 137.552 361.632 135.618C364.086 133.678 363.055 131.129 363.055 128.885C363.055 126.643 361.891 126.643 360.729 126.643C359.563 126.643 359.43 125.317 359.43 124.093C359.43 122.872 356.975 121.955 355.552 122.768C355.352 122.884 355.004 123.043 354.568 123.222C354.623 123.234 354.677 123.24 354.677 123.24C354.677 123.24 354.217 125.054 353.293 125.419C352.371 125.784 352.371 126.866 353.756 128.502C355.136 130.133 351.686 129.407 351.222 128.502C350.759 127.595 347.994 129.044 346.389 130.133C344.778 131.224 342.477 131.769 342.477 133.766C342.477 135.761 340.399 137.76 340.865 139.39C341.326 141.022 338.56 144.109 338.792 145.018C339.024 145.923 334.878 144.835 334.189 144.835C333.496 144.835 333.954 148.279 333.035 149.369C332.111 150.461 332.801 154.272 331.421 154.272C330.043 154.272 328.89 157.72 328.89 157.72C328.89 157.72 327.767 158.317 326.802 159.067C327.931 160.883 329.989 162.873 332.276 163.615C335.639 164.699 337.875 170.065 338.914 172.917C339.946 175.77 339.261 178.697 338.052 180.325C336.844 181.959 338.48 182.025 340.463 182.838C342.451 183.655 344.689 183.93 346.153 182.295C347.62 180.665 350.635 179.512 351.068 177.676C351.501 175.842 352.879 178.555 354.087 179.512C355.295 180.462 356.16 182.295 356.416 184.608C356.675 186.917 356.929 192.693 359.43 194.531C361.931 196.362 362.363 200.377 361.672 201.801C360.99 203.23 362.971 205.677 362.45 207.238C362.345 207.553 362.233 207.996 362.108 208.489C364.363 208.829 367.116 200.913 367.116 200.913Z" fill="url(#paint8_radial_47_79)"/>
<path fill-rule="evenodd" clip-rule="evenodd" d="M326.854 126.155C323.382 123.64 322.443 125.668 320.121 124.706C317.667 123.685 316.504 123.382 315.34 124.093C314.172 124.808 312.366 124.706 311.198 126.945C310.822 127.683 310.344 128.37 309.888 128.889C310.286 129.572 310.906 130.053 311.399 129.955C312.319 129.77 313.47 131.047 315.308 130.679C317.152 130.316 318.305 131.59 320.841 131.047C323.367 130.499 325.671 131.771 326.595 130.499C327.516 129.23 325.903 126.51 325.903 126.51C325.903 126.51 326.326 126.343 326.854 126.155Z" fill="url(#paint9_radial_47_79)"/>
<path fill-rule="evenodd" clip-rule="evenodd" d="M414.771 156.268C413.163 156.09 409.015 153.734 409.015 152.82C409.015 151.913 411.092 150.463 407.403 150.099C403.724 149.734 403.26 148.647 402.573 148.102C401.883 147.558 398.886 149.19 397.967 150.461C397.048 151.729 396.126 150.097 394.054 151.004C391.981 151.911 389.913 149.734 388.994 151.004C388.073 152.273 385.766 150.278 384.612 151.366C384.176 151.784 383.601 152.12 383.025 152.343C384.032 153.231 385.13 154.101 385.13 154.767C385.13 155.933 388.085 156.809 388.085 158.261C388.085 159.719 391.779 160.881 392.89 160.298C393.999 159.719 396.587 159.134 396.956 161.172C397.319 163.212 398.802 163.212 398.802 164.663C398.802 166.12 395.105 165.25 394.367 166.705C393.63 168.16 400.648 169.907 400.648 171.072C400.648 172.234 402.864 173.696 403.602 175.144C404.341 176.6 407.67 178.353 408.402 180.095C409.142 181.843 412.099 182.716 413.21 183.588C414.314 184.462 414.684 186.502 414.314 188.25C413.947 189.994 413.942 193.196 416.16 195.818C418.376 198.439 413.573 199.605 412.099 201.058C410.622 202.513 411.359 204.55 406.925 203.68C402.494 202.806 407.67 206.59 406.925 207.752C406.187 208.921 400.279 206.59 400.279 207.752C400.279 208.453 398.281 209.362 396.687 209.977C397.322 210.631 398.221 210.998 399.268 211.517C400.652 212.194 397.551 213.352 397.636 215.522C397.718 217.7 399.791 218.246 400.56 217.358C401.34 216.473 404.531 214.505 405.824 214.166C407.117 213.826 405.824 212.333 407.201 212.398C408.581 212.463 408.151 210.833 408.756 209.951C409.362 209.074 410.305 209.406 412.375 209.478C414.448 209.545 417.372 207.982 420.309 206.486C423.239 204.995 423.757 204.656 424.873 200.375C426.002 196.091 423.58 190.999 423.498 189.701C423.415 188.411 419.445 182.43 417.98 182.501C416.51 182.57 409.792 177.132 408.581 176.247C407.381 175.363 407.722 173.871 405.996 172.71C404.274 171.558 404.1 168.567 404.531 166.462C404.969 164.355 408.756 163.876 408.674 162.446C408.589 161.021 409.013 159.799 410.908 159.733C412.806 159.662 414.617 158.438 415.479 157.352C415.604 157.192 415.778 157.094 415.972 157.017C415.486 156.585 415.068 156.304 414.771 156.268Z" fill="url(#paint10_radial_47_79)"/>
<path fill-rule="evenodd" clip-rule="evenodd" d="M400.276 207.76C400.276 206.597 406.185 208.929 406.923 207.76C407.668 206.597 402.491 202.812 406.923 203.687C411.357 204.557 410.619 202.521 412.096 201.066C413.572 199.613 418.377 198.448 416.157 195.825C414.587 193.966 414.137 191.825 414.137 190.109C412.712 190.997 410.974 191.063 409.999 190.756C408.752 190.363 406.016 190.166 406.016 191.739C406.016 193.306 404.028 193.698 404.275 192.916C404.524 192.132 402.284 192.322 401.036 191.152C399.793 189.972 395.314 191.543 393.075 190.953C390.836 190.363 387.35 191.931 385.119 194.091C382.871 196.249 385.362 196.249 385.362 198.211C385.362 200.175 386.857 200.175 386.113 201.743C386.09 201.783 386.073 201.836 386.057 201.879C388.249 202.645 387.388 204.801 387.632 206.02C387.89 207.309 390.048 206.56 391.251 206.491C392.459 206.427 390.474 207.99 391.511 208.94C392.546 209.89 395.563 208.127 396.168 209.283C396.313 209.556 396.49 209.782 396.687 209.985C398.279 209.37 400.276 208.461 400.276 207.76Z" fill="url(#paint11_radial_47_79)"/>
<path fill-rule="evenodd" clip-rule="evenodd" d="M400.644 171.077C400.644 169.912 393.627 168.167 394.364 166.71C395.102 165.252 398.798 166.125 398.798 164.667C398.798 163.216 397.317 163.216 396.952 161.176C396.586 159.138 393.996 159.723 392.887 160.303C391.779 160.886 388.082 159.723 388.082 158.266C388.082 156.813 385.128 155.936 385.128 154.771C385.128 154.103 384.031 153.235 383.023 152.348C382.081 152.717 381.121 152.799 380.696 152.459C380.006 151.918 379.086 154.278 379.774 154.822C380.466 155.366 381.386 158.814 379.545 158.453C377.704 158.091 377.704 156.094 376.551 156.273C376.551 156.273 373.561 158.998 373.561 160.087C373.561 160.819 372.416 161.064 371.524 161.416C372.054 161.79 372.51 162.126 372.662 162.315C373.165 162.902 372.418 164.473 373.158 165.842C373.91 167.218 376.397 165.064 377.143 167.024C377.895 168.981 376.65 169.965 376.65 171.925C376.65 173.893 374.658 173.694 375.156 175.457C375.652 177.221 378.389 175.068 380.379 173.893C382.375 172.706 383.867 172.907 384.609 173.694C385.359 174.478 387.848 173.893 388.346 172.907C388.842 171.929 392.574 171.534 393.822 172.711C395.067 173.893 396.307 175.259 398.049 176.046C399.79 176.824 396.803 181.143 398.547 181.536C400.285 181.929 402.776 184.089 402.533 186.448C402.319 188.468 403.751 189.917 401.78 191.651C403.004 192.28 404.478 192.272 404.272 192.917C404.025 193.701 406.012 193.308 406.012 191.741C406.012 190.169 408.748 190.365 409.996 190.757C410.973 191.066 412.709 190.999 414.133 190.112C414.133 189.407 414.199 188.766 414.306 188.26C414.674 186.512 414.306 184.472 413.202 183.598C412.094 182.726 409.134 181.851 408.394 180.105C407.662 178.361 404.334 176.61 403.594 175.154C402.862 173.699 400.644 172.239 400.644 171.077Z" fill="url(#paint12_radial_47_79)"/>
<path fill-rule="evenodd" clip-rule="evenodd" d="M385.36 198.207C385.36 196.246 382.868 196.246 385.116 194.088C387.348 191.928 390.833 190.36 393.072 190.95C395.311 191.539 399.79 189.967 401.034 191.148C401.257 191.356 401.514 191.51 401.78 191.647C403.751 189.911 402.319 188.463 402.533 186.443C402.78 184.084 400.289 181.925 398.547 181.533C396.804 181.14 399.79 176.822 398.049 176.042C396.308 175.254 395.067 173.886 393.821 172.706C392.574 171.528 388.842 171.924 388.346 172.902C387.848 173.888 385.36 174.475 384.61 173.689C383.867 172.902 382.375 172.702 380.38 173.888C378.389 175.064 375.654 177.216 375.156 175.453C374.658 173.691 376.651 173.888 376.651 171.92C376.651 169.961 377.896 168.977 377.144 167.019C376.397 165.06 373.911 167.216 373.159 165.837C372.418 164.468 373.166 162.898 372.662 162.311C372.508 162.122 372.055 161.787 371.524 161.411C371.094 161.586 370.719 161.782 370.568 162.079C370.104 162.984 366.196 163.169 365.274 164.436C364.353 165.707 361.59 165.527 360.895 165.527C360.2 165.527 357.903 165.709 357.674 166.98C357.445 168.248 356.523 173.332 356.523 174.241C356.523 175.144 359.741 178.049 360.895 178.412C362.045 178.773 360.661 180.953 362.045 181.497C363.433 182.037 362.511 183.853 361.816 183.669C361.127 183.492 362.277 186.033 360.895 186.938C359.513 187.846 360.661 190.21 362.972 191.843C365.274 193.473 365.274 196.014 365.274 197.469C365.274 198.918 367.113 199.102 367.113 200.911C367.113 200.911 364.363 208.826 362.111 208.486C361.629 210.465 361.021 213.571 360.469 215.257C359.781 217.36 359.265 219.194 360.815 219.334C362.364 219.465 365.468 222.253 368.485 225.247C369.22 225.974 369.785 226.738 370.229 227.515C371.273 227.473 372.441 227.524 373.612 227.696C375.904 228.036 376.474 229.505 376.474 230.406C376.474 231.314 380.355 230.973 381.072 230.86C381.621 230.773 380.916 229.501 382.866 229.006C381.695 227.692 378.651 226.1 376.155 225.925C373.228 225.721 371.848 222.255 372.107 220.692C372.366 219.129 369.95 217.771 369.95 216.412C369.95 215.053 368.231 214.984 366.248 214.234C364.263 213.488 366.677 208.867 366.936 206.898C367.193 204.93 371.332 199.287 370.127 197.524C368.919 195.759 374.344 194.398 375.045 196.361C375.729 198.337 375.988 199.287 379.439 199.151C382.888 199.02 382.888 201.121 385.643 201.738C385.805 201.769 385.915 201.83 386.052 201.873C386.07 201.83 386.087 201.775 386.107 201.738C386.854 200.171 385.36 200.171 385.36 198.207Z" fill="url(#paint13_radial_47_79)"/>
<path fill-rule="evenodd" clip-rule="evenodd" d="M390.645 236.729C390.732 233.676 387.023 234.013 386.162 231.912C385.3 229.803 383.833 231.022 383.317 229.662C383.24 229.461 383.075 229.24 382.866 229.008C380.916 229.503 381.621 230.776 381.073 230.862C380.355 230.975 376.474 231.314 376.474 230.408C376.474 229.507 375.904 228.038 373.612 227.699C372.439 227.525 371.272 227.475 370.229 227.518C371.611 229.938 371.783 232.497 371.846 234.555C371.936 237.273 377.019 241.628 377.797 243.39C378.574 245.155 380.034 245.703 383.401 247.603C386.764 249.507 393.313 252.565 394.606 252.09C395.902 251.613 392.628 247.126 390.728 245.569C388.835 244.004 390.561 239.788 390.645 236.729ZM478.842 231.498C477.29 231.773 473.668 231.633 473.668 230.408C473.668 229.186 470.394 226.878 468.325 226.878C466.252 226.878 463.835 230.135 463.666 231.498C463.499 232.862 460.216 232.723 460.562 234.626C460.697 235.378 460.089 235.698 459.295 235.895C459.826 237.534 460.122 238.722 459.354 238.571C457.974 238.296 457.631 239.657 455.563 239.657C454.855 239.657 453.663 238.249 452.402 236.413C452.364 236.409 452.322 236.397 452.284 236.397C450.907 236.397 447.806 240.2 447.113 242.781C446.428 245.366 443.324 244.548 438.666 244.821C434.008 245.094 435.906 248.897 434.872 250.667C433.928 252.282 428.812 249.364 426.225 248.946C426.659 250.404 427.269 251.891 427.972 251.891C429.354 251.891 431.424 254.606 432.8 253.788C434.18 252.977 438.312 253.788 440.384 253.249C442.455 252.709 442.804 251.346 446.248 251.346C449.694 251.346 448.316 253.52 451.764 252.165C455.219 250.804 457.286 251.891 456.936 249.443C456.59 246.998 459.005 246.998 458.659 245.094C458.316 243.187 462.455 244.55 462.107 241.014C461.766 237.483 468.32 238.027 471.075 238.027C471.715 238.027 472.701 238.325 473.835 238.769C475.878 237.972 478.802 236.927 477.454 235.988C475.907 234.9 482.11 235.855 482.8 234.224C483.495 232.584 480.394 231.229 478.842 231.498Z" fill="url(#paint14_radial_47_79)"/>
<path fill-rule="evenodd" clip-rule="evenodd" d="M455.563 239.657C457.631 239.657 457.977 238.298 459.354 238.571C460.122 238.722 459.823 237.534 459.294 235.895C458.071 236.199 456.425 236.195 456.425 236.935C456.425 238.129 453.812 236.492 452.405 236.411C453.663 238.249 454.855 239.657 455.563 239.657Z" fill="url(#paint15_radial_47_79)"/>
<path fill-rule="evenodd" clip-rule="evenodd" d="M638.502 39.3191C637.296 38.0962 635.231 40.0013 632.643 40.4077C630.052 40.8113 621.951 35.5163 619.881 33.067C617.808 30.6231 614.361 32.6633 616.092 34.4259C617.814 36.1912 615.738 36.7337 615.738 39.1857C615.738 41.6287 613.673 41.6287 614.022 43.2607C614.363 44.8917 611.262 44.6196 609.19 44.8917C607.124 45.1666 609.361 46.7967 606.949 47.6141C604.534 48.4269 604.71 49.7858 605.916 50.3292C607.124 50.8735 606.263 52.6406 605.916 53.8635C605.57 55.0872 607.466 54.1365 608.851 52.9137C610.228 51.6918 611.665 53.5024 611.952 52.3676C612.299 51.0123 608.332 50.331 608.502 48.9685C608.677 47.6177 611.262 49.3812 613.33 48.5639C615.4 47.7511 619.534 48.4305 622.123 50.194C624.709 51.963 625.399 51.2853 625.917 49.11C626.43 46.9364 630.399 45.9839 634.364 45.9839C638.335 45.9839 638.671 44.4835 637.466 43.8086C636.262 43.1309 644.022 39.1875 643.848 38.0999C643.673 37.0104 639.712 40.5428 638.502 39.3191ZM606.775 57.9384C605.056 58.6197 603.844 62.8334 605.744 64.0526C607.64 65.2764 602.641 67.5896 602.813 70.1732C602.982 72.7513 599.704 72.7513 599.188 74.6545C598.672 76.5614 596.777 76.1522 593.843 77.9176C590.917 79.6811 589.361 77.6427 590.051 76.4235C590.741 75.1961 585.569 77.1029 585.741 80.0938C585.918 83.082 580.916 83.3532 582.121 84.7121C583.33 86.0747 578.332 86.8857 578.499 85.6619C578.674 84.4427 575.393 85.1258 571.435 86.3459C567.469 87.5688 565.051 84.987 562.813 86.7523C560.569 88.5213 556.775 91.6473 553.843 92.0555C550.916 92.4583 552.603 95.2605 553.843 94.7716C555.915 93.9542 559.189 94.7716 560.228 93.5496C561.259 92.325 569.707 90.8327 574.88 90.6966C580.049 90.5578 576.948 92.5953 577.297 94.7716C577.643 96.9451 581.953 96.5387 584.194 94.5021C586.434 92.4583 588.163 92.5935 586.26 91.3679C584.364 90.1487 586.61 89.061 587.988 90.6948C589.366 92.3223 593.675 92.4565 595.401 90.2821C597.127 88.1085 597.641 90.6948 599.708 90.5551C601.782 90.4218 602.987 86.3432 603.162 87.8382C603.336 89.3341 606.611 88.9277 608.681 87.1624C610.749 85.3916 608.853 82.2674 610.231 80.6372C611.608 79.0052 612.986 75.6043 611.608 73.5669C610.231 71.5285 614.714 70.1714 616.955 68.534C619.196 66.9056 614.368 58.7512 614.197 56.3028C614.022 53.8635 608.5 57.2608 606.775 57.9384ZM568.844 93.2766C568.152 94.7734 566.086 94.0957 563.326 94.504C560.566 94.9104 560.472 100.093 562.464 100.617C564.014 101.024 565.222 101.024 565.736 99.3935C566.251 97.7634 569.013 97.22 570.738 97.8949C572.464 98.5789 574.703 95.8547 574.703 93.8172C574.706 91.7825 569.537 91.7825 568.844 93.2766ZM556.942 98.5789C556.942 97.22 553.153 97.4912 552.984 96.2656C552.806 95.0419 550.224 95.7259 547.638 97.2182C545.052 98.7104 544.19 98.9835 545.222 100.478C546.257 101.973 547.807 100.615 548.495 99.1205C549.184 97.6246 550.916 101.297 549.362 103.743C547.807 106.192 549.559 109.635 551.598 109.311C553.322 109.045 555.569 104.152 558.155 101.567C560.744 98.9853 556.942 99.9333 556.942 98.5789Z" fill="url(#paint16_radial_47_79)"/>
<path fill-rule="evenodd" clip-rule="evenodd" d="M573.674 17.0303C573.852 14.5819 570.221 15.4029 569.018 16.0787C567.813 16.7582 564.363 16.0787 563.329 17.7079C562.292 19.3435 560.569 18.391 558.157 18.6641C555.746 18.9353 552.294 18.1189 552.465 16.8951C552.642 15.6696 551.083 14.4504 551.262 12.9581C551.432 11.4604 548.846 12.1371 547.119 10.7782C545.396 9.42019 541.953 8.46949 541.26 8.74254C540.57 9.01378 538.502 7.24574 535.566 7.11058C532.639 6.97088 532.98 5.47688 533.329 4.52845C533.673 3.58011 530.912 0.585602 530.392 -1.04619C529.877 -2.67589 527.813 -2.94495 526.947 -6.4814C526.085 -10.0139 523.671 -9.06153 524.191 -10.6952C524.707 -12.325 521.26 -13.1399 520.398 -14.0961C519.536 -15.0446 515.912 -14.6382 513.325 -15.724C510.74 -16.8079 509.19 -15.993 506.774 -16.5389C504.362 -17.0828 498.84 -15.993 498.158 -15.993C497.47 -15.993 493.153 -16.6783 490.739 -14.0961C488.328 -11.5081 490.223 -11.6475 491.257 -11.6475C492.291 -11.6475 492.807 -9.19896 492.979 -8.38407C493.156 -7.56917 491.257 -6.34587 490.395 -6.07491C489.534 -5.79804 487.117 -2.81142 486.773 -1.72165C486.429 -0.633793 483.669 2.07796 484.016 3.03419C484.357 3.98462 482.636 4.93105 481.427 5.07238C480.225 5.20981 476.949 7.11057 475.915 7.38363C474.876 7.65668 470.74 7.11057 470.222 6.15988C470.058 5.85235 469.55 5.59862 468.924 5.39251L464.259 12.7458L463.883 15.1126C463.883 15.1126 460.883 15.7068 463.136 17.4821C465.388 19.2592 465.761 17.7769 469.144 17.7769C472.519 17.7769 474.026 19.8506 474.781 18.3702C475.531 16.8933 478.533 16.0034 480.414 17.7769C482.292 19.554 488.303 22.5186 487.932 23.9936C487.55 25.4759 484.173 25.1793 481.918 24.5887C479.664 23.9936 476.662 25.7725 474.405 25.7725C472.148 25.7725 469.523 26.3676 467.268 28.1429C465.013 29.92 465.39 31.6944 462.009 31.9929C458.631 32.2895 457.127 31.9929 453.37 34.0648C449.614 36.1404 445.476 35.2505 443.979 34.6617C442.474 34.0648 439.846 33.7718 438.339 35.842C436.84 37.9175 440.22 38.8065 439.844 41.1751C439.466 43.541 435.714 42.9522 432.702 45.6147C429.698 48.2836 424.818 49.4674 422.188 49.1744C419.557 48.8759 413.921 47.6921 409.044 49.4674C404.159 51.24 400.774 53.9106 398.898 53.6104C397.02 53.3155 397.022 51.5348 394.39 51.8332C391.759 52.1299 390.264 51.5366 388.384 50.6494C386.505 49.7595 385.003 51.24 381.996 49.4656C378.992 47.6903 373.733 47.9851 371.479 47.6903C369.224 47.3936 360.583 47.6903 357.579 47.3936C354.577 47.097 350.442 47.9869 350.061 46.8004C349.69 45.6147 347.433 44.7248 346.685 42.0668C345.933 39.3962 344.057 38.5063 342.177 38.216C340.298 37.9175 340.074 36.3545 338.423 36.1404C337.625 36.0361 336.671 34.0567 334.046 34.0567C331.42 34.0567 322.231 33.2148 320.918 31.5203C319.605 29.8293 322.228 29.4501 322.228 27.7574C322.228 26.0674 323.658 23.8049 322.587 23.1491C321.511 22.4877 319.722 20.9819 319.485 19.6674C319.246 18.3466 316.382 16.5649 314.47 16.4715C312.558 16.3726 311.013 15.4346 309.222 14.2145C307.431 12.9898 305.759 13.0796 305.042 9.97899C304.995 9.77488 304.918 9.61069 304.855 9.42926C304.133 9.3703 303.216 9.15077 302.626 9.15077C302.16 9.15077 301.599 8.84415 301.096 8.4323C300.628 9.72772 299.071 10.37 299.071 11.3914C299.071 12.5199 298.483 13.9278 296.567 13.9278C294.66 13.9278 292.874 15.0591 292.749 17.4113C292.629 19.7636 294.42 20.0448 293.586 21.0798C292.749 22.1167 289.283 23.1454 288.095 22.6801C286.902 22.2111 284.636 22.4877 282.722 22.3045C280.814 22.1167 279.382 20.2316 278.786 22.3045C278.191 24.3746 274.25 30.487 275.204 31.1447C276.163 31.8087 276.873 33.3092 275.204 33.3092C273.532 33.3092 271.861 33.1205 271.029 32.461C270.192 31.8087 267.454 33.3854 265.539 33.3092C264.647 33.2738 260.898 34.6028 262.186 35.1099C263.484 35.6197 263.484 38.0663 263.484 39.0841C263.484 40.1047 266.331 43.16 265.811 44.1814C265.297 45.2001 262.712 46.3232 262.712 47.6449C262.712 48.9703 263.224 50.1958 262.323 50.5025C261.416 50.81 258.568 51.7271 257.147 52.5399C255.729 53.3555 253.397 53.3555 252.625 54.5801C251.847 55.8002 250.679 56.8562 247.969 56.6185C245.64 56.4144 244.479 56.106 242.663 57.8404C240.857 59.574 240.466 58.861 239.174 59.6756C237.88 60.4948 236.587 59.0669 235.556 58.7594C234.522 58.4528 233.1 59.6756 232.066 59.6756C231.035 59.6756 230.128 60.9991 228.833 61.3076C227.535 61.6124 226.245 61.3076 226.245 62.5313C226.245 63.2852 225.998 64.1569 225.291 64.8065H225.296L226.215 68.7988C226.215 68.7988 231.747 70.2521 231.974 71.7026C232.208 73.1541 233.127 77.8749 233.127 77.8749C233.127 77.8749 233.053 77.8822 232.96 77.8867C235.2 79.2728 238.274 80.7515 238.274 81.2849C238.274 81.9 238.533 83.7297 241.246 84.753C242.97 85.397 244.733 86.0865 245.797 86.658C245.936 86.3967 246.019 86.2234 246.019 86.2234L248.318 86.0411C248.318 86.0411 248.996 86.3786 249.638 86.9247C250.206 85.4578 254.177 83.8422 256.25 83.9365C258.447 84.0381 263.489 87.1977 262.971 88.319C262.452 89.4402 258.833 93.5142 257.148 93.8209C256.516 93.9424 255.579 93.9959 254.663 94.025C254.508 94.6945 254.304 95.3113 254.304 95.6651C254.304 96.5741 256.374 98.0192 257.527 99.653C258.681 101.287 255.684 102.374 254.075 101.287C252.465 100.198 251.776 102.374 252.692 103.283C253.612 104.192 253.153 106.733 254.765 106.916C256.374 107.097 257.757 109.633 259.598 109.633C261.438 109.633 263.055 111.992 263.055 111.992C263.055 111.992 265.583 113.267 265.583 113.993C265.583 114.079 265.541 114.174 265.469 114.272C267.482 114.11 268.809 114.056 269.047 113.4C269.308 112.687 271.894 112.687 273.702 114.113C275.51 115.538 282.887 119.21 285.597 120.944C288.317 122.676 294.65 124.61 296.846 124.512C299.048 124.406 301.116 125.733 304.479 125.629C304.982 125.619 305.419 125.629 305.815 125.655C306.292 125.256 307.1 125.246 307.718 124.52C308.637 123.429 310.022 125.429 309.558 126.876C309.344 127.55 309.536 128.302 309.89 128.897C310.348 128.376 310.824 127.691 311.2 126.953C312.368 124.712 314.174 124.816 315.343 124.102C316.506 123.39 317.669 123.693 320.123 124.714C322.445 125.676 323.386 123.648 326.856 126.164C327.576 125.908 328.498 125.609 328.897 125.609C329.585 125.609 330.508 124.52 331.657 123.611C332.808 122.706 332.579 121.612 333.961 121.797C335.343 121.974 336.034 120.527 339.025 119.259C342.02 117.988 344.551 119.984 345.933 119.074C347.313 118.165 348.922 117.804 348.922 118.711C348.922 119.619 350.766 120.711 351.229 121.794C351.64 122.768 354.061 123.161 354.574 123.227C355.011 123.047 355.357 122.888 355.558 122.774C356.978 121.961 359.437 122.878 359.437 124.1C359.437 125.323 359.569 126.648 360.735 126.648C361.898 126.648 363.061 126.648 363.061 128.891C363.061 131.135 364.093 133.682 361.64 135.623C359.183 137.556 356.333 141.022 356.857 142.039C357.372 143.06 356.077 144.998 357.888 144.285C359.699 143.573 363.839 144.285 363.188 145.098C362.543 145.915 363.318 148.77 365 148.868C366.683 148.976 367.72 149.689 367.199 150.91C366.683 152.135 365.779 153.971 367.199 153.971C368.622 153.971 370.69 153.972 370.433 155.193C370.174 156.416 371.466 157.539 374.052 156.72C375.574 156.243 376.334 155.808 376.68 156.293C377.709 156.265 377.779 158.111 379.555 158.458C381.396 158.822 380.476 155.374 379.784 154.828C379.097 154.284 380.016 151.923 380.706 152.466C381.396 153.014 383.464 152.466 384.617 151.375C385.77 150.288 388.077 152.285 388.999 151.014C389.918 149.744 391.986 151.921 394.058 151.014C396.13 150.107 397.052 151.739 397.972 150.471C398.888 149.2 401.885 147.566 402.578 148.112C403.265 148.654 403.731 149.744 407.408 150.109C411.097 150.473 409.019 151.923 409.019 152.83C409.019 153.744 413.165 156.1 414.776 156.278C415.072 156.316 415.491 156.595 415.972 157.035C417.09 156.6 419.093 157.325 419.534 156.285C420.05 155.061 421.943 155.397 422.72 156.416C423.498 157.437 424.357 157.642 426.083 156.416C427.809 155.193 428.669 157.642 427.633 158.325C426.602 158.998 427.291 161.109 428.93 162.328C430.567 163.552 430.826 161.584 430.483 160.359C430.137 159.138 433.24 157.914 438.673 156.491C444.101 155.059 449.96 151.929 450.052 151.254C450.135 150.572 453.934 152.473 455.742 151.387C457.55 150.301 464.099 150.166 465.825 150.095C467.553 150.031 467.463 148.868 469.276 147.719C471.085 146.563 470.653 146.017 472.726 145.546C474.791 145.069 476.084 143.573 476.084 142.755C476.084 141.943 479.967 141.67 480.052 140.784C480.139 139.908 482.989 139.633 482.989 138.545C482.989 137.459 484.711 137.664 485.49 136.845C486.265 136.03 484.882 133.652 486.265 133.313C487.64 132.971 485.744 131.679 485.49 131.069C485.231 130.457 488.074 130.318 489.534 129.574C491.005 128.823 491.952 127.668 492.211 126.377C492.471 125.089 494.882 123.933 496 123.591C497.127 123.255 497.557 121.421 497.208 119.858C496.867 118.291 499.193 118.7 498.162 118.084C497.127 117.479 498.591 115.778 500.661 115.307C502.729 114.83 499.366 114.081 498.245 114.762C497.127 115.44 495.916 112.791 494.882 113.81C493.851 114.83 490.918 113.198 492.811 112.862C494.707 112.518 497.642 110.824 498.937 110.48C500.23 110.139 497.037 107.9 495.398 107.969C493.761 108.035 491.95 104.976 490.229 104.976C488.502 104.976 491.519 104.025 493.505 104.843C495.487 105.656 497.812 106.34 498.675 105.656C499.538 104.976 495.312 102.262 493.758 101.31C492.209 100.356 493.673 99.0615 492.727 98.5199C491.777 97.9802 489.708 94.5157 489.018 92.9491C488.333 91.3824 484.711 91.113 483.846 90.0961C482.987 89.0746 483.931 86.6988 486.607 85.8116C489.276 84.9335 488.154 83.1609 489.361 83.3668C490.569 83.5727 491.599 83.1627 492.55 81.6033C493.502 80.0403 495.136 80.9892 496.084 80.1718C497.041 79.3554 501.259 79.4261 502.724 78.6106C504.191 77.7978 501.344 75.2804 499.36 75.6869C497.377 76.0914 495.053 75.4827 493.671 73.8508C492.291 72.2215 488.671 76.8417 485.909 77.8631C483.153 78.8819 481.343 76.027 482.29 74.1928C483.238 72.3567 480.137 72.4275 476.258 72.5608C472.375 72.7005 473.842 67.1215 476.174 66.853C478.5 66.5799 481.945 68.5494 483.415 65.1584C484.878 61.7593 486.943 64.4064 490.223 61.4201C493.499 58.4292 497.291 56.5931 500.135 58.3602C502.982 60.1255 497.121 62.9123 496.172 64.6105C495.228 66.3105 497.034 66.8548 495.311 68.143C493.586 69.4393 495.993 69.7768 499.36 68.0786C502.724 66.3813 506.856 64.3438 510.137 63.3224C511.009 63.0511 511.973 62.9803 512.947 63.0411C513.41 62.056 513.953 61.274 514.596 61.0191C516.85 60.1319 524.361 57.4685 525.49 56.281C526.615 55.099 527.742 53.0271 529.243 53.0271C530.746 53.0271 530.746 54.2136 533.003 54.2136C535.257 54.2136 537.885 54.8042 536.756 53.3237C535.628 51.8414 536.386 51.8414 539.011 51.5448C541.639 51.25 541.265 49.1825 543.146 49.1825C545.02 49.1825 544.645 45.6229 546.521 45.6229C548.402 45.6229 549.155 47.7003 551.409 47.1052C551.835 46.9872 552.395 47.0816 553.009 47.2893C553.489 46.9954 553.963 46.7124 554.433 46.4429C554.209 44.5896 554.483 42.9268 554.023 42.0523C553.158 40.4213 554.023 39.1993 553.668 38.2477C553.325 37.2934 553.155 34.9838 554.538 34.9838C555.918 34.9838 557.642 32.2623 559.361 33.2166C561.089 34.1692 564.532 34.4395 564.532 33.2166C564.532 31.9929 566.948 31.8559 567.294 30.2258C567.636 28.5965 570.224 28.1901 570.742 26.6933C571.261 25.1974 572.122 21.6604 573.846 20.8476C575.568 20.0194 573.497 19.4769 573.674 17.0303ZM489.185 145.74C487.292 151.177 491.706 153.944 492.288 153.624C494.01 152.673 501.082 140.985 499.531 139.353C497.978 137.723 491.083 140.301 489.185 145.74ZM427.628 164.23C425.388 164.23 419.694 166.808 421.938 170.475C424.183 174.146 431.596 171.701 431.768 170.069C431.94 168.437 435.321 165.871 434.872 164.634C434.526 163.682 429.877 164.23 427.628 164.23Z" fill="url(#paint17_radial_47_79)"/>
<path fill-rule="evenodd" clip-rule="evenodd" d="M501.257 194.673C504.537 194.26 509.014 197.526 508.327 198.747C507.634 199.967 508.496 203.911 510.05 202.822C511.603 201.739 514.016 203.093 512.462 204.86C510.912 206.627 514.878 208.393 515.393 210.572C515.91 212.746 517.636 210.979 517.294 209.347C516.953 207.713 517.638 207.853 519.88 206.627C522.122 205.403 519.703 203.363 518.331 201.056C516.953 198.745 511.774 199.558 511.774 197.386C511.774 195.211 507.985 194.533 507.808 193.308C507.634 192.085 502.634 190.862 499.707 192.218C496.776 193.579 498.838 189.771 496.773 188.006C494.701 186.239 498.323 183.657 500.741 181.484C503.153 179.309 500.051 175.638 500.39 174.006C500.741 172.379 500.562 171.834 499.358 172.379C498.155 172.917 493.151 170.748 490.911 171.834C488.669 172.922 490.737 181.89 489.703 182.573C488.669 183.249 487.329 181.12 486.941 182.029C486.427 183.249 487.115 188.281 488.495 188.281C489.88 188.281 490.914 189.638 490.049 191.813C489.185 193.99 492.633 194.26 495.911 193.31C499.187 192.36 497.978 195.077 501.257 194.673ZM490.222 195.89C490.738 197.797 491.943 201.739 495.74 200.783C499.531 199.831 489.846 194.526 490.222 195.89ZM499.875 209.077C500.741 208.939 502.812 209.077 502.979 207.713C503.151 206.356 505.046 210.16 503.497 211.383C501.942 212.608 501.942 216.005 504.361 216.415C506.773 216.824 511.254 210.299 510.566 209.079C509.876 207.855 507.809 209.89 508.327 208.263C508.84 206.629 502.119 202.414 499.533 202.822C496.943 203.232 497.844 209.392 499.875 209.077ZM479.53 211.657C477.118 214.104 471.354 218.167 472.112 219.27C473.15 220.763 479.53 213.286 482.634 211.524C485.735 209.755 485.222 208.263 484.188 206.629C483.15 204.999 481.944 209.209 479.53 211.657ZM510.22 214.377C510.91 215.734 515.907 213.561 514.527 212.202C513.155 210.845 509.707 213.358 510.22 214.377ZM525.739 224.977C527.811 223.068 524.359 218.046 524.359 214.788C524.359 211.524 518.669 212.468 520.221 214.51C521.774 216.547 517.292 214.915 516.943 216.955C516.605 218.994 513.323 217.364 513.496 218.994C513.672 220.626 510.05 218.994 508.327 218.046C506.602 217.095 504.189 220.626 501.6 221.173C499.015 221.717 497.642 226.043 499.361 225.929C501.429 225.795 502.463 223.614 504.533 223.753C506.602 223.889 505.917 222.126 508.84 222.531C511.774 222.942 509.704 229.872 513.672 230.412C517.636 230.958 517.807 232.86 519.701 232.86C521.599 232.86 519.364 228.515 519.534 227.019C519.701 225.517 523.669 226.879 525.739 224.977Z" fill="url(#paint18_radial_47_79)"/>
<path fill-rule="evenodd" clip-rule="evenodd" d="M663.849 305.164C662.643 304.758 659.542 303.128 659.711 302.038C659.883 300.952 656.263 301.087 653.849 299.866C651.435 298.641 652.298 294.702 649.709 293.748C647.124 292.797 645.225 289.809 648.327 289.942C651.431 290.08 651.949 288.719 649.538 286.956C647.121 285.189 638.333 284.509 637.981 281.925C637.638 279.343 621.949 273.222 615.051 272.001C613.825 271.787 612.351 271.43 610.742 271.003V300.011C612.346 300.856 614.329 301.535 616.947 301.632C624.532 301.903 622.639 298.504 624.014 298.504C625.399 298.504 625.917 296.601 627.467 295.106C629.021 293.614 635.745 294.833 639.71 297.276C643.674 299.727 648.327 306.929 652.467 306.25C656.607 305.572 660.919 308.152 664.711 308.013C668.51 307.884 665.054 305.576 663.849 305.164ZM673.677 280.972C673.677 282.196 670.924 282.877 666.607 284.232C662.302 285.593 654.467 282.677 654.191 284.641C654.027 285.866 659.021 288.04 663.677 288.04C668.333 288.04 675.752 284.369 675.752 283.284C675.752 282.198 678.68 280.294 677.472 279.208C676.267 278.119 673.677 279.749 673.677 280.972ZM679.54 275.81C676.786 274.448 674.372 273.495 677.814 276.075C681.267 278.663 679.408 280.852 681.436 280.432C684.712 279.753 682.298 277.168 679.54 275.81Z" fill="url(#paint19_radial_47_79)"/>
<path fill-rule="evenodd" clip-rule="evenodd" d="M261.412 213.152C259.862 213.291 260.209 215.734 259.344 217.501C258.482 219.27 258.659 221.034 258.998 223.614C259.344 226.2 258.998 228.92 261.93 230.41C265.299 232.13 270.724 227.697 270.901 223.889C271.067 220.084 262.72 213.042 261.412 213.152Z" fill="url(#paint20_radial_47_79)"/>
<path fill-rule="evenodd" clip-rule="evenodd" d="M691.612 284.232C691.266 285.462 696.793 291.928 698.854 290.895C702.643 288.996 691.953 283.01 691.612 284.232ZM702.643 289.942C702.511 290.453 706.651 293.612 707.558 293.102C708.462 292.595 702.879 289.023 702.643 289.942ZM722.04 298.093C723.466 297.384 714.034 293.311 713.892 294.629C713.765 295.855 720.618 298.809 722.04 298.093ZM721.004 302.483C721.525 304.52 725.404 305.741 726.955 305.031C728.505 304.316 720.476 300.374 721.004 302.483ZM731.609 306.963C731.868 307.473 735.236 309.919 736.912 309.005C738.592 308.084 731.171 306.095 731.609 306.963ZM727.088 297.891C725.79 300.135 730.966 304.007 731.741 304.112C732.516 304.213 728.084 296.167 727.088 297.891Z" fill="url(#paint21_radial_47_79)"/>
<path fill-rule="evenodd" clip-rule="evenodd" d="M691.612 284.232C691.266 285.462 696.793 291.928 698.854 290.895C702.643 288.996 691.953 283.01 691.612 284.232ZM702.643 289.942C702.511 290.453 706.651 293.612 707.558 293.102C708.462 292.595 702.879 289.023 702.643 289.942ZM722.04 298.093C723.466 297.384 714.034 293.311 713.892 294.629C713.765 295.855 720.618 298.809 722.04 298.093ZM721.004 302.483C721.525 304.52 725.404 305.741 726.955 305.031C728.505 304.316 720.476 300.374 721.004 302.483ZM731.609 306.963C731.868 307.473 735.236 309.919 736.912 309.005C738.592 308.084 731.171 306.095 731.609 306.963ZM727.088 297.891C725.79 300.135 730.966 304.007 731.741 304.112C732.516 304.213 728.084 296.167 727.088 297.891Z" fill="url(#paint22_radial_47_79)"/>
<path fill-rule="evenodd" clip-rule="evenodd" d="M683.889 391.874C684.928 391.261 683.374 388.002 682.469 388.511C681.565 389.02 681.565 383.411 682.213 380.868C682.855 378.317 682.469 378.62 680.787 379.947C679.106 381.272 677.298 377.401 676.909 376.379C676.518 375.361 674.577 372.507 672.383 372.914C670.183 373.324 671.606 370.466 669.541 370.777C667.466 371.078 667.084 368.427 667.466 365.984C667.854 363.536 666.046 365.473 665.139 364.458C664.234 363.435 663.203 364.252 661.773 364.661C660.351 365.071 659.962 362.523 660.351 361.497C660.742 360.48 660.095 359.255 658.156 358.135C656.215 357.016 656.086 356.095 656.215 354.768C656.348 353.446 645.225 348.96 642.769 348.553C640.31 348.149 642.383 346.107 641.344 345.398C640.31 344.683 639.924 342.03 639.924 339.79C639.924 337.549 636.305 336.835 636.435 334.999C636.564 333.164 635.403 331.433 635.657 329.391C635.916 327.354 631.903 326.848 631.779 325.727C631.649 324.603 629.447 325.622 627.252 325.828C625.05 326.033 625.184 323.582 625.441 321.24C625.698 318.897 624.535 315.023 622.723 313.904C620.913 312.784 620.785 308.906 619.881 308.297C618.974 307.683 615.998 310.338 616.124 311.659C616.259 312.985 615.868 314.514 614.707 315.33C613.541 316.146 615.485 319.306 613.928 320.429C612.376 321.55 613.8 326.033 613.411 328.581C613.025 331.129 613.153 333.881 611.598 335.615C610.051 337.347 609.789 340.102 606.683 341.019C603.582 341.934 599.444 339.998 599.574 338.673C599.701 337.347 596.208 336.53 594.4 336.737C592.591 336.943 591.555 334.901 588.71 333.171C585.863 331.436 583.671 333.575 582.762 331.539C581.857 329.505 580.953 329.196 578.881 328.075C576.818 326.956 577.461 326.956 579.399 325.831C581.339 324.711 580.953 323.282 579.915 321.956C578.881 320.627 581.08 320.938 583.668 319.812C586.251 318.695 583.669 317.367 585.606 316.757C587.545 316.144 586.386 314.819 584.311 314.512C582.243 314.206 582.891 316.144 582.114 316.347C581.336 316.551 580.56 313.797 579.912 313.904C579.267 314.003 576.815 316.65 575.518 315.33C574.222 314.003 566.981 312.88 564.136 312.58C561.294 312.27 560.389 309.417 558.706 309.926C557.024 310.44 558.962 311.354 560.902 312.985C562.84 314.617 554.438 315.733 551.982 315.129C549.529 314.514 552.37 316.554 550.301 316.451C548.23 316.348 547.844 319.2 546.163 320.629C544.481 322.059 545.645 323.076 543.832 323.993C542.02 324.912 541.896 325.929 544.09 327.871C546.29 329.809 543.057 329.908 541.113 328.379C539.177 326.853 537.235 326.853 537.367 328.583C537.494 330.315 535.038 329.505 535.426 327.564C535.817 325.627 532.711 326.541 532.198 325.422C531.675 324.3 528.962 322.467 527.278 322.567C525.599 322.671 525.599 324.098 523.917 324.098C522.234 324.098 521.848 324.809 522.104 326.239C522.366 327.664 519.521 326.135 517.578 326.341C515.64 326.541 517.578 328.276 516.544 328.377C515.513 328.48 515.513 329.907 513.826 329.907C512.144 329.907 512.409 332.86 512.665 334.39C512.922 335.917 510.077 333.675 508.398 334.088C506.715 334.496 508.784 335.82 509.303 337.555C509.821 339.285 508.398 339.183 507.491 339.898C506.587 340.61 505.157 337.959 505.157 336.43C505.157 334.901 502.963 336.328 500.639 338.264C498.307 340.2 501.413 343.157 500.377 343.665C499.346 344.174 494.687 347.644 491.975 350.191C489.259 352.738 483.435 351.214 481.626 352.435C479.816 353.66 477.877 352.738 476.067 353.861C474.255 354.982 470.898 357.126 470.509 355.797C470.125 354.473 465.465 355.497 463.526 357.126C461.586 358.756 458.484 360.181 456.282 360.285C454.086 360.386 454.086 363.035 453.181 363.649C452.277 364.26 452.531 361.503 452.531 360.796C452.531 360.083 450.464 362.017 449.559 364.158C448.655 366.298 451.759 367.113 449.82 369.355C447.878 371.602 446.067 373.838 448.785 376.695C451.499 379.549 453.049 381.384 452.147 382.808C451.24 384.235 449.303 379.955 448.655 380.47C448.01 380.978 451.113 382.808 450.339 383.729C449.559 384.644 446.776 380.257 446.201 381.281C445.678 382.201 452.015 389.131 452.15 391.676C452.28 394.225 457.322 396.673 457.064 400.343C456.806 404.013 461.464 409.925 462.239 410.842C463.011 411.761 460.425 414.204 460.941 416.959C461.464 419.708 459.78 420.729 457.583 420.729C455.383 420.729 456.681 423.584 459.129 423.788C461.589 423.992 460.684 425.318 463.399 426.747C466.114 428.173 472.579 427.664 474.778 427.664C476.978 427.664 477.628 425.009 480.6 424.916C483.574 424.811 483.314 424.096 484.735 422.665C486.158 421.242 492.884 421.648 499.739 421.958C506.592 422.26 509.564 420.631 510.596 418.386C511.479 416.474 516.417 416.35 518.355 414.921C520.295 413.495 521.977 413.395 527.021 413.595C532.063 413.799 536.722 411.661 539.952 410.642C543.186 409.619 549.134 410.029 552.238 409.419C555.343 408.802 555.858 412.474 559.348 412.169C562.838 411.859 564.393 412.985 566.203 412.882C568.015 412.778 567.755 413.902 569.566 414.204C571.377 414.512 571.121 415.735 569.957 417.063C568.789 418.384 572.671 418.284 575.126 420.935C577.583 423.586 575.256 423.992 576.552 426.032C577.842 428.069 578.746 427.56 581.335 424.707C583.92 421.854 586.763 423.688 587.151 421.242C587.539 418.795 590.259 415.942 592.071 417.165C593.881 418.384 590.773 418.995 589.612 423.688C588.449 428.379 586.381 425.931 585.992 427.252C585.604 428.578 591.423 429.292 591.423 426.843C591.423 424.397 592.457 423.277 594.659 425.516C596.856 427.767 593.361 429.598 593.881 430.62C594.395 431.637 596.854 430.31 598.149 430.411C600.448 430.596 603.579 434.594 603.061 436.736C602.545 438.877 601.769 440.912 606.163 442.65C610.562 444.382 608.88 444.684 612.114 444.684C615.347 444.684 622.071 446.724 623.882 447.948C625.693 449.169 630.351 447.029 631.253 444.581C632.159 442.14 635.523 444.482 633.711 445.296C631.896 446.114 634.616 448.051 634.745 446.724C634.872 445.397 635.65 444.281 636.297 445.81C636.942 447.336 639.275 447.336 640.178 448.559C641.085 449.784 642.116 450.699 642.116 449.68C642.116 448.661 642.635 447.744 644.704 447.132C646.77 446.517 648.065 445.396 650.262 443.968C652.462 442.543 661.514 442.236 662.418 442.236C663.323 442.236 663.841 436.125 664.357 432.962C664.875 429.801 668.238 429.292 668.753 425.929C669.272 422.565 673.795 416.347 674.962 416.044C676.127 415.735 678.329 414.821 678.451 412.882C678.584 410.945 681.555 408.8 681.555 406.46C681.555 404.115 683.241 401.362 682.98 400.651C682.718 399.938 681.682 397.688 683.625 396.06C685.576 394.424 682.855 392.487 683.889 391.874ZM554.316 312.064C554.057 310.838 544.85 312.253 546.813 313.489C548.109 314.302 554.572 313.287 554.316 312.064ZM583.414 432.752C584.837 433.769 589.62 433.465 590.397 432.039C591.172 430.613 582.137 431.843 583.414 432.752ZM641.863 461.085C638.375 461.395 633.133 458.581 631.903 458.85C630.483 459.151 636.432 466.186 634.623 468.02C632.813 469.856 639.924 474.852 642.383 475.157C644.834 475.46 643.93 473.22 645.614 473.32C647.298 473.424 646.65 471.994 646.909 470.975C647.168 469.959 648.85 472.099 650.272 471.486C651.692 470.873 649.883 466.489 651.954 466.489C654.022 466.489 652.342 461.194 651.695 459.461C651.044 457.725 645.358 460.784 641.863 461.085Z" fill="url(#paint23_radial_47_79)"/>
<path fill-rule="evenodd" clip-rule="evenodd" d="M825.109 343.763C827.309 345.395 831.7 345.294 831.827 342.337C831.962 339.377 823.148 342.311 825.109 343.763ZM833.122 338.359C834.549 338.769 839.2 337.548 839.2 335.811C839.203 334.081 830.977 337.748 833.122 338.359Z" fill="url(#paint24_radial_47_79)"/>
<path fill-rule="evenodd" clip-rule="evenodd" d="M746.956 354.814C746.6 353.117 765.923 362.966 763.853 364.052C761.786 365.142 747.302 356.447 746.956 354.814Z" fill="url(#paint25_radial_47_79)"/>
<path fill-rule="evenodd" clip-rule="evenodd" d="M224.862 75.8538C226.155 76.4643 225.893 77.2834 227.099 77.1437C228.091 77.0358 230.173 77.3869 231.175 78.1534C232.236 77.9511 233.118 77.8704 233.118 77.8704C233.118 77.8704 232.198 73.1514 231.964 71.699C231.737 70.2476 226.205 68.7943 226.205 68.7943L225.286 64.8028C225.286 64.8028 218.839 65.5313 217.69 65.1693C216.539 64.8028 214.006 65.7118 212.858 64.4436C211.707 63.1727 209.632 65.3508 207.562 64.2604C205.492 63.1709 199.503 64.6259 199.269 63.717C199.042 62.8071 201.802 60.8123 203.416 60.9955C203.8 61.0381 204.448 61.0499 205.213 61.0345C205.97 60.0738 207.681 57.7987 207.268 57.2626C206.752 56.5813 204.685 57.1265 203.302 57.9402C201.919 58.7567 199.339 57.5329 198.818 58.7567C198.3 59.9795 197.617 61.2033 196.063 61.2033C194.511 61.2033 195.717 63.2434 194.167 63.785C192.61 64.3293 188.991 64.1941 188.649 65.417C188.306 66.6389 192.61 67.4535 192.271 68.9494C191.925 70.448 194.508 72.0755 192.959 73.0262C191.631 73.8408 190.438 75.1643 190.55 77.8232C191.674 78.3902 192.747 78.8955 193.28 78.0509C194.207 76.5995 199.266 78.0509 199.266 76.7827C199.266 75.5082 204.799 75.871 204.799 74.6028C204.799 73.3346 208.018 70.4299 210.09 70.6131C212.163 70.7919 209.863 73.5169 212.394 74.4223C214.928 75.3294 211.243 78.5952 212.626 79.8652C213.142 80.3387 214.148 80.258 215.379 79.9732C216.318 79.7627 217.391 79.4334 218.487 79.1486C220.754 77.5737 223.833 75.3666 224.862 75.8538Z" fill="url(#paint26_radial_47_79)"/>
<path fill-rule="evenodd" clip-rule="evenodd" d="M227.102 77.1437C225.896 77.2816 226.155 76.4625 224.865 75.8538C223.841 75.3666 220.765 77.5737 218.493 79.1468C217.429 79.428 216.381 79.7418 215.461 79.9577C214.193 80.2562 213.16 80.3524 212.629 79.8679C211.246 78.597 214.931 75.3294 212.397 74.4241C209.866 73.5169 212.166 70.7919 210.093 70.615C208.02 70.4326 204.802 73.3364 204.802 74.6055C204.802 75.8737 199.269 75.51 199.269 76.7845C199.269 78.0536 194.21 76.6004 193.283 78.0536C192.367 79.506 189.833 76.9632 188.224 76.9632C186.61 76.9632 185.456 75.1507 183.391 75.6932C181.321 76.2393 180.168 75.1535 178.551 74.9684C176.942 74.7897 175.788 77.6899 173.953 77.1465C172.109 76.6022 171.187 79.8697 170.493 81.6877C169.802 83.5002 161.973 83.5002 162.207 85.495C162.436 87.4926 157.601 88.221 157.14 86.9465C156.68 85.6783 153.685 86.404 152.995 86.0393C152.308 85.6783 150.235 86.404 150.462 88.2192C150.691 90.0308 148.392 91.1194 148.16 91.8451C147.931 92.5744 146.551 94.7498 147.472 95.8375C148.394 96.9251 146.319 98.7413 147.472 100.739C148.626 102.735 147.933 105.276 148.392 106.003C148.85 106.73 153.222 106.369 154.146 108.359C155.068 110.356 148.392 113.806 148.163 114.892C148.068 115.346 148.621 115.868 149.343 116.422C151.969 116.508 155.294 116.766 158.311 117.197C162.1 117.742 181.413 115.434 181.755 114.886C182.106 114.344 181.072 110.942 181.239 110.27C181.413 109.586 183.827 107.957 185.897 108.089C187.965 108.23 189.861 108.497 189.861 107.276C189.861 106.052 195.553 104.558 196.068 105.644C196.591 106.735 198.657 106.329 198.823 103.607C198.998 100.888 198.657 98.8519 200.724 98.7141C202.797 98.5807 204.864 97.6264 204.69 96.809C204.513 95.9989 202.104 94.3652 202.797 93.8191C203.482 93.2793 208.658 95.1816 209.343 93.956C210.038 92.7332 208.999 91.3725 209.861 90.2866C210.726 89.1989 212.793 88.1131 212.624 87.0272C212.45 85.9386 212.791 85.2601 211.583 84.3075C210.377 83.3568 210.895 82.134 212.45 81.9961C212.716 81.9743 213.018 81.861 213.319 81.7058C214.515 81.5171 215.546 81.3348 216.333 80.8749C218.49 79.6103 222.616 78.5716 224.207 79.0288C225.503 79.398 228.368 79.0878 230.124 77.6173C229.085 77.2345 227.819 77.0657 227.102 77.1437Z" fill="url(#paint27_radial_47_79)"/>
<path fill-rule="evenodd" clip-rule="evenodd" d="M241.239 84.7493C238.524 83.7261 238.267 81.8954 238.267 81.2813C238.267 80.747 235.196 79.2683 232.954 77.8822C232.66 77.9194 231.967 78.0055 231.18 78.157C230.898 77.9411 230.52 77.7661 230.121 77.6173C228.365 79.0878 225.5 79.398 224.205 79.0288C222.613 78.5734 218.488 79.6121 216.331 80.8749C215.543 81.3321 214.515 81.5171 213.316 81.7049C213.015 81.86 212.716 81.9761 212.447 81.9961C210.893 82.1313 210.375 83.355 211.58 84.3075C212.788 85.2573 212.447 85.9386 212.622 87.0263C212.788 88.1121 210.721 89.198 209.859 90.2866C208.997 91.3725 210.036 92.7332 209.341 93.956C208.656 95.1816 203.479 93.2766 202.794 93.819C202.102 94.3642 204.508 95.998 204.687 96.809C204.862 97.6264 202.794 98.5789 200.722 98.714C198.654 98.851 198.998 100.888 198.821 103.607C198.654 106.329 196.589 106.735 196.066 105.644C195.55 104.558 189.858 106.052 189.858 107.275C189.858 108.497 187.962 108.229 185.895 108.089C183.825 107.959 181.411 109.588 181.236 110.269C181.07 110.942 182.103 114.342 181.752 114.886C181.411 115.432 162.098 117.742 158.309 117.197C155.292 116.765 151.966 116.508 149.341 116.422C150.34 117.195 151.677 118.04 152.079 118.89C152.848 120.496 155.302 121.967 158.065 122.876C160.825 123.785 159.442 127.596 160.825 127.96C162.207 128.325 164.051 131.226 162.207 131.408C160.361 131.592 158.752 131.951 156.911 132.681C155.068 133.403 152.995 135.217 153.224 137.399C153.259 137.685 153.312 138.08 153.379 138.542C158.08 138.626 163.654 138.446 164.255 137.925C165.204 137.11 167.446 136.704 168.736 137.383C170.034 138.06 175.806 138.331 178.135 137.314C180.967 136.072 182.706 137.314 182.786 138.402C182.868 139.488 184.166 139.965 185.456 140.911C186.752 141.864 185.808 142.954 186.665 144.044C187.529 145.129 189.25 144.925 191.751 145.804C192.108 145.929 192.404 146.087 192.683 146.261C192.84 146.117 192.972 146.005 193.054 145.925C194.437 144.656 194.666 142.474 198.35 143.02C202.032 143.563 201.803 142.474 203.88 142.838C205.953 143.199 207.33 143.02 208.25 141.934C209.171 140.843 207.33 138.667 206.185 137.76C205.031 136.851 203.419 134.856 203.646 133.042C203.88 131.223 199.962 131.223 199.962 129.77C199.962 128.323 203.646 125.963 204.341 125.419C205.031 124.875 208.02 126.87 208.713 125.784C209.401 124.69 211.476 125.419 212.629 125.599C213.782 125.784 215.616 123.783 215.847 122.153C216.079 120.519 219.995 120.337 220.683 119.794C221.375 119.251 222.526 115.619 222.989 114.89C223.45 114.169 226.442 114.714 226.442 112.714C226.442 110.717 227.827 110.354 229.207 110.173C230.585 109.989 230.124 108.177 230.355 106.728C230.585 105.275 231.506 103.641 233.347 103.277C235.191 102.912 232.657 100.921 230.585 101.28C228.515 101.643 227.132 96.9215 227.132 96.9215C227.132 96.9215 227.364 93.1142 226.208 92.5699C225.054 92.0238 226.671 90.0271 229.207 90.0271C231.74 90.0271 236.341 92.2007 237.951 91.2953C239.56 90.39 242.786 89.8466 243.708 89.4829C244.403 89.2044 245.372 87.4681 245.79 86.6516C244.726 86.0819 242.963 85.3934 241.239 84.7493Z" fill="url(#paint28_radial_47_79)"/>
<path fill-rule="evenodd" clip-rule="evenodd" d="M362.111 263.306C361.766 263.982 363.662 266.701 364.866 265.888C366.076 265.07 363.199 261.154 362.111 263.306ZM418.493 271.595C418.493 270.369 414.045 270.964 415.389 272.684C416.769 274.445 418.493 272.816 418.493 271.595ZM353.663 251.617C353.315 252.976 355.21 256.913 357.283 255.287C359.355 253.655 353.997 250.281 353.663 251.617ZM483.839 274.858C486.425 274.991 486.081 277.982 485.563 279.747C485.043 281.515 483.999 285.711 486.253 285.045C489.008 284.231 490.734 281.515 489.183 280.564C487.628 279.614 487.805 273.631 488.492 272.14C489.183 270.641 493.841 271.73 492.287 274.041C490.734 276.355 495.216 276.073 495.216 278.663C495.216 281.242 497.802 279.887 500.562 279.208C503.325 278.528 502.809 277.299 500.911 275.671C499.012 274.041 502.291 271.73 499.707 270.369C497.119 269.014 495.393 266.974 497.804 266.566C500.223 266.157 507.46 262.893 506.6 261.537C505.739 260.174 495.565 261.808 494.701 264.252C493.843 266.697 486.602 263.978 487.464 259.77C488.328 255.555 502.634 254.877 506.772 256.371C510.912 257.869 515.394 253.924 516.943 251.615C518.498 249.3 513.672 252.023 510.738 253.518C507.808 255.016 500.052 253.38 496.083 252.294C492.117 251.21 492.291 254.197 489.013 254.604C485.738 255.016 486.427 260.722 484.876 261.401C483.321 262.085 483.321 266.294 480.223 270.238C477.114 274.175 481.251 274.721 483.839 274.858ZM405.046 278.389C404.872 276.488 405.905 274.585 405.905 273.631C405.905 272.684 406.768 272.276 408.318 272.545C409.872 272.816 409.705 269.961 408.492 269.69C407.285 269.423 406.599 266.022 403.662 266.022C400.735 266.022 401.25 267.923 402.978 268.062C404.705 268.196 405.731 269.285 405.218 270.236C404.7 271.186 404.015 269.285 401.598 269.423C399.18 269.555 400.735 267.105 397.976 266.972C395.219 266.837 395.74 262.893 392.8 262.893C389.868 262.893 389.701 260.993 391.597 259.636C393.491 258.273 388.665 257.05 388.665 255.422C388.665 253.787 385.563 254.743 385.563 253.38C385.563 252.026 384.186 252.704 382.629 251.071C381.082 249.441 380.39 250.935 379.01 249.716C377.634 248.491 375.736 247.811 374.528 248.218C373.323 248.63 370.56 246.45 369.526 244.277C368.707 242.543 360.735 239.655 359.697 237.345C358.665 235.037 355.905 234.082 351.252 234.219C346.598 234.351 344.76 230.626 343.659 232.452C342.284 234.767 348.663 239.928 351.596 241.289C354.525 242.643 356.075 247.536 359.525 247.811C362.98 248.082 363.316 256.644 365.904 257.05C368.492 257.462 374.018 264.121 374.877 267.651C375.739 271.188 381.423 272.956 383.327 275.537C385.22 278.117 392.806 281.656 393.841 282.74C394.873 283.826 395.912 286.273 396.778 285.047C397.64 283.826 401.258 285.047 402.984 285.187C404.703 285.326 405.216 280.294 405.046 278.389ZM536.774 256.644C540.566 256.919 538.837 255.147 538.837 253.247C538.837 251.346 535.394 252.976 535.394 252.025C535.394 251.073 534.188 247.27 531.429 250.256C528.669 253.247 532.315 260.636 534.527 260.317C536.433 260.042 532.977 256.371 536.774 256.644ZM522.635 273.631C523.325 275.809 528.324 277.026 529.707 275.129C531.082 273.222 521.838 271.111 522.635 273.631ZM509.014 296.605C504.36 296.067 501.257 298.78 496.598 297.418C491.945 296.067 484.98 297.445 485.738 298.641C486.43 299.731 490.565 299.866 495.221 300.001C499.877 300.133 504.014 298.093 507.118 297.961C510.22 297.826 513.672 297.148 509.014 296.605ZM545.909 271.732C541.425 270.642 533.775 271.573 534.53 273.362C535.217 274.993 538.837 274.315 542.466 274.315C546.086 274.315 547.979 276.354 549.879 276.354C551.775 276.354 550.398 272.816 545.909 271.732ZM455.047 295.108C454.878 293.476 448.144 294.973 444.874 293.887C441.6 292.795 448.493 291.849 450.735 290.755C452.975 289.667 449.355 289.263 443.84 290.626C438.315 291.982 431.942 287.635 431.768 289.534C431.599 291.439 421.764 288.719 419.355 287.362C416.942 286.005 407.63 284.232 405.729 286.816C403.836 289.404 402.196 287.087 402.977 289.536C403.492 291.168 405.729 290.217 407.284 290.217C408.835 290.217 408.145 292.53 410.382 292.798C412.626 293.074 420.045 294.704 420.733 293.479C421.42 292.259 428.32 293.479 431.768 295.654C435.216 297.826 443.145 297.963 446.251 297.557C449.353 297.15 452.803 299.187 454.009 297.828C455.219 296.474 457.456 300.003 460.908 297.963C464.356 295.927 455.221 296.738 455.047 295.108ZM590.741 265.474C588.157 265.613 587.809 269.148 585.569 269.148C583.33 269.148 580.224 272.816 576.086 273.907C571.946 274.993 571.774 264.532 569.876 262.492C567.98 260.451 557.639 258.821 556.606 261.128C555.569 263.443 551.974 262.219 551.598 264.121C551.258 265.888 552.463 265.345 554.702 265.345C556.939 265.345 556.939 266.699 557.978 268.469C559.015 270.238 565.222 269.014 567.29 268.879C569.358 268.744 569.701 271.051 566.771 270.238C563.842 269.425 563.842 271.322 561.772 270.917C559.704 270.506 556.939 270.642 558.32 271.597C559.704 272.546 561.936 273.497 561.936 275.673C561.936 277.847 565.91 277.44 565.91 275.673C565.91 273.91 567.978 276.215 571.943 277.028C575.911 277.847 573.154 279.068 577.117 279.208C581.081 279.345 590.046 281.656 593.494 283.688C596.951 285.728 594.528 287.087 596.771 288.994C599.011 290.893 599.698 293.07 596.595 293.07C593.494 293.07 590.221 295.513 591.08 296.737C591.941 297.959 602.12 296.192 604.526 296.192C606.11 296.192 607.7 298.408 610.736 300.011V271.003C603.279 269.022 592.868 265.364 590.741 265.474ZM516.098 299.927C515.568 300.21 514.95 300.426 514.205 300.559C513.973 301.066 513.744 301.63 513.345 301.873C512.862 302.171 512.03 301.573 511.44 301.045C508.107 302.136 506.353 305.277 508.667 306.252C510.892 307.186 514.133 304.702 515.986 302.953C516.287 302.667 516.554 302.404 516.77 302.175C516.898 302.042 517.105 301.903 517.354 301.761C517.524 301.657 517.717 301.557 517.934 301.458C517.396 300.866 516.706 300.283 516.098 299.927ZM468.155 264.938C471.257 263.441 471.945 260.583 471.598 257.869C471.257 255.147 479.183 255.016 480.394 253.924C481.602 252.839 478.665 251.07 476.426 250.254C474.184 249.441 476.077 247.674 474.527 246.588C472.976 245.504 470.392 242.643 472.634 242.513C474.872 242.375 471.077 239.928 472.976 239.114C473.232 239.003 473.529 238.887 473.84 238.767C472.707 238.323 471.717 238.025 471.08 238.025C468.327 238.025 461.773 237.483 462.112 241.011C462.463 244.548 458.323 243.186 458.665 245.091C459.011 246.996 456.594 246.996 456.94 249.441C457.292 251.89 455.224 250.8 451.769 252.163C448.322 253.518 449.702 251.344 446.254 251.344C442.807 251.344 442.46 252.704 440.39 253.247C438.317 253.787 434.184 252.976 432.804 253.787C431.427 254.604 429.357 251.89 427.977 251.89C427.275 251.89 426.664 250.401 426.231 248.944C425.984 248.909 425.76 248.885 425.563 248.897C423.326 249.037 419.612 253.702 421.769 255.287C424.358 257.189 423.67 260.177 424.871 261.674C426.081 263.171 429.883 263.438 429.883 266.297C429.883 269.15 433.151 273.632 435.395 272.411C437.635 271.19 439.359 272.957 440.048 274.175C440.739 275.399 446.082 273.224 447.811 273.495C449.532 273.77 454.873 274.587 455.227 276.215C455.568 277.846 460.395 276.075 463.671 275.129C466.944 274.175 465.047 266.426 468.155 264.938ZM481.082 302.991C482.116 304.213 485.045 304.213 486.256 305.031C487.464 305.844 491.774 307.611 491.774 305.304C491.774 302.991 479.934 301.63 481.082 302.991ZM472.457 296.33C471.774 297.555 468.837 297.826 467.114 296.872C465.39 295.927 463.253 298.162 464.356 299.318C464.874 299.865 468.494 302.038 472.804 300.408C477.118 298.78 480.045 300.271 481.081 298.506C482.115 296.738 473.15 295.108 472.457 296.33Z" fill="url(#paint29_radial_47_79)"/>
<path fill-rule="evenodd" clip-rule="evenodd" d="M513.322 300.682C512.654 300.723 512.024 300.854 511.44 301.047C512.029 301.575 512.86 302.174 513.346 301.876C513.745 301.632 513.974 301.068 514.206 300.562C513.96 300.603 513.708 300.642 513.429 300.664C513.394 300.666 513.364 300.677 513.322 300.682ZM521.6 297.149C519.267 297.055 518.336 298.571 516.607 299.649C516.445 299.747 516.27 299.836 516.098 299.927C516.706 300.283 517.397 300.866 517.94 301.459C521.278 299.894 529.78 297.946 530.225 297.012C530.741 295.927 525.052 297.278 521.6 297.149Z" fill="url(#paint30_radial_47_79)"/>
</g>
</g>
<defs>
<radialGradient id="paint0_radial_47_79" cx="0" cy="0" r="1" gradientUnits="userSpaceOnUse" gradientTransform="translate(528.16 212.66) rotate(90) scale(309.431 396.266)">
<stop stop-color="#00D492"/>
<stop offset="1" stop-color="#09090B"/>
</radialGradient>
<radialGradient id="paint1_radial_47_79" cx="0" cy="0" r="1" gradientUnits="userSpaceOnUse" gradientTransform="translate(528.16 212.66) rotate(90) scale(309.431 396.266)">
<stop stop-color="#00D492"/>
<stop offset="1" stop-color="#09090B"/>
</radialGradient>
<radialGradient id="paint2_radial_47_79" cx="0" cy="0" r="1" gradientUnits="userSpaceOnUse" gradientTransform="translate(528.16 212.66) rotate(90) scale(309.431 396.266)">
<stop stop-color="#00D492"/>
<stop offset="1" stop-color="#09090B"/>
</radialGradient>
<radialGradient id="paint3_radial_47_79" cx="0" cy="0" r="1" gradientUnits="userSpaceOnUse" gradientTransform="translate(528.16 212.66) rotate(90) scale(309.431 396.266)">
<stop stop-color="#00D492"/>
<stop offset="1" stop-color="#09090B"/>
</radialGradient>
<radialGradient id="paint4_radial_47_79" cx="0" cy="0" r="1" gradientUnits="userSpaceOnUse" gradientTransform="translate(528.16 212.66) rotate(90) scale(309.431 396.266)">
<stop stop-color="#00D492"/>
<stop offset="1" stop-color="#09090B"/>
</radialGradient>
<radialGradient id="paint5_radial_47_79" cx="0" cy="0" r="1" gradientUnits="userSpaceOnUse" gradientTransform="translate(528.16 212.66) rotate(90) scale(309.431 396.266)">
<stop stop-color="#00D492"/>
<stop offset="1" stop-color="#09090B"/>
</radialGradient>
<radialGradient id="paint6_radial_47_79" cx="0" cy="0" r="1" gradientUnits="userSpaceOnUse" gradientTransform="translate(528.16 212.66) rotate(90) scale(309.431 396.266)">
<stop stop-color="#00D492"/>
<stop offset="1" stop-color="#09090B"/>
</radialGradient>
<radialGradient id="paint7_radial_47_79" cx="0" cy="0" r="1" gradientUnits="userSpaceOnUse" gradientTransform="translate(528.16 212.66) rotate(90) scale(309.431 396.266)">
<stop stop-color="#00D492"/>
<stop offset="1" stop-color="#09090B"/>
</radialGradient>
<radialGradient id="paint8_radial_47_79" cx="0" cy="0" r="1" gradientUnits="userSpaceOnUse" gradientTransform="translate(528.16 212.66) rotate(90) scale(309.431 396.266)">
<stop stop-color="#00D492"/>
<stop offset="1" stop-color="#09090B"/>
</radialGradient>
<radialGradient id="paint9_radial_47_79" cx="0" cy="0" r="1" gradientUnits="userSpaceOnUse" gradientTransform="translate(528.16 212.66) rotate(90) scale(309.431 396.266)">
<stop stop-color="#00D492"/>
<stop offset="1" stop-color="#09090B"/>
</radialGradient>
<radialGradient id="paint10_radial_47_79" cx="0" cy="0" r="1" gradientUnits="userSpaceOnUse" gradientTransform="translate(528.16 212.66) rotate(90) scale(309.431 396.266)">
<stop stop-color="#00D492"/>
<stop offset="1" stop-color="#09090B"/>
</radialGradient>
<radialGradient id="paint11_radial_47_79" cx="0" cy="0" r="1" gradientUnits="userSpaceOnUse" gradientTransform="translate(528.16 212.66) rotate(90) scale(309.431 396.266)">
<stop stop-color="#00D492"/>
<stop offset="1" stop-color="#09090B"/>
</radialGradient>
<radialGradient id="paint12_radial_47_79" cx="0" cy="0" r="1" gradientUnits="userSpaceOnUse" gradientTransform="translate(528.16 212.66) rotate(90) scale(309.431 396.266)">
<stop stop-color="#00D492"/>
<stop offset="1" stop-color="#09090B"/>
</radialGradient>
<radialGradient id="paint13_radial_47_79" cx="0" cy="0" r="1" gradientUnits="userSpaceOnUse" gradientTransform="translate(528.16 212.66) rotate(90) scale(309.431 396.266)">
<stop stop-color="#00D492"/>
<stop offset="1" stop-color="#09090B"/>
</radialGradient>
<radialGradient id="paint14_radial_47_79" cx="0" cy="0" r="1" gradientUnits="userSpaceOnUse" gradientTransform="translate(528.16 212.66) rotate(90) scale(309.431 396.266)">
<stop stop-color="#00D492"/>
<stop offset="1" stop-color="#09090B"/>
</radialGradient>
<radialGradient id="paint15_radial_47_79" cx="0" cy="0" r="1" gradientUnits="userSpaceOnUse" gradientTransform="translate(528.16 212.66) rotate(90) scale(309.431 396.266)">
<stop stop-color="#00D492"/>
<stop offset="1" stop-color="#09090B"/>
</radialGradient>
<radialGradient id="paint16_radial_47_79" cx="0" cy="0" r="1" gradientUnits="userSpaceOnUse" gradientTransform="translate(528.16 212.66) rotate(90) scale(309.431 396.266)">
<stop stop-color="#00D492"/>
<stop offset="1" stop-color="#09090B"/>
</radialGradient>
<radialGradient id="paint17_radial_47_79" cx="0" cy="0" r="1" gradientUnits="userSpaceOnUse" gradientTransform="translate(528.16 212.66) rotate(90) scale(309.431 396.266)">
<stop stop-color="#00D492"/>
<stop offset="1" stop-color="#09090B"/>
</radialGradient>
<radialGradient id="paint18_radial_47_79" cx="0" cy="0" r="1" gradientUnits="userSpaceOnUse" gradientTransform="translate(528.16 212.66) rotate(90) scale(309.431 396.266)">
<stop stop-color="#00D492"/>
<stop offset="1" stop-color="#09090B"/>
</radialGradient>
<radialGradient id="paint19_radial_47_79" cx="0" cy="0" r="1" gradientUnits="userSpaceOnUse" gradientTransform="translate(528.16 212.66) rotate(90) scale(309.431 396.266)">
<stop stop-color="#00D492"/>
<stop offset="1" stop-color="#09090B"/>
</radialGradient>
<radialGradient id="paint20_radial_47_79" cx="0" cy="0" r="1" gradientUnits="userSpaceOnUse" gradientTransform="translate(528.16 212.66) rotate(90) scale(309.431 396.266)">
<stop stop-color="#00D492"/>
<stop offset="1" stop-color="#09090B"/>
</radialGradient>
<radialGradient id="paint21_radial_47_79" cx="0" cy="0" r="1" gradientUnits="userSpaceOnUse" gradientTransform="translate(528.16 212.66) rotate(90) scale(309.431 396.266)">
<stop stop-color="#00D492"/>
<stop offset="1" stop-color="#09090B"/>
</radialGradient>
<radialGradient id="paint22_radial_47_79" cx="0" cy="0" r="1" gradientUnits="userSpaceOnUse" gradientTransform="translate(528.16 212.66) rotate(90) scale(309.431 396.266)">
<stop stop-color="#00D492"/>
<stop offset="1" stop-color="#09090B"/>
</radialGradient>
<radialGradient id="paint23_radial_47_79" cx="0" cy="0" r="1" gradientUnits="userSpaceOnUse" gradientTransform="translate(528.16 212.66) rotate(90) scale(309.431 396.266)">
<stop stop-color="#00D492"/>
<stop offset="1" stop-color="#09090B"/>
</radialGradient>
<radialGradient id="paint24_radial_47_79" cx="0" cy="0" r="1" gradientUnits="userSpaceOnUse" gradientTransform="translate(528.16 212.66) rotate(90) scale(309.431 396.267)">
<stop stop-color="#00D492"/>
<stop offset="1" stop-color="#09090B"/>
</radialGradient>
<radialGradient id="paint25_radial_47_79" cx="0" cy="0" r="1" gradientUnits="userSpaceOnUse" gradientTransform="translate(528.16 212.66) rotate(90) scale(309.431 396.266)">
<stop stop-color="#00D492"/>
<stop offset="1" stop-color="#09090B"/>
</radialGradient>
<radialGradient id="paint26_radial_47_79" cx="0" cy="0" r="1" gradientUnits="userSpaceOnUse" gradientTransform="translate(528.16 212.66) rotate(90) scale(309.431 396.266)">
<stop stop-color="#00D492"/>
<stop offset="1" stop-color="#09090B"/>
</radialGradient>
<radialGradient id="paint27_radial_47_79" cx="0" cy="0" r="1" gradientUnits="userSpaceOnUse" gradientTransform="translate(528.16 212.66) rotate(90) scale(309.431 396.266)">
<stop stop-color="#00D492"/>
<stop offset="1" stop-color="#09090B"/>
</radialGradient>
<radialGradient id="paint28_radial_47_79" cx="0" cy="0" r="1" gradientUnits="userSpaceOnUse" gradientTransform="translate(528.16 212.66) rotate(90) scale(309.431 396.266)">
<stop stop-color="#00D492"/>
<stop offset="1" stop-color="#09090B"/>
</radialGradient>
<radialGradient id="paint29_radial_47_79" cx="0" cy="0" r="1" gradientUnits="userSpaceOnUse" gradientTransform="translate(528.16 212.66) rotate(90) scale(309.431 396.266)">
<stop stop-color="#00D492"/>
<stop offset="1" stop-color="#09090B"/>
</radialGradient>
<radialGradient id="paint30_radial_47_79" cx="0" cy="0" r="1" gradientUnits="userSpaceOnUse" gradientTransform="translate(528.16 212.66) rotate(90) scale(309.431 396.266)">
<stop stop-color="#00D492"/>
<stop offset="1" stop-color="#09090B"/>
</radialGradient>
<clipPath id="clip0_47_79">
<rect width="1057" height="427" fill="white"/>
</clipPath>
<clipPath id="clip1_47_79">
<rect width="763" height="596" fill="white" transform="translate(147 -85)"/>
</clipPath>
</defs>
</svg>
