<svg width="519" height="234" viewBox="0 0 519 234" fill="none" xmlns="http://www.w3.org/2000/svg">
<path fill-rule="evenodd" clip-rule="evenodd" d="M149.982 216.736C67.3318 221.213 66.8168 220.386 64.2235 214.223C62.8247 210.899 50.7328 206.792 37.3527 205.097C21.327 203.068 11.632 199.352 8.94256 194.21C6.69716 189.917 3.81075 186.422 2.52838 186.445C1.24602 186.467 0.111843 181.648 0.00792342 175.735C-0.142684 167.165 1.44325 164.955 7.82424 164.843C12.2271 164.766 15.7869 162.283 15.7349 159.327C15.683 156.37 13.5124 153.989 10.9115 154.035C4.07557 154.155 1.9146 143.559 8.59657 142.684C11.6845 142.28 15.0383 142.221 16.0494 142.553C17.0606 142.886 17.8454 140.739 17.7935 137.782C17.7415 134.826 14.958 132.455 11.608 132.514C8.25805 132.573 5.4746 130.202 5.42264 127.245C5.37068 124.289 6.48472 121.849 7.89819 121.825C9.25467 121.801 15.0309 116.925 20.9565 110.836C17.9 109.853 16.0481 108.52 16.022 107.03C15.97 104.074 20.0382 101.55 25.0625 101.421C27.8148 101.35 31.1065 100.766 34.0654 99.9028C37.4241 97.7706 41.1173 95.8463 45.2598 94.1017L46.2476 93.469L38.8753 89.9955C34.6573 88.0083 38.1386 86.383 48.7731 85.3106C51.3051 84.7589 52.295 81.842 51.4348 77.3634C51.2841 76.579 51.2008 75.8097 51.1821 75.0638C37.5 76.024 24.2071 77.7041 17.981 79.8269C4.93026 84.2766 1.17557 83.5741 3.93132 77.1983C6.28639 71.7494 23.4285 63.0485 30.9106 63.5043C34.8328 63.7432 38.7939 61.0607 39.7129 57.543C40.6319 54.0254 45.0232 51.3115 49.4713 51.5121C50.5681 51.5616 51.6822 51.4853 52.7585 51.3051C51.1107 47.8091 52.3551 46.3327 57.0999 41.3921C58.0107 40.4438 58.8759 39.3285 59.6594 38.1261C55.3513 38.1051 49.5427 38.3479 42.851 38.8757C4.63943 41.8897 17.0957 33.764 59.124 28.2603C60.5934 28.0678 62.0631 27.8696 63.5252 27.667C63.5301 27.5182 63.5313 27.3721 63.5288 27.229C63.4579 23.1949 66.8845 18.2828 71.1435 16.3133C77.7631 13.2522 78.1858 12.1484 74.0562 8.70874C71.3992 6.49573 102.668 4.2907 143.542 3.80868C184.416 3.3266 212.955 4.71133 206.961 6.88572C197.651 10.2633 197.133 11.063 203.402 12.3753C205.769 12.8708 220.897 13.2911 242.333 13.538C263.746 12.538 278.851 11.5864 281.199 11.008C287.418 9.47623 286.872 8.69524 277.449 5.64693C271.382 3.68449 299.855 1.29781 340.721 0.343349C381.587 -0.611178 412.913 0.493764 410.336 2.79877C406.33 6.38139 406.791 7.46967 413.514 10.2963C417.839 12.1149 421.437 16.9036 421.507 20.9377C421.51 21.0808 421.516 21.2268 421.526 21.3753C422.995 21.5264 424.47 21.6728 425.946 21.8135C468.141 25.837 480.876 33.52 442.582 31.8506C435.876 31.5583 430.062 31.5197 425.757 31.6921C426.583 32.8662 427.487 33.9504 428.43 34.8661C433.345 39.6369 434.641 41.0687 433.117 44.6204C434.199 44.7628 435.315 44.7998 436.41 44.7119C440.848 44.3551 445.332 46.913 446.374 50.3961C447.416 53.8793 451.469 56.421 455.38 56.0445C460.498 55.5517 470.311 59.205 476.79 63.2791C477.636 63.6928 478.288 64.1333 478.753 64.6017C480.74 66.046 482.212 67.4929 482.824 68.782C482.973 69.0956 483.105 69.3956 483.22 69.682C485.138 70.9552 487.415 71.7404 489.508 71.7036C495.416 71.5998 496.43 73.3974 495.528 82.3521C494.701 90.567 495.643 93.1044 499.494 93.0367C502.271 92.9879 503.851 94.5525 503.003 96.5133C502.76 97.0774 502.639 97.89 502.629 98.8592C512.257 100.139 518.553 101.971 517.998 104.175C517.377 106.641 512.03 110.358 505.869 112.687C505.942 113.671 505.701 114.12 505.12 113.812C502.997 112.683 496.822 118.635 492.987 124.276C492.874 126.445 491.645 129.227 489.799 131.793C489.969 133.971 491.843 134.478 494.076 132.886C497.233 130.638 497.096 131.575 493.532 136.621C492.747 137.733 491.93 139.078 491.145 140.524C493.703 140.284 496.866 139.904 500.69 139.397C513.385 137.711 521.275 137.732 518.222 139.443C514.106 141.748 513.367 144.256 515.361 149.141C517.428 154.202 514.851 157.246 504.247 162.267C489.327 169.332 479.919 176.837 478.716 182.212C481.461 184.151 483.449 186.891 483.495 189.494C483.503 189.978 482.684 190.427 481.193 190.828C481.149 197.335 473.363 204.951 461.53 208.935C453.902 211.504 449.313 213.912 451.334 214.285C454.341 214.842 454.276 215.975 450.977 220.534C448.761 223.596 440.299 225.225 432.174 224.154C423.353 222.991 417.452 224.321 417.528 227.454C417.688 233.963 378.611 236.045 346.927 231.217C300.695 224.172 289.174 223.381 296.87 227.778C302.972 231.264 301.77 232.037 290.089 232.14C282.28 232.208 275.367 230.566 274.726 228.492C274.17 226.692 271.942 225.216 267.87 224.045C262.213 225.957 258.508 227.718 257.989 228.917C257.32 230.465 254.032 231.781 250.682 231.84C243.013 231.975 244.941 226.976 254.034 223.152C254.89 222.791 255.728 222.41 256.515 222.024C244.343 220.667 225.769 220.262 199.774 220.702C170.77 221.193 154.868 219.944 149.982 216.736ZM470.986 96.8798C478.312 96.9559 485.587 97.2677 492.148 97.7809C492.447 93.7546 491.344 90.7354 489.685 91.0584C488.016 91.3835 480.353 92.197 472.657 92.8649C469.3 93.1567 466.781 93.477 464.996 93.9041C467.663 94.3143 469.864 95.4232 470.986 96.8798ZM44.4611 61.142C44.4382 59.8383 45.4896 57.2572 46.7976 55.4064C48.1055 53.5556 49.2205 54.6032 49.2756 57.7341C49.3306 60.8651 48.2793 63.4461 46.9393 63.4697C45.5992 63.4932 44.484 62.4458 44.4611 61.142ZM400.58 8.86011C399.7 5.91814 400.141 3.49067 401.56 3.46573C402.979 3.44078 404.183 5.83936 404.235 8.79589C404.287 11.7524 403.846 14.1799 403.255 14.1903C402.664 14.2007 401.46 11.8021 400.58 8.86011ZM330.464 6.08603C342.842 4.89254 363.125 4.53608 375.537 5.2939C387.949 6.05171 377.822 7.02812 353.032 7.4638C328.242 7.89947 318.086 7.27944 330.464 6.08603ZM441.755 54.1597C441.732 52.856 440.591 50.3135 439.218 48.5098C437.846 46.7061 436.769 47.7922 436.824 50.9231C436.879 54.0541 438.02 56.5966 439.36 56.5731C440.7 56.5495 441.778 55.4636 441.755 54.1597ZM84.0189 14.4235C84.7951 11.4525 84.2693 9.04198 82.85 9.06692C81.4309 9.09186 80.3124 11.5312 80.3643 14.4878C80.4163 17.4443 80.9423 19.8548 81.5332 19.8444C82.124 19.834 83.2427 17.3946 84.0189 14.4235ZM153.994 9.18742C141.582 8.42961 121.299 8.78607 108.921 9.97956C96.5434 11.173 106.699 11.793 131.489 11.3573C156.279 10.9216 166.406 9.94516 153.994 9.18742ZM85.4402 208.078C82.4028 206.85 77.469 206.937 74.4766 208.271C71.4842 209.605 73.9693 210.61 79.9993 210.504C86.0293 210.398 88.4778 209.307 85.4402 208.078Z" fill="url(#paint0_linear_720_10592)"/>
<defs>
<linearGradient id="paint0_linear_720_10592" x1="256.711" y1="1.79732" x2="260.828" y2="236.051" gradientUnits="userSpaceOnUse">
<stop stop-color="#00D492"/>
<stop offset="1" stop-color="#2B7FFF"/>
</linearGradient>
</defs>
</svg>
