<svg width="1529" height="158" viewBox="0 0 1529 158" fill="none" xmlns="http://www.w3.org/2000/svg">
<path d="M1181.19 100.825V56.6851H1170.56V50.2515H1200.31V56.6851H1189.69V100.825H1181.19Z" fill="white"/>
<path d="M1211.33 100.825V50.2515H1234.7V55.67H1219.83V71.9257H1230.45V77.3443H1219.83V95.4061H1234.7V100.825H1211.33Z" fill="white"/>
<path d="M1246.71 100.825V50.2515H1255.21V71.9257H1270.09V50.2515H1278.59V100.825H1270.09V77.3443H1255.21V100.825H1246.71Z" fill="white"/>
<path d="M1330.44 101.333C1327.71 101.333 1325.35 101.004 1323.35 100.347C1321.35 99.6855 1319.71 98.7933 1318.45 97.6626C1317.19 96.5355 1316.18 95.0942 1315.43 93.3458C1314.68 91.5974 1314.16 89.7515 1313.87 87.8116C1313.58 85.8754 1313.44 83.6466 1313.44 81.1251V68.3121C1313.44 55.9324 1319.21 49.7408 1330.77 49.7408C1333.54 49.7408 1335.94 50.0948 1337.97 50.7993C1340.01 51.5037 1341.66 52.5332 1342.92 53.8915C1344.18 55.2461 1345.13 56.8319 1345.78 58.6453C1346.42 60.4624 1346.8 62.5648 1346.91 64.9525C1346.93 65.2921 1346.94 65.8087 1346.94 66.5059H1338.44V64.9814C1338.42 63.7966 1338.35 62.7743 1338.22 61.9181C1338.1 61.062 1337.88 60.2203 1337.56 59.3931C1337.24 58.5659 1336.8 57.894 1336.25 57.3774C1335.69 56.8608 1334.96 56.4454 1334.04 56.1311C1333.12 55.8241 1332.03 55.6687 1330.77 55.6687C1329.04 55.6687 1327.59 55.9361 1326.4 56.4743C1325.22 57.0089 1324.31 57.7892 1323.68 58.8151C1323.05 59.841 1322.6 60.9717 1322.34 62.1999C1322.07 63.4317 1321.94 64.8695 1321.94 66.5059V82.7615C1321.94 83.9645 1321.98 85.0518 1322.07 86.0235C1322.16 86.9916 1322.31 87.9778 1322.52 88.9857C1322.73 89.9935 1323.04 90.8605 1323.45 91.5974C1323.86 92.3271 1324.37 92.9918 1324.98 93.5878C1325.58 94.1767 1326.35 94.6282 1327.27 94.9389C1328.18 95.2495 1329.24 95.4049 1330.44 95.4049C1331.85 95.4049 1333.08 95.1701 1334.12 94.7004C1335.16 94.2308 1335.99 93.624 1336.6 92.8798C1337.2 92.1393 1337.69 91.1928 1338.04 90.0441C1338.4 88.8954 1338.63 87.7575 1338.75 86.6268C1338.88 85.4997 1338.94 84.2101 1338.94 82.7615V80.9554H1330.44V75.5946H1347.44V100.823H1341.06L1338.94 95.4049C1337.28 99.3568 1334.44 101.333 1330.44 101.333Z" fill="white"/>
<path d="M1369.61 71.9257H1371.74C1375.28 71.9257 1377.94 71.2899 1379.71 70.022C1381.48 68.7504 1382.36 66.6769 1382.36 63.7979C1382.36 60.9188 1381.48 58.8453 1379.71 57.5738C1377.94 56.3022 1375.28 55.67 1371.74 55.67H1369.61V71.9257ZM1361.11 100.825V50.2515H1371.74C1378.07 50.2515 1382.84 51.2954 1386.05 53.3834C1389.26 55.4714 1390.86 58.9428 1390.86 63.7979C1390.86 66.807 1390.23 69.3284 1388.97 71.3622C1387.71 73.3923 1385.86 74.7867 1383.43 75.5381L1392.99 100.825H1384.55L1375.99 77.3443H1369.61V100.825H1361.11Z" fill="white"/>
<path d="M1413.85 93.1199C1414.99 94.6444 1417.05 95.4066 1420.04 95.4066C1423.03 95.4066 1425.09 94.6444 1426.23 93.1199C1427.37 91.5955 1427.95 89.3486 1427.95 86.3756V64.4196C1427.95 61.4828 1427.38 59.29 1426.25 57.8415C1425.12 56.3929 1423.05 55.6704 1420.04 55.6704C1417.03 55.6704 1414.96 56.3929 1413.83 57.8415C1412.71 59.29 1412.14 61.4828 1412.14 64.4196V86.3756C1412.14 89.3486 1412.71 91.5955 1413.85 93.1199ZM1420.04 101.334C1417.05 101.334 1414.49 100.948 1412.35 100.175C1410.22 99.4055 1408.52 98.2784 1407.26 96.7901C1406 95.3018 1405.08 93.557 1404.5 91.5522C1403.93 89.5509 1403.64 87.2209 1403.64 84.5694V66.2222C1403.64 63.5707 1403.93 61.2588 1404.5 59.2828C1405.08 57.3069 1406 55.591 1407.26 54.1316C1408.52 52.6722 1410.22 51.5776 1412.35 50.8407C1414.49 50.111 1417.05 49.7425 1420.04 49.7425C1425.84 49.7425 1430.02 51.155 1432.59 53.9762C1435.16 56.7975 1436.45 60.8831 1436.45 66.2222V84.5694C1436.45 87.1848 1436.15 89.4931 1435.56 91.498C1434.98 93.5028 1434.05 95.2512 1432.79 96.7468C1431.53 98.2423 1429.83 99.3802 1427.7 100.16C1425.56 100.944 1423.01 101.334 1420.04 101.334Z" fill="white"/>
<path d="M1474.06 100.487C1472.09 101.068 1469.81 101.361 1467.22 101.361C1464.63 101.361 1462.35 101.068 1460.38 100.487C1458.41 99.9051 1456.79 99.0887 1455.52 98.0447C1454.24 97.0007 1453.21 95.6894 1452.41 94.1072C1451.62 92.5286 1451.05 90.8199 1450.72 88.9848C1450.39 87.1498 1450.22 85.0763 1450.22 82.7607V50.2494H1458.72V82.7607C1458.72 84.3249 1458.76 85.6326 1458.84 86.6838C1458.91 87.7386 1459.12 88.862 1459.45 90.0577C1459.78 91.2534 1460.24 92.2071 1460.83 92.9223C1461.41 93.6376 1462.24 94.23 1463.32 94.6996C1464.39 95.1728 1465.69 95.4076 1467.22 95.4076C1468.75 95.4076 1470.05 95.1728 1471.12 94.6996C1472.2 94.23 1473.02 93.6376 1473.61 92.9223C1474.2 92.2071 1474.66 91.2534 1474.99 90.0577C1475.32 88.862 1475.53 87.7386 1475.6 86.6838C1475.68 85.6326 1475.72 84.3249 1475.72 82.7607V50.2494H1484.22V82.7607C1484.22 85.0763 1484.06 87.1498 1483.72 88.9848C1483.39 90.8199 1482.83 92.5286 1482.03 94.1072C1481.23 95.6894 1480.2 97.0007 1478.93 98.0447C1477.65 99.0887 1476.03 99.9051 1474.06 100.487Z" fill="white"/>
<path d="M1507.55 71.9257H1509.68C1511.6 71.9257 1513.18 71.8318 1514.41 71.6439C1515.64 71.4561 1516.72 71.1021 1517.66 70.5855C1518.6 70.0653 1519.28 69.3284 1519.69 68.3675C1520.1 67.4102 1520.3 66.1857 1520.3 64.701C1520.3 62.8948 1520.15 61.4318 1519.84 60.3119C1519.53 59.1921 1518.96 58.2746 1518.13 57.5593C1517.3 56.8441 1516.22 56.3528 1514.91 56.0782C1513.59 55.8037 1511.85 55.67 1509.68 55.67H1507.55V71.9257ZM1499.05 100.825V50.2515H1513.93C1523.84 50.2515 1528.8 55.0668 1528.8 64.701C1528.8 68.8227 1527.53 71.9582 1524.97 74.1112C1522.41 76.2678 1518.73 77.3443 1513.93 77.3443H1507.55V100.825H1499.05Z" fill="white"/>
<path d="M995.467 122.271C994.839 121.249 994.228 120.216 993.643 119.161C993.592 119.074 993.542 118.988 993.491 118.897C993.235 118.431 993.004 117.951 992.758 117.481C992.707 117.38 992.646 117.283 992.592 117.181C993.491 118.915 994.449 120.617 995.467 122.275V122.271Z" fill="white"/>
<path d="M991.696 115.421C991.53 115.085 991.374 114.742 991.216 114.398C990.804 113.524 990.403 112.639 990.023 111.747V111.743C990.796 113.557 991.635 115.33 992.534 117.072C992.476 116.96 992.429 116.84 992.371 116.728C992.148 116.291 991.913 115.861 991.696 115.421Z" fill="white"/>
<path d="M1030.08 153.119C1031.41 153.737 1032.75 154.333 1034.11 154.878C1032.75 154.333 1031.41 153.737 1030.08 153.119Z" fill="white"/>
<path d="M983.951 87.8516C983.864 86.9521 983.803 86.0454 983.745 85.1351C983.731 84.8966 983.716 84.6582 983.702 84.4162C983.694 84.3295 983.687 84.2392 983.684 84.1525C983.749 85.471 983.85 86.7787 983.976 88.0828C983.969 88.0033 983.958 87.9274 983.951 87.8516Z" fill="white"/>
<path d="M1003.9 133.603C1003.64 133.314 1003.38 133.029 1003.13 132.732C1002.32 131.797 1001.52 130.843 1000.76 129.868L1000.75 129.86L1000.75 129.857C1002.06 131.529 1003.44 133.151 1004.88 134.712C1004.73 134.542 1004.59 134.354 1004.43 134.181C1004.26 133.986 1004.07 133.798 1003.9 133.603Z" fill="white"/>
<path d="M984.078 89.0411C984.045 88.734 984.009 88.4233 983.98 88.1163C984.096 89.3264 984.244 90.5257 984.414 91.7214C984.288 90.8328 984.176 89.9369 984.078 89.0411Z" fill="white"/>
<path d="M1013.1 142.442C1013.03 142.38 1012.96 142.323 1012.89 142.265L1012.88 142.257C1014.2 143.352 1015.56 144.414 1016.95 145.426C1015.78 144.577 1014.64 143.688 1013.51 142.778C1013.38 142.666 1013.24 142.554 1013.1 142.442Z" fill="white"/>
<path d="M997.689 125.677C997.147 124.886 996.616 124.084 996.099 123.275C995.984 123.094 995.872 122.913 995.756 122.733L995.749 122.718L995.745 122.711C996.424 123.802 997.132 124.875 997.862 125.93C997.844 125.901 997.822 125.872 997.804 125.843L997.689 125.677Z" fill="white"/>
<path d="M987.787 105.816C987.455 104.823 987.133 103.822 986.837 102.814C986.779 102.608 986.703 102.406 986.646 102.2C987.509 105.245 988.546 108.215 989.749 111.097C989.192 109.764 988.683 108.41 988.199 107.041C988.054 106.636 987.924 106.224 987.787 105.816Z" fill="white"/>
<path d="M998.313 126.583C999.068 127.652 999.842 128.703 1000.65 129.733C999.849 128.714 999.083 127.67 998.332 126.612C998.328 126.601 998.321 126.594 998.313 126.583Z" fill="white"/>
<path d="M1038.63 156.517C1038.54 156.488 1038.46 156.459 1038.36 156.431C1038.36 156.427 1038.35 156.423 1038.34 156.42H1038.34C1038.33 156.416 1038.32 156.416 1038.31 156.412C1038.31 156.409 1038.3 156.409 1038.3 156.405C1040.03 156.99 1041.78 157.532 1043.56 157.998C1042.12 157.623 1040.71 157.193 1039.3 156.738C1039.08 156.665 1038.86 156.589 1038.63 156.517Z" fill="white"/>
<path d="M1005.84 135.71C1005.68 135.544 1005.53 135.367 1005.37 135.201C1005.21 135.035 1005.04 134.887 1004.89 134.72H1004.89L1004.89 134.717C1006.33 136.288 1007.85 137.802 1009.42 139.254C1008.47 138.372 1007.54 137.466 1006.64 136.541C1006.37 136.27 1006.11 135.988 1005.84 135.71Z" fill="white"/>
<path d="M983.578 80.1912L1030.93 47.1343H1018.84C1016.5 47.1343 1015.34 45.7797 1015.34 43.0704C1015.34 40.9897 1016.29 39.4291 1018.2 38.3852C1032.89 29.654 1045.68 17.3539 1056.57 1.48475C1057 0.863422 1057.48 0.393816 1057.99 6.70463e-05C1016.38 3.08503 983.578 37.7963 983.578 80.1912Z" fill="white"/>
<path d="M985.673 98.3376C985.579 97.9258 985.478 97.5176 985.388 97.1021C985.337 96.8673 985.276 96.6361 985.225 96.4013C985.182 96.1774 985.142 95.9534 985.099 95.7294C984.904 94.7469 984.731 93.7607 984.575 92.7673C985.074 95.9462 985.76 99.0637 986.62 102.109C986.558 101.889 986.511 101.661 986.454 101.441C986.172 100.415 985.915 99.3779 985.673 98.3376Z" fill="white"/>
<path d="M992.76 117.479C992.705 117.378 992.644 117.28 992.59 117.179C992.572 117.143 992.554 117.107 992.536 117.071C992.554 117.111 992.572 117.147 992.593 117.183C992.644 117.284 992.709 117.378 992.76 117.479Z" fill="white"/>
<path d="M986.451 101.438C986.513 101.658 986.556 101.886 986.621 102.106C986.628 102.139 986.635 102.168 986.646 102.2C986.704 102.406 986.78 102.605 986.838 102.811C986.704 102.356 986.578 101.897 986.451 101.438Z" fill="white"/>
<path d="M1034.45 88.2556L1034.75 51.5864C1034.75 48.6206 1033.48 47.1323 1030.93 47.1323L983.578 80.1892L1034.45 88.2556Z" fill="white"/>
<path d="M987.787 105.815C987.925 106.224 988.055 106.635 988.199 107.04C988.199 107.047 988.203 107.051 988.203 107.058C988.051 106.625 987.914 106.184 987.766 105.747C987.773 105.772 987.78 105.794 987.787 105.815Z" fill="white"/>
<path d="M985.386 97.0958V97.1031C985.476 97.5185 985.577 97.9267 985.671 98.3385C985.675 98.3529 985.678 98.3674 985.682 98.3818C985.584 97.952 985.48 97.5257 985.386 97.0958Z" fill="white"/>
<path d="M986.436 101.381C986.439 101.399 986.446 101.421 986.45 101.439C986.576 101.897 986.703 102.356 986.837 102.811C986.844 102.829 986.851 102.847 986.855 102.865C986.71 102.374 986.573 101.879 986.436 101.381Z" fill="white"/>
<path d="M986.856 102.865C986.852 102.847 986.845 102.829 986.838 102.811C987.134 103.822 987.456 104.823 987.788 105.816C987.781 105.791 987.773 105.769 987.766 105.748C987.448 104.794 987.141 103.833 986.856 102.865Z" fill="white"/>
<path d="M985.683 98.3807C985.679 98.3662 985.675 98.3518 985.672 98.3374C985.914 99.3777 986.17 100.411 986.452 101.437C986.445 101.419 986.441 101.401 986.434 101.379C986.167 100.389 985.918 99.3886 985.683 98.3807Z" fill="white"/>
<path d="M988.204 107.059C988.201 107.052 988.201 107.048 988.197 107.041C988.681 108.41 989.194 109.764 989.751 111.101C989.198 109.772 988.689 108.421 988.204 107.059Z" fill="white"/>
<path d="M985.226 96.4003C985.273 96.6351 985.338 96.8663 985.388 97.1047L985.385 97.0975C985.338 96.8627 985.273 96.6351 985.226 96.4003Z" fill="white"/>
<path d="M1004.88 134.712C1004.73 134.542 1004.59 134.354 1004.43 134.185V134.181C1004.59 134.354 1004.72 134.542 1004.88 134.712Z" fill="white"/>
<path d="M1012.68 142.091L1012.68 142.095L1012.68 142.091Z" fill="white"/>
<path d="M1012.68 142.094C1011.57 141.173 1010.47 140.23 1009.42 139.251C1010.47 140.23 1011.57 141.169 1012.68 142.094Z" fill="white"/>
<path d="M997.955 126.065C998.013 126.148 998.071 126.235 998.128 126.318C998.082 126.245 998.031 126.173 997.98 126.101C997.973 126.09 997.962 126.076 997.955 126.065Z" fill="white"/>
<path d="M1004.89 134.715L1004.89 134.718C1005.04 134.884 1005.21 135.033 1005.37 135.199C1005.05 134.863 1004.74 134.523 1004.43 134.184C1004.59 134.353 1004.73 134.541 1004.88 134.711L1004.89 134.715Z" fill="white"/>
<path d="M983.675 84.0182C983.678 84.0616 983.682 84.1085 983.682 84.1519C983.689 84.2422 983.693 84.3289 983.7 84.4192C983.693 84.2855 983.682 84.1519 983.675 84.0182Z" fill="white"/>
<path d="M983.701 84.4181C983.766 85.6463 983.856 86.8673 983.975 88.0811C983.979 88.0919 983.979 88.1027 983.979 88.1136C984.098 89.3237 984.246 90.5266 984.416 91.7187C984.467 92.0691 984.517 92.4195 984.572 92.7663C984.803 94.2257 985.081 95.6634 985.388 97.0939C985.478 97.5274 985.583 97.9537 985.684 98.38C985.919 99.3878 986.168 100.388 986.436 101.382C986.573 101.877 986.71 102.372 986.855 102.867C987.14 103.835 987.447 104.796 987.765 105.749C987.913 106.186 988.05 106.623 988.206 107.057C988.69 108.419 989.195 109.77 989.752 111.099L1034.45 88.2545L983.578 80.1916C983.578 81.474 983.614 82.7492 983.676 84.0172C983.683 84.1508 983.694 84.2845 983.701 84.4181Z" fill="white"/>
<path d="M984.078 89.0411C984.176 89.9369 984.288 90.8328 984.414 91.7214C984.244 90.5257 984.1 89.3264 983.98 88.1163C984.009 88.4233 984.045 88.734 984.078 89.0411Z" fill="white"/>
<path d="M983.747 85.1351C983.801 86.0454 983.866 86.9521 983.953 87.8516C983.96 87.9274 983.968 88.0069 983.978 88.0828C983.859 86.869 983.765 85.648 983.7 84.4198C983.718 84.6582 983.733 84.8966 983.747 85.1351Z" fill="white"/>
<path d="M984.573 92.7666C984.729 93.76 984.906 94.7462 985.097 95.7288C985.14 95.9527 985.18 96.1767 985.227 96.4007C985.274 96.6319 985.339 96.863 985.386 97.0942C985.083 95.6637 984.801 94.2224 984.573 92.7666Z" fill="white"/>
<path d="M992.59 117.179C992.644 117.281 992.705 117.374 992.76 117.476C992.63 117.23 992.499 116.981 992.373 116.731C992.431 116.84 992.474 116.959 992.532 117.071C992.554 117.107 992.572 117.143 992.59 117.179Z" fill="white"/>
<path d="M989.75 111.1L1034.11 128.902L1034.45 88.2554L989.75 111.1Z" fill="white"/>
<path d="M989.82 111.27C989.799 111.216 989.777 111.165 989.752 111.111L989.748 111.1L989.727 111.093C989.82 111.313 989.925 111.523 990.019 111.743C989.99 111.674 989.961 111.609 989.936 111.541C989.896 111.45 989.857 111.36 989.82 111.27Z" fill="white"/>
<path d="M989.874 111.392C989.856 111.352 989.838 111.309 989.82 111.269C989.86 111.359 989.896 111.45 989.936 111.54C989.925 111.508 989.911 111.479 989.9 111.45C989.889 111.428 989.882 111.41 989.874 111.392Z" fill="white"/>
<path d="M989.823 111.269C989.804 111.222 989.783 111.175 989.761 111.124C989.761 111.124 989.758 111.117 989.754 111.11C989.779 111.164 989.801 111.214 989.823 111.269Z" fill="white"/>
<path d="M989.875 111.392C989.857 111.349 989.839 111.305 989.817 111.262C989.802 111.222 989.788 111.183 989.77 111.146C989.766 111.139 989.763 111.132 989.763 111.125C989.781 111.172 989.802 111.222 989.82 111.269C989.839 111.309 989.857 111.352 989.875 111.392Z" fill="white"/>
<path d="M989.898 111.45C989.913 111.479 989.924 111.512 989.935 111.541C989.963 111.606 989.992 111.674 990.021 111.743C989.982 111.645 989.938 111.548 989.898 111.45Z" fill="white"/>
<path d="M990.02 111.741C989.959 111.6 989.901 111.456 989.84 111.315C989.854 111.347 989.869 111.384 989.883 111.416C989.93 111.524 989.974 111.633 990.02 111.741Z" fill="white"/>
<path d="M989.884 111.418C989.88 111.41 989.877 111.4 989.873 111.392C989.88 111.41 989.891 111.432 989.898 111.45C989.895 111.439 989.887 111.429 989.884 111.418Z" fill="white"/>
<path d="M989.875 111.393C989.879 111.4 989.882 111.411 989.886 111.418C989.872 111.382 989.857 111.35 989.843 111.314C989.835 111.296 989.828 111.278 989.817 111.263C989.839 111.306 989.857 111.35 989.875 111.393Z" fill="white"/>
<path d="M990.021 111.741C989.974 111.633 989.931 111.524 989.884 111.416C989.891 111.427 989.895 111.438 989.898 111.449C989.938 111.546 989.981 111.644 990.021 111.741Z" fill="white"/>
<path d="M995.469 122.274C995.555 122.411 995.642 122.549 995.729 122.689C995.646 122.556 995.563 122.426 995.48 122.292C995.476 122.285 995.472 122.281 995.469 122.274Z" fill="white"/>
<path d="M995.48 122.292C995.563 122.426 995.646 122.556 995.729 122.689C995.642 122.552 995.555 122.415 995.469 122.274C995.472 122.281 995.476 122.285 995.48 122.292Z" fill="white"/>
<path d="M995.729 122.688C995.733 122.696 995.741 122.703 995.744 122.71L995.748 122.718C995.741 122.707 995.737 122.699 995.729 122.688Z" fill="white"/>
<path d="M995.731 122.689C995.644 122.552 995.553 122.415 995.467 122.274H995.47C995.553 122.415 995.644 122.552 995.731 122.689Z" fill="white"/>
<path d="M995.75 122.718L995.731 122.688C995.739 122.699 995.743 122.707 995.75 122.718Z" fill="white"/>
<path d="M1000.7 129.802C1000.69 129.781 1000.67 129.755 1000.65 129.734C1000.67 129.766 1000.7 129.799 1000.72 129.831C1000.72 129.82 1000.71 129.813 1000.7 129.802Z" fill="white"/>
<path d="M1000.73 129.831L1000.72 129.828C1000.72 129.82 1000.71 129.809 1000.71 129.802C1000.71 129.813 1000.72 129.82 1000.73 129.831Z" fill="white"/>
<path d="M998.216 126.445C998.195 126.412 998.169 126.38 998.148 126.347C998.093 126.264 998.036 126.185 997.981 126.102C998.028 126.174 998.079 126.246 998.13 126.318C998.158 126.362 998.187 126.401 998.216 126.445Z" fill="white"/>
<path d="M997.955 126.064C997.962 126.075 997.973 126.089 997.98 126.1C998.038 126.183 998.092 126.263 998.147 126.346C998.082 126.252 998.02 126.158 997.955 126.064Z" fill="white"/>
<path d="M989.761 111.126C989.757 111.118 989.754 111.107 989.75 111.1L989.754 111.111L989.761 111.126Z" fill="white"/>
<path d="M1000.7 129.803C1000.71 129.81 1000.72 129.821 1000.72 129.828C1000.7 129.795 1000.67 129.766 1000.65 129.734C1000.67 129.756 1000.69 129.781 1000.7 129.803Z" fill="white"/>
<path d="M989.761 111.126C989.764 111.133 989.768 111.14 989.768 111.144C989.793 111.202 989.819 111.26 989.84 111.314C989.902 111.458 989.96 111.599 990.021 111.744C990.472 112.802 990.985 113.824 991.488 114.858C991.531 114.944 991.571 115.035 991.614 115.125C991.87 115.66 992.102 116.205 992.373 116.732C992.499 116.982 992.629 117.231 992.755 117.477L992.759 117.48C993.229 118.38 993.749 119.247 994.255 120.124C994.323 120.247 994.388 120.37 994.461 120.493C994.793 121.089 995.111 121.692 995.468 122.274C995.555 122.415 995.642 122.552 995.728 122.689C995.804 122.812 995.891 122.928 995.967 123.05C996.541 123.957 997.13 124.853 997.737 125.738C997.813 125.843 997.881 125.955 997.954 126.063C998.019 126.157 998.084 126.251 998.149 126.345C998.17 126.377 998.192 126.41 998.217 126.442V126.446C999.001 127.562 999.807 128.66 1000.64 129.733C1000.67 129.766 1000.7 129.798 1000.72 129.831C1001.9 131.33 1003.15 132.771 1004.43 134.184C1004.74 134.523 1005.05 134.863 1005.37 135.199C1006.67 136.59 1008.01 137.955 1009.42 139.252L1034.11 128.903L989.75 111.101C989.754 111.108 989.757 111.119 989.761 111.126Z" fill="white"/>
<path d="M994.463 120.492C994.39 120.369 994.325 120.246 994.257 120.127C994.282 120.174 994.311 120.224 994.34 120.275C994.38 120.347 994.423 120.419 994.463 120.492Z" fill="white"/>
<path d="M991.616 115.124C991.572 115.034 991.533 114.947 991.489 114.857C991.518 114.911 991.54 114.969 991.569 115.023C991.583 115.059 991.601 115.092 991.616 115.124Z" fill="white"/>
<path d="M1005.37 135.199C1006.68 136.593 1008.01 137.955 1009.41 139.252C1008.01 137.955 1006.68 136.59 1005.37 135.199Z" fill="white"/>
<path d="M995.968 123.051C995.892 122.928 995.805 122.813 995.729 122.69L995.748 122.719C995.82 122.831 995.896 122.939 995.968 123.051Z" fill="white"/>
<path d="M989.842 111.314C989.816 111.257 989.795 111.202 989.77 111.145C989.788 111.184 989.802 111.221 989.82 111.26C989.827 111.278 989.835 111.296 989.842 111.314Z" fill="white"/>
<path d="M1000.65 129.735C1000.67 129.76 1000.69 129.782 1000.71 129.803C1000.68 129.782 1000.67 129.756 1000.65 129.735Z" fill="white"/>
<path d="M992.371 116.729C992.104 116.206 991.869 115.66 991.616 115.126C991.721 115.346 991.822 115.574 991.93 115.797C992.075 116.108 992.216 116.422 992.371 116.729Z" fill="white"/>
<path d="M991.932 115.796C991.823 115.576 991.722 115.348 991.617 115.124C991.599 115.092 991.585 115.059 991.57 115.027C991.693 115.28 991.812 115.536 991.932 115.796Z" fill="white"/>
<path d="M997.74 125.737C997.133 124.856 996.54 123.96 995.97 123.05C996.002 123.104 996.035 123.151 996.067 123.205C996.613 124.058 997.169 124.903 997.74 125.737Z" fill="white"/>
<path d="M995.758 122.733C995.859 122.892 995.967 123.044 996.069 123.203C996.036 123.152 996 123.102 995.967 123.051C995.895 122.939 995.819 122.831 995.747 122.719L995.758 122.733Z" fill="white"/>
<path d="M998.218 126.444C998.247 126.484 998.272 126.523 998.301 126.563C998.294 126.556 998.286 126.545 998.283 126.538C998.261 126.505 998.239 126.473 998.218 126.444Z" fill="white"/>
<path d="M998.282 126.537C998.289 126.545 998.293 126.555 998.3 126.563C999.058 127.639 999.839 128.698 1000.65 129.734C999.806 128.661 999.004 127.56 998.217 126.444C998.238 126.476 998.26 126.505 998.282 126.537Z" fill="white"/>
<path d="M998.3 126.563C998.303 126.57 998.311 126.577 998.314 126.584C998.321 126.592 998.325 126.602 998.332 126.613C999.084 127.668 999.85 128.716 1000.65 129.734C999.839 128.698 999.058 127.636 998.3 126.563Z" fill="white"/>
<path d="M1000.65 129.734C999.807 128.661 998.998 127.563 998.218 126.447C999.002 127.56 999.807 128.661 1000.65 129.734Z" fill="white"/>
<path d="M997.956 126.064C997.923 126.02 997.894 125.973 997.865 125.93C997.894 125.977 997.927 126.02 997.956 126.064Z" fill="white"/>
<path d="M997.953 126.062C997.903 125.99 997.852 125.918 997.802 125.845C997.823 125.874 997.841 125.903 997.863 125.932C997.892 125.975 997.925 126.019 997.953 126.062Z" fill="white"/>
<path d="M997.804 125.844C997.855 125.916 997.905 125.988 997.956 126.06C997.88 125.956 997.815 125.844 997.739 125.735C997.168 124.904 996.612 124.055 996.07 123.203C996.634 124.092 997.205 124.977 997.804 125.844Z" fill="white"/>
<path d="M995.758 122.733C995.873 122.914 995.985 123.094 996.101 123.275C996.614 124.088 997.145 124.886 997.69 125.677L997.802 125.843C997.206 124.98 996.632 124.095 996.068 123.203C995.967 123.044 995.859 122.892 995.758 122.733Z" fill="white"/>
<path d="M1000.73 129.831L1000.73 129.842L1000.73 129.835L1000.73 129.831Z" fill="white"/>
<path d="M1000.73 129.836C1000.73 129.843 1000.74 129.847 1000.75 129.854C1000.74 129.847 1000.73 129.839 1000.73 129.832L1000.73 129.836Z" fill="white"/>
<path d="M1000.74 129.855L1000.75 129.859C1001.41 130.708 1002.14 131.506 1002.84 132.322C1003.37 132.94 1003.88 133.58 1004.43 134.183H1004.43C1003.15 132.774 1001.9 131.333 1000.73 129.834C1000.73 129.841 1000.74 129.848 1000.74 129.855Z" fill="white"/>
<path d="M1004.43 134.181C1003.89 133.578 1003.38 132.942 1002.84 132.321C1003.38 132.938 1003.89 133.578 1004.43 134.181Z" fill="white"/>
<path d="M1000.73 129.84C1000.73 129.84 1000.74 129.847 1000.74 129.854V129.851L1000.73 129.84Z" fill="white"/>
<path d="M1000.73 129.836L1000.73 129.84L1000.74 129.854C1000.74 129.847 1000.73 129.843 1000.73 129.836Z" fill="white"/>
<path d="M1000.75 129.856C1001.42 130.705 1002.15 131.5 1002.85 132.32C1002.14 131.504 1001.42 130.705 1000.75 129.856Z" fill="white"/>
<path d="M1000.75 129.859L1000.76 129.866C1001.52 130.841 1002.32 131.795 1003.13 132.734C1003.38 133.027 1003.64 133.312 1003.9 133.601C1004.07 133.8 1004.25 133.988 1004.43 134.183C1003.88 133.58 1003.38 132.937 1002.84 132.322C1002.15 131.499 1001.42 130.708 1000.75 129.859Z" fill="white"/>
<path d="M1000.74 129.854L1000.75 129.858H1000.74V129.854Z" fill="white"/>
<path d="M1005.84 135.71C1006.11 135.988 1006.37 136.27 1006.64 136.541C1007.54 137.466 1008.46 138.372 1009.41 139.254C1008.01 137.957 1006.68 136.592 1005.37 135.201C1005.53 135.367 1005.68 135.544 1005.84 135.71Z" fill="white"/>
<path d="M995.467 122.271C995.11 121.694 994.795 121.087 994.463 120.491C994.586 120.704 994.698 120.924 994.824 121.134C995.034 121.516 995.24 121.903 995.467 122.271Z" fill="white"/>
<path d="M994.826 121.135C994.699 120.922 994.584 120.706 994.461 120.492C994.421 120.42 994.381 120.344 994.338 120.272C994.504 120.561 994.667 120.847 994.826 121.135Z" fill="white"/>
<path d="M992.759 117.479C993.228 118.375 993.745 119.238 994.247 120.113C993.745 119.242 993.228 118.375 992.759 117.479Z" fill="white"/>
<path d="M994.824 121.135C995.045 121.507 995.24 121.901 995.467 122.27C995.24 121.898 995.034 121.518 994.824 121.135Z" fill="white"/>
<path d="M994.337 120.274C994.308 120.22 994.28 120.165 994.247 120.115C993.745 119.241 993.228 118.377 992.759 117.481C993.004 117.951 993.236 118.435 993.492 118.898C993.539 118.988 993.593 119.075 993.644 119.165C994.225 120.216 994.836 121.249 995.468 122.271C995.24 121.903 995.045 121.509 994.825 121.137C994.666 120.848 994.504 120.559 994.337 120.274Z" fill="white"/>
<path d="M994.247 120.114L994.254 120.125C993.749 119.247 993.228 118.38 992.759 117.48C993.228 118.373 993.741 119.24 994.247 120.114Z" fill="white"/>
<path d="M994.338 120.273C994.309 120.222 994.284 120.175 994.255 120.125L994.248 120.114C994.281 120.165 994.309 120.219 994.338 120.273Z" fill="white"/>
<path d="M990.023 111.744C990.475 112.802 990.995 113.821 991.49 114.858C990.988 113.825 990.475 112.806 990.023 111.744Z" fill="white"/>
<path d="M990.023 111.746C990.5 112.862 991.046 113.938 991.57 115.026C991.541 114.971 991.515 114.914 991.49 114.859C990.995 113.823 990.475 112.804 990.023 111.746Z" fill="white"/>
<path d="M992.372 116.729C992.217 116.422 992.076 116.108 991.932 115.797C992.083 116.105 992.217 116.422 992.372 116.729Z" fill="white"/>
<path d="M991.57 115.026C991.046 113.939 990.5 112.862 990.023 111.746C990.406 112.638 990.804 113.523 991.216 114.401C991.374 114.741 991.533 115.084 991.696 115.42C991.913 115.864 992.151 116.29 992.371 116.731C992.216 116.424 992.086 116.106 991.931 115.796C991.815 115.539 991.692 115.283 991.57 115.026Z" fill="white"/>
<path d="M1038.25 156.389C1038.27 156.393 1038.28 156.397 1038.29 156.404H1038.29C1038.28 156.4 1038.27 156.393 1038.25 156.389Z" fill="white"/>
<path d="M1038.29 156.404H1038.3C1038.28 156.4 1038.27 156.393 1038.25 156.389C1038.26 156.393 1038.28 156.4 1038.29 156.404Z" fill="white"/>
<path d="M1038.29 156.405H1038.29H1038.3C1038.3 156.409 1038.31 156.413 1038.31 156.413C1038.31 156.413 1038.3 156.409 1038.29 156.405Z" fill="white"/>
<path d="M1038.29 156.406L1038.25 156.391C1038.27 156.395 1038.28 156.402 1038.29 156.406Z" fill="white"/>
<path d="M1038.31 156.411C1038.32 156.414 1038.33 156.418 1038.34 156.418C1038.34 156.418 1038.33 156.414 1038.32 156.414C1038.31 156.411 1038.3 156.407 1038.29 156.404C1038.29 156.404 1038.31 156.407 1038.31 156.411Z" fill="white"/>
<path d="M1038.34 156.42H1038.34C1038.33 156.416 1038.32 156.412 1038.31 156.409C1038.32 156.412 1038.33 156.416 1038.34 156.42Z" fill="white"/>
<path d="M1029.1 152.65C1029.43 152.809 1029.75 152.964 1030.08 153.116V153.12C1029.75 152.964 1029.43 152.809 1029.1 152.65Z" fill="white"/>
<path d="M1012.79 142.187C1012.76 142.155 1012.72 142.126 1012.68 142.093C1012.72 142.126 1012.75 142.155 1012.79 142.187Z" fill="white"/>
<path d="M1012.68 142.095C1012.7 142.106 1012.71 142.12 1012.73 142.131C1012.75 142.149 1012.77 142.167 1012.79 142.185C1012.76 142.156 1012.72 142.124 1012.68 142.095Z" fill="white"/>
<path d="M1012.79 142.188C1012.82 142.206 1012.84 142.224 1012.86 142.242V142.245C1012.84 142.224 1012.82 142.206 1012.79 142.188Z" fill="white"/>
<path d="M1012.86 142.244C1012.84 142.226 1012.82 142.208 1012.79 142.189V142.186C1012.82 142.208 1012.84 142.226 1012.86 142.244Z" fill="white"/>
<path d="M1012.79 142.188C1012.82 142.206 1012.84 142.224 1012.86 142.245V142.242C1012.84 142.224 1012.82 142.206 1012.79 142.188Z" fill="white"/>
<path d="M1012.87 142.248C1012.88 142.252 1012.88 142.259 1012.89 142.263C1012.88 142.259 1012.87 142.252 1012.87 142.244H1012.86L1012.87 142.248Z" fill="white"/>
<path d="M1013.1 142.441C1013.03 142.383 1012.96 142.322 1012.89 142.264C1012.96 142.322 1013.03 142.38 1013.1 142.441Z" fill="white"/>
<path d="M1012.86 142.243L1012.88 142.254L1012.87 142.247L1012.86 142.243Z" fill="white"/>
<path d="M1012.87 142.248L1012.88 142.256L1012.89 142.263C1012.88 142.259 1012.88 142.252 1012.87 142.248Z" fill="white"/>
<path d="M1021.46 148.436C1021.4 148.4 1021.34 148.36 1021.28 148.324C1021.34 148.36 1021.4 148.4 1021.46 148.44L1021.46 148.436Z" fill="white"/>
<path d="M1021.45 148.427C1021.4 148.398 1021.36 148.373 1021.32 148.344C1021.3 148.333 1021.28 148.323 1021.26 148.312C1021.26 148.312 1021.28 148.319 1021.28 148.323C1021.34 148.362 1021.4 148.398 1021.46 148.438L1021.45 148.427Z" fill="white"/>
<path d="M1021.31 148.345C1021.36 148.374 1021.4 148.399 1021.44 148.428C1021.42 148.413 1021.4 148.399 1021.38 148.384C1021.36 148.37 1021.34 148.359 1021.31 148.345Z" fill="white"/>
<path d="M1021.46 148.436L1021.46 148.44C1021.46 148.436 1021.45 148.429 1021.45 148.425L1021.46 148.436Z" fill="white"/>
<path d="M1021.44 148.427C1021.45 148.431 1021.46 148.438 1021.46 148.438C1021.43 148.42 1021.4 148.402 1021.38 148.384C1021.4 148.398 1021.42 148.413 1021.44 148.427Z" fill="white"/>
<path d="M1021.26 148.309C1021.27 148.312 1021.27 148.32 1021.28 148.323C1021.28 148.323 1021.27 148.316 1021.26 148.312L1021.26 148.309Z" fill="white"/>
<path d="M1021 148.147L1020.99 148.14C1020.98 148.133 1020.97 148.126 1020.96 148.122L1020.97 148.126C1021.02 148.158 1021.07 148.191 1021.12 148.223C1021.08 148.198 1021.04 148.173 1021 148.147Z" fill="white"/>
<path d="M1021.11 148.212C1021.09 148.201 1021.07 148.187 1021.05 148.176C1021.03 148.165 1021.02 148.158 1021 148.147C1021.04 148.172 1021.08 148.197 1021.12 148.223L1021.13 148.23L1021.11 148.212Z" fill="white"/>
<path d="M1021.12 148.224C1021.07 148.191 1021.02 148.159 1020.97 148.126C1021.04 148.173 1021.11 148.22 1021.19 148.267L1021.13 148.231L1021.12 148.224Z" fill="white"/>
<path d="M1020.95 148.117L1020.97 148.128L1020.96 148.121L1020.95 148.117Z" fill="white"/>
<path d="M1021.25 148.307L1021.26 148.314C1021.28 148.325 1021.3 148.336 1021.31 148.343C1021.25 148.307 1021.2 148.271 1021.14 148.231C1021.17 148.256 1021.21 148.282 1021.25 148.307Z" fill="white"/>
<path d="M1021.13 148.23L1021.14 148.234C1021.19 148.27 1021.26 148.306 1021.31 148.346C1021.34 148.36 1021.36 148.371 1021.38 148.385C1021.34 148.364 1021.31 148.338 1021.27 148.317C1021.22 148.28 1021.16 148.248 1021.1 148.212L1021.13 148.23Z" fill="white"/>
<path d="M1021.25 148.307L1021.26 148.311L1021.26 148.315L1021.25 148.307Z" fill="white"/>
<path d="M1021.46 148.44C1021.4 148.4 1021.33 148.357 1021.27 148.317C1021.31 148.339 1021.34 148.36 1021.38 148.386C1021.41 148.404 1021.44 148.422 1021.46 148.44Z" fill="white"/>
<path d="M1021.14 148.232H1021.13L1021.19 148.264C1021.21 148.279 1021.23 148.293 1021.25 148.308C1021.22 148.282 1021.18 148.257 1021.14 148.232Z" fill="white"/>
<path d="M1021.19 148.264C1021.21 148.279 1021.24 148.293 1021.26 148.308H1021.25C1021.23 148.293 1021.21 148.279 1021.19 148.264Z" fill="white"/>
<path d="M1030 153.078C1029.75 152.962 1029.5 152.843 1029.25 152.724C1029.2 152.699 1029.15 152.677 1029.1 152.652C1029.43 152.811 1029.75 152.966 1030.08 153.118C1030.06 153.11 1030.04 153.1 1030.02 153.089C1030.01 153.085 1030 153.082 1030 153.078Z" fill="white"/>
<path d="M1029.3 152.746C1029.23 152.713 1029.16 152.684 1029.1 152.652C1029.15 152.677 1029.2 152.699 1029.25 152.724C1029.26 152.731 1029.28 152.738 1029.3 152.746Z" fill="white"/>
<path d="M1029.65 152.913C1029.47 152.826 1029.28 152.74 1029.1 152.649C1029.16 152.682 1029.23 152.714 1029.3 152.747C1029.41 152.801 1029.53 152.859 1029.65 152.913Z" fill="white"/>
<path d="M1029.3 152.745C1029.28 152.738 1029.26 152.73 1029.25 152.723C1029.5 152.842 1029.75 152.962 1030 153.077C1029.95 153.055 1029.9 153.03 1029.85 153.005C1029.66 152.918 1029.48 152.832 1029.3 152.745Z" fill="white"/>
<path d="M1029.85 153.007C1029.78 152.974 1029.71 152.945 1029.65 152.913C1029.53 152.855 1029.42 152.801 1029.3 152.747C1029.48 152.833 1029.66 152.92 1029.85 153.007Z" fill="white"/>
<path d="M1020.87 148.064C1020.89 148.079 1020.91 148.093 1020.94 148.104L1020.95 148.115L1020.96 148.122C1020.97 148.129 1020.98 148.133 1020.99 148.14C1020.9 148.086 1020.82 148.028 1020.73 147.974C1020.78 148.003 1020.82 148.035 1020.87 148.064Z" fill="white"/>
<path d="M1020.95 148.114L1020.95 148.117L1020.96 148.121L1020.95 148.114Z" fill="white"/>
<path d="M1020.55 147.858C1020.6 147.894 1020.65 147.927 1020.71 147.963L1020.73 147.974C1020.82 148.032 1020.91 148.086 1020.99 148.144L1021 148.147C1020.85 148.05 1020.69 147.956 1020.54 147.858H1020.55Z" fill="white"/>
<path d="M1021 148.147C1021.01 148.154 1021.03 148.161 1021.04 148.168C1020.87 148.064 1020.71 147.963 1020.54 147.854V147.858C1020.69 147.955 1020.85 148.049 1021 148.147Z" fill="white"/>
<path d="M1020.99 148.142L1021 148.149L1021 148.145L1020.99 148.142Z" fill="white"/>
<path d="M1021 148.148C1021.02 148.159 1021.03 148.166 1021.05 148.177L1021.04 148.17C1021.03 148.163 1021.01 148.156 1021 148.148Z" fill="white"/>
<path d="M1020.95 148.112L1020.95 148.115H1020.95L1020.95 148.112Z" fill="white"/>
<path d="M1020.91 148.088C1020.92 148.095 1020.93 148.103 1020.95 148.114L1020.94 148.106C1020.93 148.099 1020.92 148.095 1020.91 148.088Z" fill="white"/>
<path d="M1020.94 148.107L1020.95 148.114H1020.95C1020.94 148.114 1020.94 148.107 1020.94 148.107Z" fill="white"/>
<path d="M1020.87 148.065C1020.88 148.072 1020.9 148.08 1020.91 148.087C1020.92 148.094 1020.93 148.101 1020.94 148.105C1020.91 148.094 1020.89 148.08 1020.87 148.065Z" fill="white"/>
<path d="M1012.68 142.095C1012.72 142.127 1012.76 142.156 1012.8 142.189C1014.15 143.308 1015.53 144.396 1016.95 145.425C1018.12 146.271 1019.33 147.073 1020.54 147.856C1020.71 147.961 1020.87 148.066 1021.04 148.171C1021.05 148.178 1021.07 148.189 1021.08 148.2C1021.14 148.239 1021.21 148.279 1021.27 148.319C1021.34 148.359 1021.4 148.402 1021.47 148.442C1022.69 149.207 1023.94 149.955 1025.21 150.66C1026.48 151.36 1027.78 152.018 1029.1 152.65C1029.28 152.74 1029.46 152.827 1029.65 152.914C1029.79 152.982 1029.94 153.051 1030.09 153.12C1031.41 153.737 1032.74 154.333 1034.11 154.879C1035.47 155.424 1036.85 155.919 1038.25 156.392L1038.3 156.407C1040.03 156.989 1041.78 157.53 1043.56 158C1037.29 150.826 1034.11 141.621 1034.11 130.336V128.902L1009.42 139.252C1010.47 140.231 1011.57 141.174 1012.68 142.095Z" fill="white"/>
<path d="M1038.32 156.414C1038.33 156.418 1038.33 156.418 1038.34 156.421H1038.34C1040.06 156.999 1041.8 157.534 1043.56 158C1041.78 157.53 1040.03 156.989 1038.3 156.403C1038.3 156.407 1038.31 156.411 1038.32 156.414Z" fill="white"/>
<path d="M1021.08 148.198C1021.07 148.187 1021.05 148.18 1021.04 148.169L1021.05 148.177C1021.06 148.184 1021.07 148.191 1021.08 148.198Z" fill="white"/>
<path d="M1021.1 148.211L1021.08 148.196C1021.07 148.189 1021.06 148.182 1021.05 148.175C1021.07 148.185 1021.09 148.2 1021.1 148.211Z" fill="white"/>
<path d="M1021.27 148.316C1021.21 148.277 1021.14 148.237 1021.08 148.197L1021.1 148.212C1021.16 148.248 1021.21 148.28 1021.27 148.316Z" fill="white"/>
<path d="M1030 153.077C1030 153.081 1030.01 153.084 1030.02 153.088C1029.96 153.063 1029.91 153.034 1029.85 153.005C1029.9 153.03 1029.95 153.055 1030 153.077Z" fill="white"/>
<path d="M1030.02 153.089C1030.04 153.1 1030.06 153.107 1030.08 153.118C1029.94 153.049 1029.79 152.98 1029.65 152.912C1029.72 152.944 1029.78 152.973 1029.85 153.006C1029.91 153.035 1029.96 153.06 1030.02 153.089Z" fill="white"/>
<path d="M1038.34 156.421C1038.35 156.425 1038.36 156.425 1038.37 156.429C1040.07 157.003 1041.8 157.538 1043.56 158C1041.8 157.534 1040.06 156.999 1038.34 156.421Z" fill="white"/>
<path d="M1012.87 142.245C1014.19 143.343 1015.55 144.412 1016.95 145.424C1015.53 144.394 1014.15 143.307 1012.8 142.187C1012.82 142.209 1012.84 142.227 1012.87 142.245Z" fill="white"/>
<path d="M1012.89 142.265C1014.21 143.356 1015.56 144.418 1016.95 145.422C1015.55 144.411 1014.2 143.345 1012.86 142.247C1012.87 142.254 1012.88 142.258 1012.89 142.265Z" fill="white"/>
<path d="M1013.1 142.442C1014.36 143.468 1015.64 144.472 1016.95 145.426C1015.56 144.418 1014.21 143.356 1012.89 142.265C1012.96 142.323 1013.03 142.384 1013.1 142.442Z" fill="white"/>
<path d="M1038.63 156.517C1040.25 157.055 1041.89 157.561 1043.56 157.998C1041.8 157.54 1040.08 157.005 1038.37 156.431C1038.46 156.459 1038.54 156.488 1038.63 156.517Z" fill="white"/>
<path d="M1020.73 147.974L1020.72 147.97C1020.77 147.996 1020.81 148.021 1020.85 148.05C1020.86 148.053 1020.86 148.061 1020.87 148.064C1020.82 148.035 1020.78 148.003 1020.73 147.974Z" fill="white"/>
<path d="M1020.72 147.971L1020.73 147.974L1020.71 147.96L1020.72 147.971Z" fill="white"/>
<path d="M1020.85 148.049C1020.87 148.064 1020.89 148.074 1020.91 148.089C1020.9 148.082 1020.88 148.071 1020.87 148.064C1020.87 148.06 1020.86 148.053 1020.85 148.049Z" fill="white"/>
<path d="M1020.68 147.942C1020.64 147.913 1020.59 147.884 1020.54 147.859C1020.64 147.924 1020.75 147.985 1020.85 148.05C1020.81 148.021 1020.77 147.996 1020.72 147.971C1020.71 147.96 1020.69 147.953 1020.68 147.942Z" fill="white"/>
<path d="M1020.68 147.942C1020.69 147.953 1020.71 147.96 1020.72 147.971C1020.72 147.971 1020.71 147.963 1020.71 147.96C1020.7 147.953 1020.69 147.949 1020.68 147.942Z" fill="white"/>
<path d="M1039.3 156.736C1040.71 157.191 1042.13 157.621 1043.56 157.997C1041.9 157.559 1040.26 157.054 1038.63 156.516C1038.86 156.588 1039.08 156.664 1039.3 156.736Z" fill="white"/>
<path d="M1013.52 142.778C1014.64 143.685 1015.78 144.577 1016.95 145.422C1015.64 144.472 1014.36 143.468 1013.1 142.442C1013.24 142.554 1013.38 142.666 1013.52 142.778Z" fill="white"/>
<path d="M1020.54 147.857C1020.59 147.886 1020.64 147.915 1020.68 147.94C1020.69 147.947 1020.7 147.955 1020.71 147.962C1020.65 147.926 1020.6 147.893 1020.54 147.857Z" fill="white"/>
<path d="M1127.3 128.545C1127.44 128.347 1127.57 128.144 1127.71 127.942L1127.71 127.946C1127.57 128.144 1127.44 128.347 1127.3 128.545Z" fill="white"/>
<path d="M1130.6 123.447C1130.38 123.808 1130.16 124.17 1129.94 124.527C1130.43 123.729 1130.89 122.905 1131.36 122.089L1131.36 122.093C1131.1 122.541 1130.86 123.003 1130.6 123.447Z" fill="white"/>
<path d="M1124.49 132.291C1124.24 132.602 1123.99 132.906 1123.74 133.213C1124.56 132.201 1125.35 131.157 1126.13 130.102C1125.99 130.287 1125.85 130.478 1125.71 130.662C1125.3 131.204 1124.91 131.76 1124.49 132.291Z" fill="white"/>
<path d="M1132.95 119.255C1132.94 119.273 1132.93 119.291 1132.92 119.305C1132.74 119.656 1132.53 119.988 1132.35 120.335C1132.75 119.583 1133.14 118.821 1133.52 118.055C1133.33 118.453 1133.15 118.864 1132.95 119.255Z" fill="white"/>
<path d="M1117.27 140.232C1117.02 140.471 1116.76 140.702 1116.51 140.94C1116.1 141.323 1115.68 141.688 1115.26 142.06C1116.38 141.052 1117.47 140.012 1118.53 138.943C1118.11 139.369 1117.7 139.813 1117.27 140.232Z" fill="white"/>
<path d="M1108.47 147.573C1107.36 148.371 1106.23 149.137 1105.09 149.877C1104.73 150.105 1104.38 150.336 1104.02 150.56C1105.74 149.487 1107.41 148.36 1109.04 147.168C1108.85 147.305 1108.66 147.435 1108.47 147.573Z" fill="white"/>
<path d="M1136.83 110.452V110.455C1136.98 110.069 1137.14 109.693 1137.28 109.303C1137.2 109.52 1137.11 109.733 1137.03 109.95C1136.97 110.119 1136.89 110.282 1136.83 110.452Z" fill="white"/>
<path d="M1062.02 1.85925C1062.59 2.27828 1062.92 2.82737 1062.92 3.57152L1061.65 33.9552H1108.42C1111.18 33.9552 1112.56 36.8198 1112.56 42.549C1112.56 48.2746 1111.18 57.0816 1108.42 57.0816L1061.01 49.8641V86.1143L1139.59 63.0276C1131 28.0742 1099.57 2.10128 1062.02 1.85925Z" fill="white"/>
<path d="M1139.83 64.0561C1140.06 65.0423 1140.28 66.0357 1140.47 67.0327C1140.28 66.0321 1140.06 65.0423 1139.83 64.0561Z" fill="white"/>
<path d="M1120.53 136.905C1119.99 137.487 1119.42 138.036 1118.87 138.603C1120 137.451 1121.09 136.273 1122.15 135.056C1121.84 135.417 1121.54 135.782 1121.22 136.132C1120.99 136.389 1120.77 136.652 1120.53 136.905Z" fill="white"/>
<path d="M1135.49 113.829C1135.32 114.219 1135.15 114.609 1134.98 115C1134.86 115.271 1134.72 115.531 1134.6 115.805C1134.9 115.137 1135.22 114.472 1135.5 113.793C1135.5 113.804 1135.49 113.818 1135.49 113.829Z" fill="white"/>
<path d="M1140.12 99.2851C1139.82 100.701 1139.46 102.099 1139.08 103.486C1139.46 102.099 1139.81 100.701 1140.12 99.2851Z" fill="white"/>
<path d="M1139.61 63.024L1139.6 63.0276C1139.68 63.3672 1139.75 63.714 1139.83 64.0571C1139.75 63.714 1139.69 63.3636 1139.61 63.024Z" fill="white"/>
<path d="M1137.35 109.076C1137.81 107.768 1138.23 106.439 1138.62 105.102C1138.78 104.568 1138.94 104.029 1139.08 103.487C1139.46 102.1 1139.82 100.702 1140.12 99.2862C1140.2 98.9142 1140.26 98.5349 1140.34 98.1592C1140.6 96.8768 1140.82 95.5872 1141.02 94.2867C1141.08 93.9038 1141.14 93.5245 1141.19 93.138C1141.4 91.5847 1141.57 90.0133 1141.68 88.4311C1141.71 88.0662 1141.74 87.6978 1141.76 87.3329C1141.86 85.664 1141.93 83.9842 1141.93 82.2864C1141.93 80.7475 1141.88 79.2231 1141.79 77.7059C1141.76 77.2219 1141.72 76.7414 1141.68 76.261C1141.61 75.2242 1141.52 74.1947 1141.4 73.1724C1141.34 72.6197 1141.27 72.067 1141.19 71.5179C1141.06 70.557 1140.92 69.6034 1140.76 68.6533C1140.67 68.1115 1140.57 67.5696 1140.47 67.035C1140.28 66.0343 1140.06 65.0409 1139.83 64.0548C1139.75 63.7116 1139.68 63.3684 1139.59 63.0288L1061.02 86.1155L1137.35 109.083L1137.35 109.076Z" fill="white"/>
<path d="M1132.35 120.338C1132.03 120.93 1131.69 121.508 1131.36 122.09C1131.69 121.508 1132.03 120.927 1132.35 120.338Z" fill="white"/>
<path d="M1131.36 122.092V122.088C1131.69 121.506 1132.03 120.928 1132.35 120.336C1132.02 120.925 1131.7 121.51 1131.36 122.092Z" fill="white"/>
<path d="M1135.5 113.792C1135.97 112.694 1136.41 111.578 1136.83 110.455L1136.83 110.451C1136.41 111.574 1135.97 112.691 1135.5 113.792Z" fill="white"/>
<path d="M1133.52 118.058C1133.89 117.313 1134.25 116.562 1134.59 115.807L1134.6 115.803C1134.25 116.562 1133.89 117.31 1133.52 118.058Z" fill="white"/>
<path d="M1137.35 109.083C1137.32 109.152 1137.31 109.224 1137.28 109.296V109.304C1137.31 109.228 1137.34 109.156 1137.36 109.08L1137.35 109.083Z" fill="white"/>
<path d="M1137.28 109.286L1137.28 109.297C1137.3 109.224 1137.32 109.152 1137.35 109.084C1137.32 109.149 1137.31 109.221 1137.28 109.286Z" fill="white"/>
<path d="M1109.04 147.167C1110.3 146.242 1111.53 145.274 1112.73 144.28C1112.53 144.443 1112.32 144.591 1112.12 144.753C1111.11 145.577 1110.09 146.393 1109.04 147.167Z" fill="white"/>
<path d="M1123.1 133.948C1123.31 133.699 1123.53 133.464 1123.73 133.211C1123.55 133.443 1123.34 133.663 1123.15 133.894C1123.14 133.912 1123.12 133.93 1123.1 133.948Z" fill="white"/>
<path d="M1123.15 133.894C1123.34 133.662 1123.55 133.442 1123.73 133.211C1123.55 133.442 1123.34 133.666 1123.15 133.894Z" fill="white"/>
<path d="M1126.13 130.103C1126.52 129.59 1126.93 129.077 1127.3 128.546C1126.93 129.074 1126.53 129.583 1126.14 130.096L1126.13 130.103Z" fill="white"/>
<path d="M1125.71 130.664C1125.85 130.476 1125.99 130.288 1126.13 130.104L1126.14 130.097C1125.99 130.285 1125.85 130.476 1125.71 130.664Z" fill="white"/>
<path d="M1113.64 143.505C1113.73 143.425 1113.82 143.342 1113.91 143.266L1113.91 143.263C1113.82 143.342 1113.73 143.425 1113.64 143.505Z" fill="white"/>
<path d="M1127.3 128.545C1126.93 129.072 1126.52 129.574 1126.14 130.094C1126.53 129.581 1126.93 129.072 1127.3 128.545Z" fill="white"/>
<path d="M1129.94 124.528C1130.43 123.729 1130.89 122.909 1131.36 122.089C1131.7 121.508 1132.03 120.926 1132.35 120.334C1132.75 119.582 1133.14 118.824 1133.52 118.058C1133.89 117.31 1134.25 116.562 1134.6 115.804C1134.9 115.135 1135.21 114.471 1135.5 113.792C1135.97 112.69 1136.41 111.574 1136.83 110.45C1136.98 110.067 1137.14 109.692 1137.28 109.301C1137.28 109.294 1137.28 109.291 1137.28 109.283C1137.31 109.218 1137.32 109.15 1137.35 109.081L1061.02 126.225L1099.93 152.968C1101.32 152.209 1102.67 151.396 1104.01 150.558C1105.73 149.485 1107.41 148.362 1109.04 147.166C1110.09 146.393 1111.11 145.577 1112.12 144.753C1112.32 144.591 1112.53 144.443 1112.73 144.276C1113.04 144.024 1113.34 143.763 1113.64 143.503C1113.74 143.424 1113.82 143.341 1113.91 143.261C1115.51 141.885 1117.05 140.44 1118.53 138.945C1118.64 138.829 1118.76 138.713 1118.87 138.601C1120.34 137.102 1121.75 135.556 1123.1 133.949C1123.12 133.931 1123.13 133.912 1123.15 133.894C1123.34 133.663 1123.54 133.443 1123.73 133.212C1124.41 132.381 1125.06 131.521 1125.71 130.661C1125.85 130.474 1125.99 130.282 1126.14 130.094C1126.52 129.574 1126.93 129.072 1127.3 128.545C1127.44 128.346 1127.57 128.14 1127.71 127.941C1128.48 126.825 1129.22 125.684 1129.94 124.528Z" fill="white"/>
<path d="M1122.15 135.056C1122.47 134.684 1122.79 134.319 1123.1 133.947C1122.79 134.319 1122.47 134.687 1122.15 135.056Z" fill="white"/>
<path d="M1113.91 143.265C1114.37 142.871 1114.81 142.463 1115.25 142.062C1114.81 142.463 1114.37 142.871 1113.91 143.261L1113.91 143.265Z" fill="white"/>
<path d="M1118.87 138.601C1119.43 138.038 1119.99 137.485 1120.53 136.904C1120.77 136.651 1120.99 136.391 1121.22 136.13C1121.54 135.78 1121.84 135.415 1122.15 135.058C1122.47 134.689 1122.79 134.321 1123.1 133.949C1121.75 135.556 1120.34 137.102 1118.87 138.601Z" fill="white"/>
<path d="M1117.27 140.232C1117.7 139.813 1118.11 139.369 1118.53 138.943C1117.05 140.442 1115.51 141.887 1113.91 143.263C1114.37 142.869 1114.81 142.461 1115.26 142.06C1115.68 141.688 1116.1 141.323 1116.51 140.94C1116.76 140.702 1117.02 140.471 1117.27 140.232Z" fill="white"/>
<path d="M1108.47 147.573C1108.66 147.435 1108.85 147.305 1109.04 147.168C1107.41 148.364 1105.74 149.487 1104.02 150.56C1104.38 150.336 1104.73 150.105 1105.09 149.877C1106.23 149.137 1107.36 148.371 1108.47 147.573Z" fill="white"/>
<path d="M1125.71 130.664C1125.06 131.524 1124.42 132.38 1123.73 133.214C1123.99 132.907 1124.24 132.6 1124.49 132.293C1124.91 131.762 1125.3 131.206 1125.71 130.664Z" fill="white"/>
<path d="M1132.92 119.307C1132.93 119.289 1132.94 119.271 1132.95 119.256C1133.15 118.863 1133.33 118.454 1133.52 118.057C1133.14 118.823 1132.75 119.585 1132.35 120.336C1132.53 119.99 1132.74 119.657 1132.92 119.307Z" fill="white"/>
<path d="M1134.98 114.998C1135.16 114.611 1135.32 114.221 1135.49 113.827C1135.5 113.817 1135.5 113.802 1135.51 113.791C1135.21 114.471 1134.91 115.135 1134.6 115.803C1134.72 115.533 1134.86 115.269 1134.98 114.998Z" fill="white"/>
<path d="M1136.83 110.452C1136.89 110.282 1136.97 110.12 1137.03 109.95C1137.11 109.733 1137.2 109.52 1137.28 109.303C1137.14 109.693 1136.98 110.069 1136.83 110.452Z" fill="white"/>
<path d="M1130.6 123.447C1130.86 123.003 1131.1 122.541 1131.36 122.093C1130.89 122.909 1130.43 123.729 1129.94 124.527C1130.16 124.17 1130.38 123.808 1130.6 123.447Z" fill="white"/>
<path d="M1137.28 109.302V109.295L1137.28 109.287L1137.28 109.302Z" fill="white"/>
<path d="M1082.33 156.136C1088.6 156.136 1094.46 155.066 1099.93 152.968L1061.02 126.225C1061.02 146.169 1068.12 156.136 1082.33 156.136Z" fill="white"/>
<path d="M1061.01 86.116V126.228L1137.35 109.083L1061.01 86.116Z" fill="white"/>
<path d="M890.373 82.364C890.373 77.0358 886.454 74.6986 879.251 74.6986H864.794V90.0909H879.251C886.454 90.0909 890.373 87.7501 890.373 82.364ZM864.794 56.2574V71.1259H877.849C884.406 71.1259 888.21 68.6081 888.21 63.6917C888.21 58.7752 884.406 56.2574 877.849 56.2574H864.794ZM894.708 82.7144C894.708 89.6827 889.553 93.6599 879.312 93.6599H860.463V52.6848H878.142C887.27 52.6848 892.541 56.55 892.541 63.222C892.541 67.9073 890.023 71.0067 886.277 72.5311C891.544 73.7015 894.708 77.155 894.708 82.7144Z" fill="white"/>
<path d="M928.994 62.8721L913.598 97.3486C911.022 103.378 907.746 105.31 903.353 105.31C900.489 105.31 897.736 104.371 895.861 102.5L897.794 99.3968C899.315 100.921 901.19 101.738 903.415 101.738C906.164 101.738 908.039 100.452 909.794 96.5864L911.138 93.6026L897.382 62.8721H901.717L913.305 89.0366L924.894 62.8721H928.994Z" fill="white"/>
<path d="M401.236 84.4736L351.634 139.942H335.415L393.386 75.3307L340.504 16.2395H356.724L401.236 66.2709L445.747 16.2395H461.967L409.085 75.3307L467.057 139.942H450.837L401.236 84.4736Z" fill="white"/>
<path d="M621.435 85.3354V16.2379H634.201V85.3354C634.201 120.617 613.759 141.667 575.197 141.667C536.552 141.667 516.105 120.617 516.105 85.3354V16.2379H528.872V85.3354C528.872 114.061 542.761 130.45 575.197 130.45C607.289 130.45 621.435 114.061 621.435 85.3354Z" fill="white"/>
<path d="M789.099 35.1306C785.562 33.4039 781.509 31.8542 776.936 30.4706C769.086 28.1443 758.043 25.7276 744.327 25.7276C717.844 25.7276 704.732 31.9373 704.732 47.0334C704.732 59.8031 715.341 65.2361 747.087 69.636C782.542 74.4658 801.608 84.3022 801.608 106.901C801.608 129.677 784.182 141.667 747.607 141.667C726.384 141.667 711.635 138.044 702.145 134.594C696.535 132.524 692.052 130.107 688.516 127.434L695.502 118.031C699.125 120.361 703.525 122.431 708.702 124.241C717.415 127.347 730.437 130.454 747.607 130.454C777.886 130.454 788.669 120.704 788.669 106.901C788.669 92.7552 776.676 86.2854 744.93 81.8856C706.198 76.6223 691.792 65.7527 691.792 47.0334C691.792 28.3141 704.992 14.5148 744.327 14.5148C761.926 14.5148 774.692 17.3613 783.319 20.1212C788.322 21.7612 792.548 23.6577 796.085 25.7276L789.099 35.1306Z" fill="white"/>
<path d="M99.0332 116.367L19.3334 21.2932C16.6494 18.089 12.683 16.2395 8.50353 16.2395C3.80744 16.2395 0 20.0433 0 24.7394V139.942H12.7697V32.1954L99.0332 135.105V116.367Z" fill="white"/>
<path d="M105.418 16.2378V64.6436V123.98V139.94H118.185V16.2378H105.418Z" fill="white"/>
<path d="M190.439 71.1021H177.673V82.3149H190.439H215.021H284.552V71.1021H215.021H190.439Z" fill="white"/>
<path d="M190.439 27.4536H215.021H284.552V16.2408H177.673V27.4536H190.439Z" fill="white"/>
<path d="M215.021 128.727H190.439H177.673V139.94H285.416V128.727H215.021Z" fill="white"/>
</svg>
