<svg width="438" height="127" viewBox="0 0 438 127" fill="none" xmlns="http://www.w3.org/2000/svg">
<path d="M158.746 80.9961V45.5371H150.211V40.3688H174.109V45.5371H165.574V80.9961H158.746Z" fill="white"/>
<path d="M182.959 80.9961V40.3688H201.738V44.7217H189.787V57.7805H198.322V62.1334H189.787V76.6432H201.738V80.9961H182.959Z" fill="white"/>
<path d="M211.387 80.9961V40.3688H218.215V57.7805H230.166V40.3688H236.994V80.9961H230.166V62.1334H218.215V80.9961H211.387Z" fill="white"/>
<path d="M278.645 81.4043C276.457 81.4043 274.559 81.1402 272.952 80.6121C271.341 80.081 270.029 79.3642 269.017 78.4559C268.004 77.5505 267.191 76.3926 266.588 74.9881C265.984 73.5835 265.566 72.1006 265.334 70.5423C265.105 68.9868 264.989 67.1963 264.989 65.1708V54.8776C264.989 44.9326 269.629 39.9586 278.912 39.9586C281.135 39.9586 283.062 40.243 284.699 40.8089C286.336 41.3748 287.662 42.2018 288.674 43.293C289.687 44.3812 290.45 45.6552 290.967 47.1119C291.484 48.5716 291.785 50.2606 291.875 52.1787C291.893 52.4515 291.901 52.8665 291.901 53.4266H285.073V52.202C285.056 51.2501 284.998 50.4289 284.899 49.7411C284.8 49.0533 284.623 48.3772 284.368 47.7126C284.11 47.0481 283.756 46.5083 283.315 46.0933C282.868 45.6784 282.276 45.3446 281.539 45.0922C280.802 44.8455 279.925 44.7207 278.912 44.7207C277.525 44.7207 276.356 44.9355 275.404 45.3679C274.452 45.7974 273.724 46.4242 273.219 47.2483C272.711 48.0725 272.351 48.9808 272.136 49.9675C271.924 50.957 271.817 52.112 271.817 53.4266V66.4854C271.817 67.4517 271.852 68.3252 271.924 69.1058C271.994 69.8835 272.113 70.6758 272.284 71.4854C272.453 72.2951 272.699 72.9915 273.03 73.5835C273.358 74.1697 273.767 74.7037 274.258 75.1825C274.745 75.6555 275.36 76.0183 276.097 76.2678C276.835 76.5174 277.685 76.6422 278.645 76.6422C279.783 76.6422 280.77 76.4536 281.605 76.0763C282.441 75.6991 283.103 75.2115 283.593 74.6137C284.081 74.0188 284.47 73.2585 284.754 72.3357C285.038 71.4129 285.23 70.4988 285.326 69.5905C285.424 68.685 285.474 67.649 285.474 66.4854V65.0344H278.645V60.7279H292.302V80.9951H287.18L285.474 76.6422C284.139 79.8169 281.864 81.4043 278.645 81.4043Z" fill="white"/>
<path d="M310.115 57.7805H311.822C314.666 57.7805 316.801 57.2697 318.223 56.2512C319.645 55.2297 320.359 53.5639 320.359 51.2511C320.359 48.9382 319.645 47.2725 318.223 46.251C316.801 45.2295 314.666 44.7217 311.822 44.7217H310.115V57.7805ZM303.287 80.9961V40.3688H311.822C316.906 40.3688 320.739 41.2074 323.319 42.8848C325.896 44.5621 327.188 47.3509 327.188 51.2511C327.188 53.6684 326.68 55.694 325.667 57.3278C324.651 58.9587 323.168 60.0788 321.212 60.6824L328.894 80.9961H322.118L315.237 62.1334H310.115V80.9961H303.287Z" fill="white"/>
<path d="M345.653 74.8067C346.567 76.0313 348.227 76.6437 350.627 76.6437C353.027 76.6437 354.684 76.0313 355.601 74.8067C356.518 73.5821 356.976 71.7771 356.976 69.3888V51.7507C356.976 49.3914 356.521 47.6299 355.615 46.4663C354.707 45.3026 353.044 44.7222 350.627 44.7222C348.21 44.7222 346.547 45.3026 345.639 46.4663C344.733 47.6299 344.28 49.3914 344.28 51.7507V69.3888C344.28 71.7771 344.736 73.5821 345.653 74.8067ZM350.627 81.4058C348.227 81.4058 346.167 81.0953 344.452 80.4742C342.737 79.8561 341.373 78.9507 340.357 77.7551C339.344 76.5595 338.607 75.1579 338.146 73.5473C337.681 71.9396 337.452 70.0678 337.452 67.9378V53.1988C337.452 51.0688 337.681 49.2115 338.146 47.6241C338.607 46.0368 339.344 44.6583 340.357 43.486C341.373 42.3136 342.737 41.4343 344.452 40.8423C346.167 40.2561 348.227 39.9601 350.627 39.9601C355.285 39.9601 358.645 41.0948 360.711 43.3612C362.772 45.6276 363.805 48.9097 363.805 53.1988V67.9378C363.805 70.0388 363.567 71.8932 363.097 73.5037C362.627 75.1143 361.884 76.5189 360.871 77.7203C359.855 78.9217 358.491 79.8358 356.776 80.4626C355.058 81.0924 353.01 81.4058 350.627 81.4058Z" fill="white"/>
<path d="M394.022 80.7245C392.437 81.1917 390.606 81.4268 388.528 81.4268C386.447 81.4268 384.613 81.1917 383.032 80.7245C381.447 80.2573 380.147 79.6014 379.126 78.7628C378.101 77.9241 377.271 76.8707 376.63 75.5996C375.992 74.3315 375.536 72.9589 375.269 71.4847C375.005 70.0105 374.872 68.3448 374.872 66.4846V40.367H381.7V66.4846C381.7 67.7412 381.729 68.7917 381.793 69.6361C381.854 70.4835 382.019 71.386 382.286 72.3466C382.553 73.3071 382.922 74.0732 383.392 74.6478C383.862 75.2224 384.529 75.6983 385.394 76.0756C386.256 76.4557 387.301 76.6443 388.528 76.6443C389.753 76.6443 390.797 76.4557 391.662 76.0756C392.524 75.6983 393.189 75.2224 393.662 74.6478C394.132 74.0732 394.503 73.3071 394.767 72.3466C395.034 71.386 395.2 70.4835 395.261 69.6361C395.325 68.7917 395.356 67.7412 395.356 66.4846V40.367H402.185V66.4846C402.185 68.3448 402.051 70.0105 401.784 71.4847C401.517 72.9589 401.065 74.3315 400.423 75.5996C399.782 76.8707 398.952 77.9241 397.93 78.7628C396.906 79.6014 395.603 80.2573 394.022 80.7245Z" fill="white"/>
<path d="M420.928 57.7805H422.634C424.181 57.7805 425.449 57.705 426.436 57.5541C427.422 57.4032 428.293 57.1188 429.05 56.7039C429.805 56.286 430.348 55.694 430.676 54.9221C431.006 54.153 431.172 53.1693 431.172 51.9766C431.172 50.5256 431.044 49.3503 430.797 48.4507C430.548 47.5511 430.089 46.814 429.422 46.2394C428.757 45.6648 427.893 45.2702 426.836 45.0496C425.777 44.8291 424.378 44.7217 422.634 44.7217H420.928V57.7805ZM414.1 80.9961V40.3688H426.05C434.016 40.3688 438 44.2371 438 51.9766C438 55.2877 436.973 57.8066 434.918 59.5362C432.864 61.2686 429.907 62.1334 426.05 62.1334H420.928V80.9961H414.1Z" fill="white"/>
<path d="M9.55116 98.2251C9.04622 97.4039 8.5558 96.5739 8.08568 95.7265C8.04505 95.6569 8.00442 95.5873 7.9638 95.5147C7.75776 95.1404 7.57203 94.7544 7.3747 94.3771C7.33407 94.2959 7.28474 94.2175 7.24121 94.1363C7.9638 95.5292 8.73281 96.896 9.55116 98.228V98.2251Z" fill="white"/>
<path d="M6.52134 92.7217C6.38785 92.4518 6.26306 92.1761 6.13538 91.9004C5.80456 91.1981 5.48244 90.4872 5.17773 89.7704V89.7675C5.79875 91.2243 6.472 92.6491 7.19459 94.0479C7.14816 93.9579 7.11043 93.8621 7.064 93.7722C6.88408 93.421 6.69546 93.0757 6.52134 92.7217Z" fill="white"/>
<path d="M37.3599 123.006C38.422 123.502 39.4986 123.981 40.5926 124.419C39.4986 123.981 38.4249 123.502 37.3599 123.006Z" fill="white"/>
<path d="M0.299705 70.574C0.230059 69.8515 0.180725 69.1231 0.134294 68.3918C0.122686 68.2002 0.111079 68.0087 0.0994707 67.8143C0.0936668 67.7446 0.0878629 67.6721 0.0849609 67.6024C0.137196 68.6617 0.218451 69.7122 0.320019 70.7598C0.314215 70.6959 0.305509 70.635 0.299705 70.574Z" fill="white"/>
<path d="M16.324 107.328C16.1179 107.096 15.909 106.866 15.7058 106.628C15.0558 105.877 14.4174 105.111 13.7993 104.327L13.7964 104.321L13.7935 104.319C14.8498 105.662 15.9583 106.965 17.1162 108.219C16.9885 108.082 16.8782 107.931 16.7534 107.792C16.6113 107.635 16.4633 107.485 16.324 107.328Z" fill="white"/>
<path d="M0.401595 71.5299C0.375477 71.2832 0.346458 71.0336 0.323242 70.787C0.416105 71.7591 0.535085 72.7226 0.671476 73.6831C0.569908 72.9692 0.479948 72.2495 0.401595 71.5299Z" fill="white"/>
<path d="M23.7185 114.428C23.6605 114.379 23.6024 114.332 23.5444 114.286L23.5386 114.28C24.6036 115.159 25.6889 116.013 26.8091 116.825C25.8688 116.143 24.9518 115.429 24.0493 114.698C23.939 114.608 23.8288 114.518 23.7185 114.428Z" fill="white"/>
<path d="M11.3357 100.961C10.9004 100.325 10.4738 99.6812 10.0588 99.0311C9.96594 98.886 9.87598 98.7409 9.78312 98.5958L9.77732 98.5842L9.77441 98.5784C10.32 99.4548 10.8888 100.317 11.475 101.164C11.4604 101.141 11.443 101.118 11.4285 101.094L11.3357 100.961Z" fill="white"/>
<path d="M3.38137 85.0059C3.11439 84.2078 2.85612 83.404 2.61816 82.5944C2.57173 82.4289 2.51079 82.2664 2.46436 82.101C3.15792 84.5474 3.99078 86.9328 4.95713 89.2485C4.51023 88.1777 4.10106 87.0895 3.71219 85.9896C3.59612 85.6646 3.49165 85.3338 3.38137 85.0059Z" fill="white"/>
<path d="M11.8374 101.688C12.4439 102.547 13.0649 103.392 13.7121 104.219C13.0707 103.4 12.4555 102.562 11.8519 101.711C11.849 101.703 11.8432 101.697 11.8374 101.688Z" fill="white"/>
<path d="M44.2269 125.736C44.1544 125.713 44.0847 125.69 44.0122 125.666C44.0064 125.663 44.0006 125.661 43.9948 125.658H43.9919C43.9861 125.655 43.9774 125.655 43.9687 125.652C43.9658 125.649 43.9629 125.649 43.96 125.646C45.35 126.116 46.7574 126.551 48.1881 126.926C47.0302 126.624 45.8927 126.279 44.7638 125.913C44.5839 125.855 44.4069 125.794 44.2269 125.736Z" fill="white"/>
<path d="M17.8833 109.021C17.7556 108.887 17.6337 108.745 17.506 108.612C17.3813 108.478 17.2449 108.359 17.123 108.226H17.1201L17.1172 108.223C18.2809 109.485 19.4968 110.701 20.7562 111.868C19.993 111.16 19.253 110.431 18.5246 109.688C18.307 109.471 18.098 109.244 17.8833 109.021Z" fill="white"/>
<path d="M0 64.4204L38.0417 37.8646H28.3289C26.4513 37.8646 25.514 36.7764 25.514 34.6C25.514 32.9284 26.2801 31.6748 27.8094 30.8361C39.6145 23.8221 49.8904 13.941 58.6397 1.19268C58.9793 0.693549 59.3681 0.316297 59.7773 -1.58998e-05C26.3526 2.47825 0 30.3631 0 64.4204Z" fill="white"/>
<path d="M1.68297 78.9982C1.60752 78.6674 1.52627 78.3395 1.45372 78.0057C1.41309 77.8171 1.36376 77.6314 1.32313 77.4427C1.28831 77.2628 1.25639 77.0829 1.22156 76.903C1.06486 76.1137 0.925565 75.3214 0.800781 74.5234C1.20125 77.0771 1.75262 79.5815 2.44329 82.0278C2.39395 81.8508 2.35623 81.668 2.3098 81.491C2.08344 80.6668 1.87741 79.834 1.68297 78.9982Z" fill="white"/>
<path d="M7.37594 94.375C7.33241 94.2937 7.28308 94.2154 7.23955 94.1341C7.22504 94.1051 7.21053 94.0761 7.19602 94.0471C7.21053 94.079 7.22504 94.108 7.24245 94.137C7.28308 94.2183 7.33531 94.2937 7.37594 94.375Z" fill="white"/>
<path d="M2.30811 81.4886C2.35744 81.6656 2.39226 81.8484 2.4445 82.0254C2.4503 82.0515 2.45611 82.0748 2.46481 82.1009C2.51124 82.2663 2.57218 82.4259 2.61861 82.5913C2.51124 82.2257 2.40967 81.8571 2.30811 81.4886Z" fill="white"/>
<path d="M40.8653 70.8989L41.1061 41.4412C41.1061 39.0587 40.0847 37.8631 38.0388 37.8631L0 64.4189L40.8653 70.8989Z" fill="white"/>
<path d="M3.38118 85.0056C3.49146 85.3336 3.59593 85.6644 3.712 85.9894C3.712 85.9952 3.71491 85.9981 3.71491 86.0039C3.59302 85.6557 3.48275 85.3016 3.36377 84.9505C3.36957 84.9708 3.37538 84.9882 3.38118 85.0056Z" fill="white"/>
<path d="M1.45215 78.0006V78.0064C1.5247 78.3401 1.60595 78.668 1.6814 78.9989C1.6843 79.0105 1.68721 79.0221 1.69011 79.0337C1.61176 78.6884 1.5276 78.3459 1.45215 78.0006Z" fill="white"/>
<path d="M2.29541 81.4426C2.29831 81.4571 2.30412 81.4745 2.30702 81.489C2.40859 81.8575 2.51015 82.2261 2.61753 82.5917C2.62333 82.6062 2.62913 82.6207 2.63204 82.6353C2.51596 82.2406 2.40568 81.843 2.29541 81.4426Z" fill="white"/>
<path d="M2.63316 82.6355C2.63026 82.6209 2.62446 82.6064 2.61865 82.5919C2.85661 83.4045 3.11489 84.2083 3.38187 85.0063C3.37606 84.986 3.37026 84.9686 3.36445 84.9512C3.10908 84.1851 2.86242 83.4132 2.63316 82.6355Z" fill="white"/>
<path d="M1.69083 79.0327C1.68793 79.0211 1.68503 79.0095 1.68213 78.9979C1.87656 79.8337 2.0826 80.6636 2.30895 81.4878C2.30315 81.4733 2.30024 81.4588 2.29444 81.4414C2.0797 80.6462 1.87946 79.8424 1.69083 79.0327Z" fill="white"/>
<path d="M3.71674 86.0042C3.71384 85.9984 3.71384 85.9955 3.71094 85.9897C4.0998 87.0895 4.51188 88.1777 4.95878 89.2515C4.51478 88.1835 4.1056 87.0982 3.71674 86.0042Z" fill="white"/>
<path d="M1.32324 77.4419C1.36097 77.6306 1.4132 77.8163 1.45383 78.0078L1.45093 78.002C1.4132 77.8134 1.36097 77.6306 1.32324 77.4419Z" fill="white"/>
<path d="M17.1142 108.219C16.9894 108.082 16.8762 107.931 16.7515 107.795V107.792C16.8762 107.931 16.9865 108.082 17.1142 108.219Z" fill="white"/>
<path d="M23.3774 114.146L23.3815 114.15L23.3774 114.146Z" fill="white"/>
<path d="M23.3792 114.149C22.4883 113.409 21.6061 112.652 20.7559 111.865C21.6061 112.652 22.4883 113.406 23.3792 114.149Z" fill="white"/>
<path d="M11.5493 101.272C11.5957 101.339 11.6422 101.409 11.6886 101.476C11.6509 101.418 11.6103 101.36 11.5696 101.301C11.5638 101.293 11.5551 101.281 11.5493 101.272Z" fill="white"/>
<path d="M17.1167 108.221L17.1196 108.224C17.2443 108.357 17.3807 108.476 17.5026 108.61C17.2501 108.34 17.0006 108.067 16.7539 107.794C16.8787 107.931 16.989 108.082 17.1137 108.218L17.1167 108.221Z" fill="white"/>
<path d="M0.0776367 67.4948C0.0805387 67.5296 0.0834406 67.5673 0.0834406 67.6022C0.0892445 67.6747 0.0921465 67.7443 0.0979504 67.8169C0.0921465 67.7095 0.0834406 67.6022 0.0776367 67.4948Z" fill="white"/>
<path d="M0.0986664 67.8162C0.150901 68.8028 0.22345 69.7837 0.319215 70.7588C0.322117 70.7675 0.322117 70.7762 0.322117 70.7849C0.417881 71.757 0.536861 72.7234 0.673253 73.681C0.71388 73.9625 0.754507 74.244 0.798037 74.5226C0.983762 75.695 1.20721 76.85 1.45388 77.9991C1.52643 78.3474 1.61058 78.6898 1.69184 79.0322C1.88046 79.8419 2.0807 80.6457 2.29544 81.4438C2.40572 81.8413 2.51599 82.2389 2.63207 82.6365C2.86132 83.4142 3.10799 84.1861 3.36336 84.9522C3.48234 85.3033 3.59262 85.6545 3.7174 86.0027C4.10626 87.0968 4.51253 88.1821 4.95944 89.25L40.8653 70.8981L0 64.4209C0 65.4511 0.0290195 66.4755 0.0783527 67.4941C0.0841566 67.6014 0.0928625 67.7088 0.0986664 67.8162Z" fill="white"/>
<path d="M0.401595 71.5299C0.479948 72.2495 0.569908 72.9692 0.671476 73.6831C0.535085 72.7226 0.419007 71.7591 0.323242 70.787C0.346458 71.0336 0.375477 71.2832 0.401595 71.5299Z" fill="white"/>
<path d="M0.13587 68.3918C0.179399 69.1231 0.231634 69.8515 0.301281 70.574C0.307085 70.635 0.312889 70.6988 0.321595 70.7598C0.22583 69.7847 0.15038 68.8039 0.0981445 67.8172C0.112654 68.0087 0.124262 68.2002 0.13587 68.3918Z" fill="white"/>
<path d="M0.799316 74.523C0.9241 75.321 1.0663 76.1132 1.2201 76.9026C1.25492 77.0825 1.28684 77.2624 1.32457 77.4423C1.36229 77.6281 1.41453 77.8138 1.45226 77.9995C1.20849 76.8503 0.982139 75.6925 0.799316 74.523Z" fill="white"/>
<path d="M7.23955 94.1346C7.28308 94.2159 7.33241 94.2913 7.37594 94.3726C7.27147 94.1752 7.167 93.975 7.06543 93.7748C7.11186 93.8618 7.14668 93.9576 7.19312 94.0475C7.21053 94.0766 7.22504 94.1056 7.23955 94.1346Z" fill="white"/>
<path d="M4.95801 89.2509L40.5969 103.552L40.8668 70.899L4.95801 89.2509Z" fill="white"/>
<path d="M5.0149 89.3869C4.99749 89.3434 4.98008 89.3028 4.95977 89.2592L4.95686 89.2505L4.93945 89.2447C5.0149 89.4218 5.09906 89.5901 5.17451 89.7671C5.1513 89.712 5.12808 89.6597 5.10777 89.6046C5.07584 89.532 5.04392 89.4595 5.0149 89.3869Z" fill="white"/>
<path d="M5.05818 89.485C5.04367 89.4531 5.02916 89.4183 5.01465 89.3864C5.04657 89.4589 5.07559 89.5315 5.10751 89.604C5.09881 89.5779 5.0872 89.5547 5.07849 89.5315C5.06979 89.514 5.06398 89.4995 5.05818 89.485Z" fill="white"/>
<path d="M5.01656 89.3862C5.00205 89.3485 4.98464 89.3108 4.96723 89.2702C4.96723 89.2702 4.96433 89.2643 4.96143 89.2585C4.98174 89.3021 4.99915 89.3427 5.01656 89.3862Z" fill="white"/>
<path d="M5.05822 89.4854C5.04371 89.4505 5.0292 89.4157 5.01179 89.3809C5.00018 89.349 4.98858 89.317 4.97407 89.288C4.97116 89.2822 4.96826 89.2764 4.96826 89.2706C4.98277 89.3083 5.00018 89.349 5.01469 89.3867C5.0292 89.4186 5.04371 89.4534 5.05822 89.4854Z" fill="white"/>
<path d="M5.07715 89.532C5.08876 89.5552 5.09746 89.5814 5.10617 89.6046C5.12938 89.6568 5.1526 89.712 5.17581 89.7671C5.14389 89.6887 5.10907 89.6104 5.07715 89.532Z" fill="white"/>
<path d="M5.17537 89.7656C5.12604 89.6524 5.07961 89.5364 5.03027 89.4232C5.04188 89.4493 5.05349 89.4783 5.0651 89.5044C5.10282 89.5915 5.13765 89.6786 5.17537 89.7656Z" fill="white"/>
<path d="M5.06595 89.5058C5.06301 89.4999 5.06007 89.491 5.05713 89.4852C5.06301 89.4999 5.07184 89.5175 5.07772 89.5322C5.07478 89.5234 5.0689 89.5146 5.06595 89.5058Z" fill="white"/>
<path d="M5.05864 89.486C5.06154 89.4918 5.06444 89.5005 5.06734 89.5063C5.05574 89.4773 5.04413 89.4512 5.03252 89.4222C5.02672 89.4077 5.02091 89.3932 5.01221 89.3816C5.02962 89.4164 5.04413 89.4512 5.05864 89.486Z" fill="white"/>
<path d="M5.1757 89.7656C5.13798 89.6786 5.10316 89.5915 5.06543 89.5044C5.07123 89.5132 5.07414 89.5219 5.07704 89.5306C5.10896 89.6089 5.14378 89.6873 5.1757 89.7656Z" fill="white"/>
<path d="M9.55225 98.2273C9.62189 98.3376 9.69154 98.4479 9.76119 98.561C9.69444 98.4537 9.6277 98.3492 9.56095 98.2418C9.55805 98.236 9.55515 98.2331 9.55225 98.2273Z" fill="white"/>
<path d="M9.56095 98.2418C9.6277 98.3492 9.69444 98.4537 9.76119 98.561C9.69154 98.4508 9.62189 98.3405 9.55225 98.2273C9.55515 98.2331 9.55805 98.236 9.56095 98.2418Z" fill="white"/>
<path d="M9.76172 98.5592C9.76476 98.5653 9.77083 98.5713 9.77386 98.5774L9.7769 98.5835C9.77083 98.5744 9.76779 98.5683 9.76172 98.5592Z" fill="white"/>
<path d="M9.76262 98.561C9.69298 98.4508 9.62043 98.3405 9.55078 98.2273H9.55368C9.62043 98.3405 9.69298 98.4508 9.76262 98.561Z" fill="white"/>
<path d="M9.77837 98.5835L9.76318 98.5592C9.76926 98.5683 9.77229 98.5744 9.77837 98.5835Z" fill="white"/>
<path d="M13.7574 104.275C13.7429 104.257 13.7283 104.237 13.7109 104.219C13.7342 104.246 13.7545 104.272 13.7748 104.298C13.769 104.289 13.7632 104.283 13.7574 104.275Z" fill="white"/>
<path d="M13.777 104.298L13.774 104.295C13.7709 104.289 13.7618 104.28 13.7588 104.274C13.7649 104.283 13.7709 104.289 13.777 104.298Z" fill="white"/>
<path d="M11.7594 101.578C11.742 101.552 11.7217 101.525 11.7043 101.499C11.6608 101.433 11.6143 101.369 11.5708 101.302C11.6085 101.36 11.6492 101.418 11.6898 101.476C11.713 101.511 11.7362 101.543 11.7594 101.578Z" fill="white"/>
<path d="M11.5493 101.272C11.5551 101.28 11.5638 101.292 11.5696 101.301C11.6161 101.367 11.6596 101.431 11.7031 101.498C11.6509 101.423 11.6016 101.347 11.5493 101.272Z" fill="white"/>
<path d="M4.96722 89.271C4.96415 89.2649 4.96108 89.2556 4.95801 89.2495L4.96108 89.2587L4.96722 89.271Z" fill="white"/>
<path d="M13.7574 104.275C13.7632 104.281 13.769 104.29 13.7748 104.295C13.7545 104.269 13.7313 104.246 13.7109 104.22C13.7283 104.237 13.7429 104.258 13.7574 104.275Z" fill="white"/>
<path d="M4.96671 89.2716C4.96962 89.2774 4.97252 89.2832 4.97252 89.2861C4.99283 89.3326 5.01314 89.379 5.03056 89.4225C5.07989 89.5386 5.12632 89.6518 5.17565 89.7679C5.5384 90.6181 5.95048 91.4394 6.35385 92.2693C6.38867 92.339 6.42059 92.4115 6.45542 92.4841C6.66145 92.9136 6.84718 93.3518 7.06482 93.7754C7.16639 93.9757 7.27086 94.1759 7.37243 94.3732L7.37533 94.3761C7.75259 95.0987 8.17047 95.7952 8.57674 96.5004C8.63188 96.599 8.68411 96.6977 8.74215 96.7964C9.00913 97.2752 9.2645 97.7598 9.5518 98.227C9.62144 98.3402 9.69109 98.4505 9.76074 98.5608C9.82168 98.6594 9.89133 98.7523 9.95227 98.851C10.4137 99.5793 10.8867 100.299 11.3742 101.01C11.4352 101.094 11.4903 101.184 11.5483 101.271C11.6006 101.347 11.6528 101.422 11.705 101.498C11.7225 101.524 11.7399 101.55 11.7602 101.576V101.579C12.3899 102.475 13.037 103.358 13.7103 104.22C13.7306 104.246 13.7538 104.272 13.7741 104.298C14.7202 105.502 15.7242 106.66 16.7515 107.795C17.0011 108.068 17.2507 108.34 17.5031 108.61C18.5537 109.727 19.6274 110.824 20.7562 111.866L40.5969 103.552L4.95801 89.2513C4.96091 89.2571 4.96381 89.2658 4.96671 89.2716Z" fill="white"/>
<path d="M8.74402 96.7954C8.68599 96.6967 8.63375 96.5981 8.57861 96.5023C8.59893 96.54 8.62214 96.5807 8.64536 96.6213C8.67728 96.6793 8.7121 96.7374 8.74402 96.7954Z" fill="white"/>
<path d="M6.45704 92.4834C6.42221 92.4108 6.39029 92.3412 6.35547 92.2687C6.37868 92.3122 6.3961 92.3586 6.41931 92.4021C6.43092 92.4312 6.44543 92.4573 6.45704 92.4834Z" fill="white"/>
<path d="M17.5054 108.61C18.5559 109.73 19.6296 110.824 20.7556 111.866C19.6296 110.824 18.5559 109.727 17.5054 108.61Z" fill="white"/>
<path d="M9.95325 98.8511C9.89231 98.7524 9.82266 98.6595 9.76172 98.5609L9.77623 98.5841C9.83427 98.6741 9.89521 98.7611 9.95325 98.8511Z" fill="white"/>
<path d="M5.03167 89.4229C5.01136 89.3764 4.99395 89.3329 4.97363 89.2865C4.98814 89.3184 4.99975 89.3474 5.01426 89.3793C5.02006 89.3938 5.02587 89.4083 5.03167 89.4229Z" fill="white"/>
<path d="M13.7124 104.22C13.727 104.241 13.7445 104.258 13.7592 104.276C13.7416 104.258 13.727 104.238 13.7124 104.22Z" fill="white"/>
<path d="M7.06403 93.7729C6.84928 93.3522 6.66066 92.914 6.45752 92.4845C6.54168 92.6615 6.62293 92.8443 6.70999 93.0242C6.82607 93.2738 6.93924 93.5263 7.06403 93.7729Z" fill="white"/>
<path d="M6.71061 93.0234C6.62355 92.8464 6.54229 92.6636 6.45814 92.4837C6.44363 92.4576 6.43202 92.4314 6.42041 92.4053C6.51908 92.6085 6.61484 92.8145 6.71061 93.0234Z" fill="white"/>
<path d="M11.3765 101.009C10.889 100.301 10.4131 99.5815 9.95459 98.8502C9.98071 98.8938 10.0068 98.9315 10.0329 98.975C10.4711 99.6599 10.918 100.339 11.3765 101.009Z" fill="white"/>
<path d="M9.78458 98.5959C9.86584 98.7236 9.9529 98.8455 10.0342 98.9731C10.008 98.9325 9.97902 98.8919 9.9529 98.8513C9.89486 98.7613 9.83392 98.6742 9.77588 98.5843L9.78458 98.5959Z" fill="white"/>
<path d="M11.7607 101.576C11.7841 101.609 11.8046 101.641 11.8279 101.673C11.8221 101.667 11.8163 101.658 11.8133 101.652C11.7958 101.626 11.7783 101.6 11.7607 101.576Z" fill="white"/>
<path d="M11.812 101.652C11.8178 101.658 11.8207 101.666 11.8265 101.672C12.4359 102.537 13.0627 103.387 13.7128 104.22C13.0366 103.358 12.3924 102.473 11.7598 101.577C11.7772 101.603 11.7946 101.626 11.812 101.652Z" fill="white"/>
<path d="M11.8267 101.672C11.8296 101.678 11.8354 101.684 11.8383 101.69C11.8441 101.696 11.847 101.704 11.8528 101.713C12.4564 102.56 13.0716 103.402 13.7129 104.22C13.0629 103.387 12.4361 102.534 11.8267 101.672Z" fill="white"/>
<path d="M13.7109 104.22C13.0376 103.358 12.3876 102.476 11.7607 101.579C12.3905 102.473 13.0376 103.358 13.7109 104.22Z" fill="white"/>
<path d="M11.5506 101.271C11.5243 101.236 11.5009 101.198 11.4775 101.163C11.5009 101.201 11.5272 101.236 11.5506 101.271Z" fill="white"/>
<path d="M11.5482 101.27C11.5075 101.212 11.4669 101.154 11.4263 101.096C11.4437 101.119 11.4582 101.142 11.4756 101.166C11.4988 101.2 11.5249 101.235 11.5482 101.27Z" fill="white"/>
<path d="M11.4286 101.094C11.4692 101.152 11.5098 101.211 11.5505 101.269C11.4895 101.184 11.4373 101.094 11.3763 101.007C10.9178 100.34 10.4709 99.658 10.0356 98.9731C10.4883 99.687 10.9469 100.398 11.4286 101.094Z" fill="white"/>
<path d="M9.78418 98.5957C9.87704 98.7408 9.967 98.8859 10.0599 99.031C10.4719 99.6839 10.8985 100.325 11.3367 100.961L11.4267 101.094C10.9479 100.401 10.4865 99.6897 10.0337 98.9729C9.95249 98.8452 9.86543 98.7233 9.78418 98.5957Z" fill="white"/>
<path d="M13.7759 104.298L13.7817 104.307L13.7788 104.301L13.7759 104.298Z" fill="white"/>
<path d="M13.779 104.301C13.7821 104.307 13.7883 104.31 13.7914 104.316C13.7852 104.31 13.7821 104.304 13.7759 104.298L13.779 104.301Z" fill="white"/>
<path d="M13.7904 104.317L13.7933 104.32C14.3272 105.002 14.9105 105.644 15.4764 106.299C15.903 106.796 16.3122 107.309 16.7504 107.794H16.7533C15.726 106.662 14.7219 105.504 13.7759 104.3C13.7817 104.306 13.7846 104.312 13.7904 104.317Z" fill="white"/>
<path d="M16.7515 107.792C16.3133 107.307 15.9041 106.797 15.4775 106.297C15.907 106.794 16.3133 107.307 16.7515 107.792Z" fill="white"/>
<path d="M13.7812 104.304C13.7812 104.304 13.7874 104.31 13.7905 104.316V104.313L13.7812 104.304Z" fill="white"/>
<path d="M13.7783 104.301L13.7813 104.304L13.7903 104.316C13.7873 104.31 13.7813 104.307 13.7783 104.301Z" fill="white"/>
<path d="M13.7935 104.318C14.3303 105 14.9165 105.639 15.4795 106.297C14.9136 105.642 14.3303 105 13.7935 104.318Z" fill="white"/>
<path d="M13.7939 104.32L13.7997 104.326C14.415 105.11 15.0534 105.876 15.7063 106.63C15.9095 106.865 16.1155 107.095 16.3215 107.327C16.4637 107.486 16.6088 107.637 16.751 107.794C16.3128 107.309 15.9066 106.793 15.4771 106.299C14.917 105.638 14.3308 105.002 13.7939 104.32Z" fill="white"/>
<path d="M13.79 104.316L13.7941 104.32H13.79V104.316Z" fill="white"/>
<path d="M17.8826 109.021C18.0974 109.244 18.3063 109.471 18.524 109.688C19.2523 110.431 19.9923 111.16 20.7556 111.868C19.6296 110.826 18.5559 109.729 17.5054 108.612C17.6331 108.745 17.7549 108.887 17.8826 109.021Z" fill="white"/>
<path d="M9.55088 98.2251C9.26359 97.7608 9.01112 97.2733 8.74414 96.7944C8.84281 96.9657 8.93277 97.1427 9.03434 97.311C9.20265 97.6186 9.36806 97.9291 9.55088 98.2251Z" fill="white"/>
<path d="M9.03532 97.3125C8.93375 97.1413 8.84089 96.9672 8.74222 96.796C8.7103 96.7379 8.67838 96.677 8.64355 96.6189C8.77704 96.8511 8.90763 97.0803 9.03532 97.3125Z" fill="white"/>
<path d="M7.375 94.3752C7.75225 95.0949 8.16723 95.7885 8.5706 96.4907C8.16723 95.7914 7.75225 95.0949 7.375 94.3752Z" fill="white"/>
<path d="M9.03418 97.312C9.2112 97.6109 9.3679 97.9272 9.55073 98.2232C9.3679 97.9243 9.20249 97.6196 9.03418 97.312Z" fill="white"/>
<path d="M8.64315 96.6203C8.61994 96.5768 8.59672 96.5333 8.5706 96.4926C8.16723 95.7904 7.75225 95.0968 7.375 94.3771C7.57233 94.7544 7.75806 95.1432 7.9641 95.5147C8.00182 95.5872 8.04535 95.6569 8.08598 95.7294C8.55319 96.5739 9.04362 97.4038 9.55146 98.2251C9.36864 97.9291 9.21194 97.6128 9.03492 97.3139C8.90723 97.0817 8.77664 96.8496 8.64315 96.6203Z" fill="white"/>
<path d="M8.5706 96.4918L8.57641 96.5005C8.17013 95.7953 7.75225 95.0988 7.375 94.3763C7.75225 95.093 8.16433 95.7895 8.5706 96.4918Z" fill="white"/>
<path d="M8.64433 96.6196C8.62111 96.579 8.6008 96.5413 8.57758 96.5006L8.57178 96.4919C8.59789 96.5326 8.62111 96.5761 8.64433 96.6196Z" fill="white"/>
<path d="M5.17773 89.768C5.54048 90.6183 5.95836 91.4367 6.35593 92.2695C5.95256 91.4396 5.54048 90.6212 5.17773 89.768Z" fill="white"/>
<path d="M5.17773 89.7693C5.56079 90.666 5.99899 91.5308 6.41977 92.4043C6.39655 92.3608 6.37624 92.3143 6.35593 92.2708C5.95836 91.4379 5.54048 90.6196 5.17773 89.7693Z" fill="white"/>
<path d="M7.06449 93.7729C6.9397 93.5263 6.82653 93.2738 6.71045 93.0242C6.83233 93.2709 6.9397 93.5263 7.06449 93.7729Z" fill="white"/>
<path d="M6.41977 92.4047C5.99899 91.5312 5.56079 90.6664 5.17773 89.7697C5.48534 90.4865 5.80456 91.1975 6.13538 91.9027C6.26306 92.1754 6.39075 92.4511 6.52134 92.721C6.69546 93.0779 6.88698 93.4204 7.064 93.7744C6.93922 93.5277 6.83475 93.2724 6.70996 93.0228C6.6171 92.8168 6.51844 92.6107 6.41977 92.4047Z" fill="white"/>
<path d="M43.9209 125.633C43.9325 125.636 43.9412 125.639 43.9528 125.645H43.9557C43.9441 125.642 43.9325 125.636 43.9209 125.633Z" fill="white"/>
<path d="M43.9542 125.645H43.9572C43.9454 125.642 43.9337 125.636 43.9189 125.633C43.9307 125.636 43.9425 125.642 43.9542 125.645Z" fill="white"/>
<path d="M43.9543 125.646H43.9512H43.9574C43.9636 125.649 43.9698 125.652 43.9698 125.652C43.9698 125.652 43.9605 125.649 43.9543 125.646Z" fill="white"/>
<path d="M43.9557 125.646L43.9209 125.634C43.9325 125.637 43.9441 125.643 43.9557 125.646Z" fill="white"/>
<path d="M43.9706 125.65C43.9764 125.653 43.9851 125.656 43.9909 125.656C43.9909 125.656 43.9822 125.653 43.9764 125.653C43.9706 125.65 43.9619 125.648 43.9561 125.645C43.9561 125.645 43.9648 125.648 43.9706 125.65Z" fill="white"/>
<path d="M43.9945 125.657H43.9915C43.9854 125.654 43.9793 125.651 43.9702 125.648C43.9793 125.651 43.9854 125.654 43.9945 125.657Z" fill="white"/>
<path d="M36.5669 122.629C36.831 122.757 37.095 122.882 37.3591 123.003V123.006C37.095 122.882 36.831 122.757 36.5669 122.629Z" fill="white"/>
<path d="M23.4705 114.224C23.4412 114.198 23.4091 114.174 23.3799 114.148C23.4091 114.174 23.4383 114.198 23.4705 114.224Z" fill="white"/>
<path d="M23.3799 114.15C23.3916 114.158 23.4033 114.17 23.4179 114.179C23.4354 114.193 23.4529 114.208 23.4705 114.223C23.4412 114.199 23.4091 114.173 23.3799 114.15Z" fill="white"/>
<path d="M23.4707 114.224C23.4882 114.238 23.5058 114.253 23.5262 114.268V114.271C23.5087 114.253 23.4882 114.238 23.4707 114.224Z" fill="white"/>
<path d="M23.5262 114.27C23.5087 114.255 23.4912 114.24 23.4707 114.226V114.223C23.4882 114.24 23.5087 114.255 23.5262 114.27Z" fill="white"/>
<path d="M23.4707 114.224C23.4882 114.238 23.5087 114.253 23.5262 114.271V114.268C23.5087 114.253 23.4882 114.238 23.4707 114.224Z" fill="white"/>
<path d="M23.5306 114.272C23.5367 114.275 23.5398 114.282 23.5459 114.285C23.5398 114.282 23.5336 114.275 23.5275 114.269H23.5244L23.5306 114.272Z" fill="white"/>
<path d="M23.7186 114.428C23.6605 114.381 23.6025 114.332 23.5444 114.286C23.6025 114.332 23.6605 114.378 23.7186 114.428Z" fill="white"/>
<path d="M23.5259 114.269L23.5382 114.278L23.5321 114.272L23.5259 114.269Z" fill="white"/>
<path d="M23.5308 114.273L23.5397 114.279L23.5457 114.285C23.5397 114.282 23.5368 114.276 23.5308 114.273Z" fill="white"/>
<path d="M30.4317 119.244C30.3824 119.215 30.336 119.183 30.2866 119.154C30.336 119.183 30.3853 119.215 30.4346 119.247L30.4317 119.244Z" fill="white"/>
<path d="M30.42 119.237C30.3852 119.214 30.3504 119.193 30.3155 119.17C30.301 119.161 30.2865 119.153 30.2749 119.144C30.2749 119.144 30.2836 119.15 30.2894 119.153C30.3358 119.185 30.3852 119.214 30.4316 119.246L30.42 119.237Z" fill="white"/>
<path d="M30.3149 119.17C30.35 119.193 30.3851 119.214 30.4201 119.237C30.4026 119.226 30.3851 119.214 30.3646 119.202C30.35 119.191 30.3325 119.182 30.3149 119.17Z" fill="white"/>
<path d="M30.4329 119.244L30.4359 119.247C30.4299 119.244 30.4269 119.238 30.4209 119.235L30.4329 119.244Z" fill="white"/>
<path d="M30.4198 119.237C30.4256 119.24 30.4344 119.246 30.4344 119.246C30.411 119.231 30.3876 119.216 30.3643 119.202C30.3847 119.213 30.4022 119.225 30.4198 119.237Z" fill="white"/>
<path d="M30.2695 119.141C30.2758 119.144 30.282 119.15 30.2882 119.153C30.2882 119.153 30.2789 119.147 30.2726 119.144L30.2695 119.141Z" fill="white"/>
<path d="M30.0656 119.012L30.0569 119.006C30.0482 119.001 30.0395 118.995 30.0308 118.992L30.0366 118.995C30.0772 119.021 30.1207 119.047 30.1613 119.073C30.1294 119.053 30.0975 119.033 30.0656 119.012Z" fill="white"/>
<path d="M30.1472 119.064C30.1326 119.055 30.118 119.044 30.1005 119.035C30.0888 119.026 30.0771 119.02 30.0654 119.011C30.0976 119.032 30.1297 119.052 30.1619 119.073L30.1706 119.079L30.1472 119.064Z" fill="white"/>
<path d="M30.1604 119.074C30.1198 119.047 30.0792 119.021 30.0356 118.995C30.0966 119.033 30.1546 119.071 30.2127 119.108L30.1691 119.079L30.1604 119.074Z" fill="white"/>
<path d="M30.0254 118.987L30.0377 118.997L30.0316 118.99L30.0254 118.987Z" fill="white"/>
<path d="M30.2657 119.14L30.2715 119.146C30.286 119.154 30.3005 119.163 30.315 119.169C30.2657 119.14 30.2193 119.111 30.1729 119.079C30.2019 119.099 30.2338 119.12 30.2657 119.14Z" fill="white"/>
<path d="M30.1697 119.078L30.1726 119.081C30.219 119.11 30.2684 119.139 30.3148 119.171C30.3322 119.183 30.3496 119.192 30.367 119.203C30.338 119.186 30.309 119.165 30.28 119.148C30.2364 119.119 30.19 119.093 30.1465 119.064L30.1697 119.078Z" fill="white"/>
<path d="M30.2661 119.14L30.2692 119.143L30.2723 119.146L30.2661 119.14Z" fill="white"/>
<path d="M30.4355 119.247C30.3833 119.215 30.331 119.18 30.2788 119.148C30.3078 119.166 30.3368 119.183 30.3659 119.204C30.3891 119.218 30.4123 119.233 30.4355 119.247Z" fill="white"/>
<path d="M30.1728 119.08H30.1699L30.2137 119.106C30.2313 119.118 30.2488 119.129 30.2663 119.141C30.2371 119.121 30.205 119.1 30.1728 119.08Z" fill="white"/>
<path d="M30.2139 119.106C30.2314 119.118 30.2519 119.129 30.2694 119.141H30.2665C30.2489 119.129 30.2314 119.118 30.2139 119.106Z" fill="white"/>
<path d="M37.2895 122.973C37.0892 122.88 36.889 122.784 36.6888 122.689C36.6481 122.668 36.6075 122.651 36.5669 122.631C36.831 122.758 37.095 122.883 37.3591 123.005C37.3417 122.999 37.3272 122.99 37.3098 122.982C37.304 122.979 37.2953 122.976 37.2895 122.973Z" fill="white"/>
<path d="M36.7265 122.706C36.6743 122.68 36.6191 122.657 36.5669 122.631C36.6075 122.651 36.6481 122.668 36.6888 122.689C36.7004 122.694 36.7149 122.7 36.7265 122.706Z" fill="white"/>
<path d="M37.0109 122.841C36.8629 122.771 36.7149 122.702 36.5669 122.629C36.6191 122.655 36.6743 122.681 36.7265 122.707C36.8223 122.751 36.918 122.797 37.0109 122.841Z" fill="white"/>
<path d="M36.7262 122.706C36.7146 122.7 36.7001 122.694 36.6885 122.688C36.8887 122.784 37.0889 122.88 37.2892 122.973C37.2486 122.955 37.2108 122.935 37.1702 122.915C37.0222 122.845 36.8742 122.775 36.7262 122.706Z" fill="white"/>
<path d="M37.1706 122.916C37.1183 122.889 37.0632 122.866 37.011 122.84C36.9152 122.794 36.8223 122.75 36.7266 122.707C36.8746 122.776 37.0226 122.846 37.1706 122.916Z" fill="white"/>
<path d="M29.9589 118.945C29.9763 118.957 29.9937 118.969 30.0111 118.977L30.0227 118.986L30.0314 118.992C30.0401 118.998 30.0488 119.001 30.0575 119.006C29.985 118.963 29.9153 118.916 29.8457 118.873C29.8834 118.896 29.9212 118.922 29.9589 118.945Z" fill="white"/>
<path d="M30.0229 118.985L30.0259 118.988L30.0318 118.991L30.0229 118.985Z" fill="white"/>
<path d="M29.6972 118.78C29.7408 118.809 29.7843 118.835 29.8278 118.864L29.8452 118.872C29.9149 118.919 29.9874 118.962 30.0571 119.009L30.0629 119.012C29.941 118.933 29.8162 118.858 29.6943 118.78H29.6972Z" fill="white"/>
<path d="M30.0639 119.012C30.0726 119.018 30.0842 119.023 30.0929 119.029C29.9594 118.945 29.8259 118.864 29.6953 118.777V118.78C29.8172 118.858 29.942 118.934 30.0639 119.012Z" fill="white"/>
<path d="M30.0566 119.008L30.0654 119.014L30.0625 119.011L30.0566 119.008Z" fill="white"/>
<path d="M30.0654 119.013C30.077 119.022 30.0886 119.027 30.1003 119.036L30.0915 119.03C30.0828 119.025 30.0741 119.019 30.0654 119.013Z" fill="white"/>
<path d="M30.02 118.983L30.0262 118.986H30.0231L30.02 118.983Z" fill="white"/>
<path d="M29.9888 118.964C29.9979 118.97 30.0101 118.976 30.0193 118.985L30.0132 118.979C30.004 118.973 29.9979 118.97 29.9888 118.964Z" fill="white"/>
<path d="M30.0112 118.979L30.0205 118.985H30.0236C30.0174 118.985 30.0112 118.979 30.0112 118.979Z" fill="white"/>
<path d="M29.959 118.946C29.9678 118.952 29.9796 118.957 29.9884 118.963C29.9972 118.969 30.0061 118.975 30.0119 118.978C29.9943 118.969 29.9766 118.957 29.959 118.946Z" fill="white"/>
<path d="M23.3792 114.15C23.4111 114.176 23.4402 114.199 23.4721 114.225C24.5574 115.125 25.666 115.998 26.8093 116.826C27.7525 117.505 28.7188 118.149 29.6968 118.779C29.8274 118.863 29.9609 118.947 30.0914 119.031C30.1059 119.037 30.1176 119.046 30.1292 119.054C30.1785 119.086 30.2278 119.118 30.2801 119.15C30.3323 119.182 30.3845 119.217 30.4368 119.249C31.4234 119.864 32.4217 120.465 33.4461 121.03C34.4676 121.593 35.5123 122.122 36.5657 122.629C36.7137 122.702 36.8617 122.772 37.0097 122.841C37.1258 122.896 37.2418 122.952 37.3608 123.007C38.4229 123.503 39.4967 123.982 40.5936 124.42C41.6847 124.858 42.7991 125.256 43.9192 125.636L43.957 125.647C45.347 126.115 46.7544 126.55 48.188 126.927C43.1502 121.164 40.5965 113.77 40.5965 104.704V103.552L20.7559 111.866C21.6061 112.653 22.4883 113.41 23.3792 114.15Z" fill="white"/>
<path d="M43.9778 125.653C43.9836 125.656 43.9865 125.656 43.9923 125.659H43.9952C45.3737 126.123 46.7695 126.553 48.1886 126.927C46.755 126.55 45.3476 126.115 43.9575 125.645C43.9633 125.647 43.972 125.65 43.9778 125.653Z" fill="white"/>
<path d="M30.1286 119.053C30.117 119.045 30.1054 119.039 30.0938 119.03L30.0996 119.036C30.1112 119.042 30.1199 119.047 30.1286 119.053Z" fill="white"/>
<path d="M30.1462 119.063L30.1285 119.051C30.1197 119.045 30.1109 119.039 30.0991 119.034C30.1168 119.042 30.1315 119.054 30.1462 119.063Z" fill="white"/>
<path d="M30.2783 119.148C30.229 119.116 30.1768 119.084 30.1274 119.052L30.1449 119.064C30.1884 119.093 30.2348 119.119 30.2783 119.148Z" fill="white"/>
<path d="M37.2889 122.972C37.2947 122.975 37.3034 122.978 37.3092 122.981C37.2628 122.961 37.2164 122.937 37.1699 122.914C37.2105 122.935 37.2483 122.955 37.2889 122.972Z" fill="white"/>
<path d="M37.3106 122.982C37.328 122.99 37.3425 122.996 37.36 123.005C37.2439 122.95 37.1278 122.895 37.0117 122.839C37.064 122.866 37.1162 122.889 37.1713 122.915C37.2178 122.938 37.2642 122.958 37.3106 122.982Z" fill="white"/>
<path d="M43.9951 125.659C44.0009 125.662 44.0067 125.662 44.0125 125.665C45.3852 126.126 46.7752 126.556 48.1884 126.927C46.7694 126.553 45.3735 126.123 43.9951 125.659Z" fill="white"/>
<path d="M23.5278 114.271C24.5957 115.153 25.6868 116.012 26.8099 116.824C25.6665 115.997 24.558 115.124 23.4727 114.224C23.4901 114.241 23.5104 114.256 23.5278 114.271Z" fill="white"/>
<path d="M23.5462 114.286C24.6083 115.163 25.6936 116.016 26.8109 116.823C25.6849 116.01 24.5967 115.154 23.5259 114.272C23.5346 114.278 23.5404 114.281 23.5462 114.286Z" fill="white"/>
<path d="M23.7186 114.428C24.7284 115.252 25.7528 116.059 26.8091 116.825C25.6919 116.016 24.6094 115.162 23.5444 114.286C23.6025 114.332 23.6605 114.382 23.7186 114.428Z" fill="white"/>
<path d="M44.2274 125.736C45.5304 126.168 46.8479 126.575 48.1886 126.926C46.7754 126.557 45.3882 126.128 44.0127 125.666C44.0852 125.69 44.1549 125.713 44.2274 125.736Z" fill="white"/>
<path d="M29.8461 118.873L29.8403 118.87C29.8752 118.89 29.9071 118.91 29.9419 118.934C29.9477 118.937 29.9535 118.942 29.9593 118.945C29.9216 118.922 29.8839 118.896 29.8461 118.873Z" fill="white"/>
<path d="M29.8411 118.87L29.8473 118.873L29.8286 118.861L29.8411 118.87Z" fill="white"/>
<path d="M29.9409 118.933C29.9586 118.945 29.9733 118.954 29.9909 118.965C29.9821 118.959 29.9703 118.951 29.9615 118.945C29.9556 118.942 29.9468 118.936 29.9409 118.933Z" fill="white"/>
<path d="M29.8041 118.847C29.7693 118.824 29.7316 118.801 29.6968 118.78C29.7751 118.833 29.8593 118.882 29.9405 118.934C29.9057 118.911 29.8738 118.891 29.839 118.87C29.8274 118.862 29.8158 118.856 29.8041 118.847Z" fill="white"/>
<path d="M29.8042 118.847C29.8158 118.856 29.8274 118.861 29.839 118.87C29.839 118.87 29.8332 118.864 29.8274 118.861C29.8187 118.856 29.8129 118.853 29.8042 118.847Z" fill="white"/>
<path d="M44.7634 125.912C45.8923 126.277 47.0327 126.623 48.1877 126.924C46.8499 126.573 45.5324 126.167 44.2266 125.735C44.4065 125.793 44.5835 125.853 44.7634 125.912Z" fill="white"/>
<path d="M24.0496 114.699C24.9521 115.427 25.8691 116.144 26.8093 116.823C25.753 116.06 24.7286 115.253 23.7188 114.429C23.829 114.519 23.9393 114.609 24.0496 114.699Z" fill="white"/>
<path d="M29.6968 118.779C29.7316 118.802 29.7693 118.826 29.8041 118.846C29.8129 118.852 29.8187 118.857 29.8274 118.863C29.7838 118.834 29.7403 118.808 29.6968 118.779Z" fill="white"/>
<path d="M115.459 103.265C115.572 103.106 115.674 102.943 115.787 102.781L115.784 102.783C115.674 102.943 115.572 103.106 115.459 103.265Z" fill="white"/>
<path d="M118.105 99.1694C117.931 99.4596 117.754 99.7498 117.574 100.037C117.972 99.3958 118.343 98.7341 118.72 98.0783L118.718 98.0812C118.509 98.441 118.317 98.8125 118.105 99.1694Z" fill="white"/>
<path d="M113.198 106.274C113.001 106.524 112.794 106.767 112.594 107.014C113.259 106.202 113.891 105.363 114.518 104.516C114.405 104.664 114.295 104.817 114.182 104.965C113.851 105.401 113.537 105.848 113.198 106.274Z" fill="white"/>
<path d="M119.996 95.8013C119.99 95.8158 119.981 95.8303 119.976 95.8419C119.83 96.1234 119.662 96.3904 119.511 96.6689C119.836 96.0653 120.15 95.453 120.457 94.8378C120.301 95.157 120.158 95.4879 119.996 95.8013Z" fill="white"/>
<path d="M107.399 112.654C107.198 112.845 106.992 113.031 106.789 113.222C106.461 113.53 106.119 113.823 105.782 114.122C106.682 113.312 107.561 112.477 108.414 111.618C108.075 111.96 107.747 112.317 107.399 112.654Z" fill="white"/>
<path d="M100.327 118.55C99.4392 119.192 98.5338 119.807 97.6138 120.402C97.3265 120.585 97.0421 120.77 96.752 120.95C98.1333 120.088 99.4827 119.183 100.791 118.225C100.638 118.336 100.481 118.44 100.327 118.55Z" fill="white"/>
<path d="M123.114 88.7295V88.7324C123.23 88.4219 123.361 88.1201 123.471 87.8067C123.41 87.9808 123.338 88.152 123.274 88.3261C123.225 88.4625 123.164 88.5931 123.114 88.7295Z" fill="white"/>
<path d="M63.0143 1.49359C63.4699 1.83022 63.7398 2.27131 63.7398 2.86912L62.7183 27.2774H100.293C102.507 27.2774 103.615 29.5787 103.615 34.1812C103.615 38.7808 102.507 45.8557 100.293 45.8557L62.2075 40.0576V69.1787L125.334 50.6323C118.43 22.5531 93.1801 1.68802 63.0143 1.49359Z" fill="white"/>
<path d="M125.523 51.4584C125.706 52.2506 125.88 53.0487 126.037 53.8496C125.88 53.0458 125.706 52.2506 125.523 51.4584Z" fill="white"/>
<path d="M110.019 109.981C109.587 110.448 109.128 110.889 108.684 111.345C109.589 110.419 110.469 109.473 111.319 108.495C111.072 108.785 110.829 109.078 110.576 109.36C110.39 109.566 110.208 109.778 110.019 109.981Z" fill="white"/>
<path d="M122.036 91.4429C121.903 91.7563 121.766 92.0697 121.627 92.3831C121.531 92.6008 121.418 92.8097 121.319 93.0303C121.566 92.4934 121.816 91.9595 122.048 91.4139C122.045 91.4226 122.039 91.4342 122.036 91.4429Z" fill="white"/>
<path d="M125.757 79.7593C125.513 80.8969 125.229 82.0199 124.924 83.1343C125.229 82.0199 125.511 80.8969 125.757 79.7593Z" fill="white"/>
<path d="M125.347 50.6295L125.335 50.6324C125.402 50.9052 125.46 51.1838 125.524 51.4595C125.46 51.1838 125.414 50.9023 125.347 50.6295Z" fill="white"/>
<path d="M123.53 87.6246C123.902 86.5741 124.235 85.5061 124.555 84.4324C124.682 84.0029 124.804 83.5705 124.923 83.1352C125.228 82.0209 125.512 80.8978 125.756 79.7603C125.823 79.4614 125.872 79.1567 125.933 78.8549C126.139 77.8247 126.322 76.7887 126.479 75.744C126.525 75.4364 126.577 75.1317 126.618 74.8212C126.786 73.5733 126.917 72.311 127.012 71.0399C127.036 70.7468 127.053 70.4508 127.071 70.1577C127.155 68.817 127.21 67.4676 127.21 66.1037C127.21 64.8675 127.169 63.6428 127.1 62.424C127.076 62.0352 127.041 61.6492 127.012 61.2632C126.949 60.4304 126.879 59.6033 126.786 58.7821C126.737 58.3381 126.676 57.8941 126.618 57.453C126.513 56.6811 126.397 55.9149 126.267 55.1517C126.194 54.7164 126.119 54.2811 126.037 53.8517C125.881 53.0478 125.707 52.2498 125.524 51.4575C125.46 51.1819 125.402 50.9062 125.332 50.6334L62.209 69.1798L123.527 87.6304L123.53 87.6246Z" fill="white"/>
<path d="M119.51 96.6717C119.255 97.1476 118.985 97.6119 118.718 98.0791C118.985 97.6119 119.255 97.1447 119.51 96.6717Z" fill="white"/>
<path d="M118.718 98.0806V98.0777C118.985 97.6105 119.255 97.1461 119.51 96.6702C119.252 97.1432 118.988 97.6134 118.718 98.0806Z" fill="white"/>
<path d="M122.047 91.4136C122.425 90.5314 122.776 89.6347 123.112 88.7322L123.115 88.7293C122.776 89.6318 122.425 90.5285 122.047 91.4136Z" fill="white"/>
<path d="M120.455 94.8398C120.754 94.242 121.038 93.6384 121.317 93.0319L121.32 93.029C121.041 93.6384 120.751 94.2391 120.455 94.8398Z" fill="white"/>
<path d="M123.53 87.6306C123.509 87.6857 123.495 87.7438 123.475 87.8018V87.8076C123.495 87.7467 123.521 87.6886 123.541 87.6277L123.53 87.6306Z" fill="white"/>
<path d="M123.476 87.7931L123.473 87.8018C123.493 87.7437 123.508 87.6857 123.528 87.6305C123.508 87.6828 123.496 87.7408 123.476 87.7931Z" fill="white"/>
<path d="M100.791 118.224C101.803 117.481 102.787 116.703 103.753 115.905C103.594 116.036 103.425 116.155 103.266 116.286C102.453 116.947 101.635 117.603 100.791 118.224Z" fill="white"/>
<path d="M112.085 107.605C112.253 107.405 112.427 107.217 112.593 107.013C112.442 107.199 112.276 107.376 112.123 107.562C112.111 107.576 112.097 107.591 112.085 107.605Z" fill="white"/>
<path d="M112.122 107.562C112.276 107.376 112.441 107.199 112.592 107.013C112.441 107.199 112.279 107.379 112.122 107.562Z" fill="white"/>
<path d="M114.518 104.517C114.834 104.105 115.156 103.692 115.458 103.266C115.159 103.69 114.837 104.099 114.523 104.511L114.518 104.517Z" fill="white"/>
<path d="M114.18 104.967C114.293 104.816 114.403 104.665 114.519 104.517L114.522 104.511C114.406 104.662 114.296 104.816 114.18 104.967Z" fill="white"/>
<path d="M104.485 115.282C104.558 115.218 104.628 115.152 104.7 115.091L104.703 115.088C104.628 115.152 104.558 115.218 104.485 115.282Z" fill="white"/>
<path d="M115.458 103.264C115.159 103.688 114.832 104.091 114.524 104.509C114.837 104.097 115.159 103.688 115.458 103.264Z" fill="white"/>
<path d="M117.575 100.038C117.973 99.3964 118.341 98.7376 118.719 98.0789C118.989 97.6117 119.253 97.1445 119.511 96.6685C119.836 96.0649 120.149 95.4555 120.454 94.8403C120.75 94.2396 121.04 93.6389 121.319 93.0295C121.565 92.4926 121.815 91.9587 122.047 91.4131C122.424 90.528 122.776 89.6313 123.115 88.7288C123.231 88.4212 123.362 88.1194 123.472 87.806C123.472 87.8002 123.475 87.7973 123.475 87.7915C123.495 87.7392 123.51 87.6841 123.527 87.629L62.209 101.402L93.4659 122.885C94.5832 122.275 95.6743 121.622 96.7509 120.949C98.1322 120.087 99.4817 119.185 100.79 118.224C101.635 117.603 102.453 116.947 103.266 116.286C103.425 116.155 103.594 116.036 103.753 115.903C104 115.7 104.241 115.491 104.485 115.282C104.56 115.218 104.63 115.151 104.702 115.087C105.988 113.982 107.221 112.821 108.414 111.619C108.504 111.527 108.594 111.434 108.684 111.344C109.862 110.139 110.999 108.897 112.085 107.606C112.096 107.591 112.108 107.577 112.123 107.562C112.276 107.377 112.439 107.2 112.593 107.014C113.138 106.347 113.658 105.656 114.18 104.965C114.293 104.814 114.406 104.661 114.522 104.51C114.83 104.092 115.158 103.688 115.457 103.265C115.57 103.105 115.675 102.94 115.785 102.78C116.406 101.883 117.001 100.966 117.575 100.038Z" fill="white"/>
<path d="M111.318 108.495C111.574 108.196 111.832 107.903 112.084 107.604C111.832 107.903 111.577 108.199 111.318 108.495Z" fill="white"/>
<path d="M104.701 115.09C105.067 114.774 105.421 114.446 105.781 114.123C105.424 114.446 105.07 114.774 104.704 115.087L104.701 115.09Z" fill="white"/>
<path d="M108.684 111.343C109.131 110.891 109.587 110.447 110.019 109.979C110.208 109.776 110.39 109.567 110.576 109.358C110.832 109.077 111.072 108.784 111.319 108.496C111.577 108.2 111.833 107.904 112.085 107.606C111 108.897 109.862 110.139 108.684 111.343Z" fill="white"/>
<path d="M107.399 112.654C107.747 112.317 108.075 111.96 108.414 111.618C107.222 112.822 105.988 113.983 104.703 115.088C105.068 114.772 105.422 114.444 105.782 114.122C106.119 113.823 106.461 113.53 106.789 113.222C106.992 113.031 107.198 112.845 107.399 112.654Z" fill="white"/>
<path d="M100.327 118.55C100.481 118.44 100.638 118.336 100.791 118.225C99.4827 119.186 98.1333 120.088 96.752 120.95C97.0421 120.77 97.3265 120.585 97.6138 120.402C98.5338 119.807 99.4392 119.192 100.327 118.55Z" fill="white"/>
<path d="M114.18 104.967C113.661 105.658 113.141 106.346 112.593 107.016C112.796 106.769 112.999 106.523 113.196 106.276C113.536 105.85 113.849 105.403 114.18 104.967Z" fill="white"/>
<path d="M119.976 95.8434C119.981 95.8288 119.99 95.8143 119.996 95.8027C120.158 95.4864 120.298 95.1585 120.454 94.8393C120.15 95.4545 119.836 96.0668 119.511 96.6704C119.662 96.3918 119.83 96.1248 119.976 95.8434Z" fill="white"/>
<path d="M121.628 92.3817C121.768 92.0712 121.901 91.7578 122.038 91.4414C122.04 91.4327 122.043 91.4211 122.049 91.4124C121.814 91.958 121.567 92.4919 121.318 93.0288C121.419 92.8112 121.53 92.5993 121.628 92.3817Z" fill="white"/>
<path d="M123.114 88.73C123.164 88.5936 123.225 88.463 123.274 88.3266C123.338 88.1525 123.41 87.9813 123.471 87.8072C123.361 88.1206 123.23 88.4224 123.114 88.73Z" fill="white"/>
<path d="M118.105 99.1694C118.317 98.8125 118.509 98.441 118.718 98.0812C118.343 98.737 117.972 99.3958 117.574 100.037C117.754 99.7498 117.931 99.4596 118.105 99.1694Z" fill="white"/>
<path d="M123.472 87.8062V87.8L123.475 87.7938L123.472 87.8062Z" fill="white"/>
<path d="M79.3334 125.43C84.3712 125.43 89.0782 124.571 93.4659 122.885L62.209 101.402C62.209 117.423 67.9142 125.43 79.3334 125.43Z" fill="white"/>
<path d="M62.2075 69.1801V101.403L123.529 87.6307L62.2075 69.1801Z" fill="white"/>
</svg>
